<svg width="12" height="12" viewBox="0 0 12 12" fill="none" xmlns="http://www.w3.org/2000/svg">
<path d="M11.77 0.0285187H7.7C6.6888 0.0285187 5.6875 0.227517 4.7533 0.614517C3.8191 1.00152 2.9703 1.56852 2.2553 2.28352C1.5403 2.99852 0.9731 3.84752 0.5861 4.78152C0.1992 5.71652 0 6.71752 0 7.72852L0 11.9085C0 11.9271 0.00740018 11.9449 0.0205002 11.958C0.0336002 11.9711 0.0513997 11.9785 0.0699997 11.9785H3.18C3.1986 11.9785 3.2164 11.9711 3.2295 11.958C3.2426 11.9449 3.25 11.9271 3.25 11.9085L3.25 7.74851C3.25 6.56551 3.7199 5.43151 4.5563 4.59451C5.3927 3.75851 6.5271 3.28851 7.71 3.28851H8.71V5.96851C8.71 6.69551 8.4213 7.39252 7.9075 7.90552C7.3936 8.41952 6.6967 8.70852 5.97 8.70852H4.97C4.9514 8.70852 4.9336 8.71552 4.9205 8.72952C4.9074 8.74252 4.9 8.75952 4.9 8.77852V11.9085C4.9 11.9271 4.9074 11.9449 4.9205 11.958C4.9336 11.9711 4.9514 11.9785 4.97 11.9785H6.22C7.7476 11.9785 9.2127 11.3717 10.2929 10.2914C11.3731 9.21151 11.98 7.74651 11.98 6.21851V0.148514C11.9837 0.122514 11.9796 0.0965174 11.9682 0.0725174C11.9567 0.0495174 11.9385 0.0295171 11.9158 0.0175171C11.8932 0.00451709 11.8672 -0.0014812 11.8412 0.000518799C11.8151 0.0025188 11.7904 0.0125187 11.77 0.0285187Z" fill="#7ECB20"/>
</svg>
