<svg width="250" height="181" viewBox="0 0 250 181" fill="none" xmlns="http://www.w3.org/2000/svg">
<path opacity="0.2" d="M190.756 73.6904H179.776V79.3914H190.756V73.6904Z" fill="#7ECB20"/>
<path opacity="0.2" d="M191.601 80.6592H180.621V86.3602H191.601V80.6592Z" fill="#7ECB20"/>
<path opacity="0.2" d="M182.521 32.3057H171.541V38.0067H182.521V32.3057Z" fill="#7ECB20"/>
<path opacity="0.2" d="M190.333 38.8516H179.354V44.5526H190.333V38.8516Z" fill="#7ECB20"/>
<path opacity="0.2" d="M169.219 32.7275H158.239V38.4286H169.219V32.7275Z" fill="#7ECB20"/>
<path opacity="0.2" d="M204.481 45.3975H193.501V51.0985H204.481V45.3975Z" fill="#7ECB20"/>
<path opacity="0.2" d="M191.178 45.8193H180.198V51.5203H191.178V45.8193Z" fill="#7ECB20"/>
<path opacity="0.2" d="M177.031 39.2734H166.052V44.9745H177.031V39.2734Z" fill="#7ECB20"/>
<path opacity="0.2" d="M203.847 89.3154H192.867V95.0164H203.847V89.3154Z" fill="#7ECB20"/>
<path opacity="0.2" d="M190.545 89.7383H179.565V95.4393H190.545V89.7383Z" fill="#7ECB20"/>
<path d="M46.144 72.2129C46.144 72.2129 61.6191 87.688 52.8839 110.642C44.1487 133.596 67.8564 171.799 67.8564 171.799C67.8564 171.799 67.6031 171.761 67.1322 171.679C35.3501 166.068 19.5583 129.719 37.2399 102.724C43.8024 92.6753 49.1951 80.8995 46.144 72.2129Z" fill="#7ECB20"/>
<path d="M46.1442 72.2129C46.1442 72.2129 54.8795 91.1825 46.1442 106.655C37.409 122.128 44.6472 165.566 67.8588 171.799" stroke="#535461" stroke-width="2" stroke-miterlimit="10"/>
<path d="M18.5811 134.801C18.5811 134.801 36.2394 131.988 37.8484 147.814C39.4573 163.64 71.8053 165.833 71.8053 165.833C71.8053 165.833 71.5941 165.977 71.1993 166.237C44.4911 183.762 18.9611 177.404 22.8104 154.125C24.2398 145.47 24.1216 136.777 18.5811 134.801Z" fill="#7ECB20"/>
<path opacity="0.2" d="M18.5811 134.801C18.5811 134.801 36.2394 131.988 37.8484 147.814C39.4573 163.64 71.8053 165.833 71.8053 165.833C71.8053 165.833 71.5941 165.977 71.1993 166.237C44.4911 183.762 18.9611 177.404 22.8104 154.125C24.2398 145.47 24.1216 136.777 18.5811 134.801Z" fill="#F5F5F5"/>
<path d="M18.5811 134.802C18.5811 134.802 32.2867 137.811 31.1613 150.273C30.0359 162.735 51.516 177.682 71.8053 165.834" stroke="#535461" stroke-width="2" stroke-miterlimit="10"/>
<path opacity="0.2" d="M29.6497 73.9023H18.6699V79.6034H29.6497V73.9023Z" fill="#7ECB20"/>
<path opacity="0.2" d="M37.4622 80.4473H26.4824V86.1483H37.4622V80.4473Z" fill="#7ECB20"/>
<path opacity="0.2" d="M96.7942 13.9355H85.8145V19.6366H96.7942V13.9355Z" fill="#7ECB20"/>
<path opacity="0.2" d="M183.365 119.088H172.386V124.789H183.365V119.088Z" fill="#7ECB20"/>
<path opacity="0.2" d="M38.3059 87.415H27.3262V93.1161H38.3059V87.415Z" fill="#7ECB20"/>
<path opacity="0.2" d="M104.607 20.4814H93.627V26.1825H104.607V20.4814Z" fill="#7ECB20"/>
<path opacity="0.2" d="M64.4885 59.1221H53.5088V64.8231H64.4885V59.1221Z" fill="#7ECB20"/>
<path opacity="0.2" d="M72.301 65.667H61.3213V71.368H72.301V65.667Z" fill="#7ECB20"/>
<path opacity="0.2" d="M93.2053 62.0781H82.2256V67.7791H93.2053V62.0781Z" fill="#7ECB20"/>
<path opacity="0.2" d="M73.1457 72.6348H62.166V78.3358H73.1457V72.6348Z" fill="#7ECB20"/>
<path opacity="0.2" d="M198.146 119.088H187.166V124.789H198.146V119.088Z" fill="#7ECB20"/>
<path d="M170.701 96.5177C169.99 92.5612 169.554 88.5602 169.396 84.5435C169.256 81.2355 168.096 78.0518 166.075 75.4291C164.054 72.8064 161.271 70.873 158.108 69.894C156.956 69.5393 155.687 69.2078 154.284 68.91C141.996 66.3002 138.263 68.5785 137.838 68.8784C137.479 68.225 137.166 67.5469 136.903 66.8492C136.882 66.7774 136.863 66.7057 136.841 66.6381C139.274 64.0444 140.755 60.7034 141.045 57.1596C143.096 55.0819 144.293 52.5735 144.293 49.8729C144.293 47.5503 143.406 45.3712 141.854 43.4856V39.8159C141.854 35.584 140.173 31.5254 137.181 28.5329C134.188 25.5405 130.13 23.8594 125.898 23.8594H124.603C122.508 23.8594 120.433 24.2721 118.497 25.074C116.561 25.8759 114.802 27.0512 113.32 28.5329C111.839 30.0146 110.663 31.7737 109.861 33.7096C109.06 35.6455 108.647 37.7204 108.647 39.8159V43.7707C107.238 45.5887 106.44 47.6643 106.44 49.8687C106.44 52.5122 107.589 54.97 109.561 57.0224C109.831 60.696 111.38 64.1586 113.94 66.807C114.027 67.4067 114.116 68.0507 114.202 68.7306L92.2216 73.3737C92.2216 73.3737 83.746 73.7221 78.2857 84.9869C73.6679 94.5287 64.4787 119.043 61.757 126.34C61.265 127.662 60.9863 128.42 60.9863 128.42C60.9863 128.42 61.0771 128.329 61.2482 128.173L60.9863 128.885C60.9863 128.885 61.1194 128.75 61.3727 128.528C60.9884 131.581 60.9335 136.824 64.9327 137.476C68.2857 138.023 76.9259 138.249 83.4525 138.34H83.9044C88.2308 138.397 91.5226 138.397 91.5226 138.397V138.34H161.717V137.62C161.718 136.967 161.586 136.32 161.331 135.72L161.428 135.601C161.803 136.097 162.053 136.677 162.156 137.291C162.148 137.35 162.137 137.409 162.122 137.468L162.165 137.36C162.181 137.552 162.167 137.745 162.122 137.932C162.122 137.932 171.128 114.729 171.031 100.874C171.057 99.4146 170.946 97.9563 170.701 96.5177V96.5177ZM114.567 71.8661C114.451 71.2042 114.376 70.5357 114.344 69.8644C114.344 69.8644 114.344 69.8518 114.344 69.8454C114.422 70.4979 114.498 71.1736 114.567 71.8661ZM87.2828 121.706V127.236L83.8199 127.977L87.2828 121.706Z" fill="url(#paint0_linear)"/>
<path d="M124.894 26.0918C129.126 26.0918 133.185 27.7729 136.177 30.7653C139.169 33.7578 140.851 37.8164 140.851 42.0483V48.8557H108.938V42.0483C108.938 37.8164 110.619 33.7578 113.611 30.7653C116.603 27.7729 120.662 26.0918 124.894 26.0918V26.0918Z" fill="#E14B5A"/>
<path d="M125.007 63.5856C135.052 63.5856 143.195 57.9901 143.195 51.0877C143.195 44.1853 135.052 38.5898 125.007 38.5898C114.962 38.5898 106.818 44.1853 106.818 51.0877C106.818 57.9901 114.962 63.5856 125.007 63.5856Z" fill="#E14B5A"/>
<path d="M113.347 63.1943C113.347 63.1943 117.148 83.0571 113.347 88.4139C109.546 93.7708 124.96 95.8907 124.96 95.8907L140.915 90.0883L143.146 75.8041C143.146 75.8041 133.434 70.3354 135.446 59.2881L113.347 63.1943Z" fill="#F7C4A7"/>
<path d="M160.437 130.15C160.437 130.15 161.442 134.501 155.973 135.283C152.744 135.758 149.461 135.718 146.244 135.167L145.038 124.235H157.76L160.437 130.15Z" fill="#F7C4A7"/>
<path d="M63.8703 124.581C63.8703 124.581 61.4548 134.397 66.9235 135.284C72.3923 136.171 92.4725 136.177 92.4725 136.177V124.564L83.3804 126.506L74.8458 118.322L63.8703 124.581Z" fill="#F7C4A7"/>
<path opacity="0.1" d="M114.521 69.6116L93.1508 74.1302C93.1508 74.1302 85.0047 74.4659 79.7598 85.2894C74.5149 96.1129 63.1318 127.025 63.1318 127.025C63.1318 127.025 72.8447 117.205 84.2235 127.694L91.8122 113.97L90.1377 135.731H148.938V125.463C148.938 125.463 161.212 132.046 160.321 135.729C160.321 135.729 170.826 108.664 168.556 96.3642C167.873 92.5619 167.454 88.7168 167.302 84.8566V84.8566C167.168 81.6773 166.053 78.6174 164.111 76.0969C162.168 73.5764 159.493 71.7189 156.453 70.7793C155.347 70.4393 154.131 70.1205 152.779 69.8354C140.169 67.1581 136.943 69.8354 136.943 69.8354C136.943 69.8354 134.5 77.7831 134.544 81.3853C134.599 86.0158 127.961 89.0859 127.961 89.0859C127.961 89.0859 118.14 86.7421 117.695 84.846C117.249 82.9499 113.736 71.8435 114.521 69.6116Z" fill="black"/>
<path d="M114.52 69.1663L93.15 73.6849C93.15 73.6849 85.0039 74.0206 79.759 84.8441C74.514 95.6676 63.1289 126.584 63.1289 126.584C63.1289 126.584 72.8417 116.763 84.2205 127.253L91.8092 113.529L90.1348 135.283H148.938V125.017C148.938 125.017 161.212 131.601 160.321 135.283C160.321 135.283 170.825 108.218 168.555 95.9188C167.872 92.1165 167.453 88.2715 167.301 84.4112V84.4112C167.167 81.232 166.052 78.1721 164.11 75.6516C162.168 73.1311 159.493 71.2736 156.452 70.334C155.346 69.994 154.13 69.6752 152.778 69.3901C140.169 66.7128 136.942 69.3901 136.942 69.3901C136.942 69.3901 134.499 77.3378 134.544 80.94C134.599 85.5705 127.96 88.6406 127.96 88.6406C127.96 88.6406 118.139 86.2968 117.694 84.4007C117.248 82.5046 113.735 71.3982 114.52 69.1663Z" fill="#575988"/>
<path opacity="0.1" d="M136.357 68.2172C135.46 65.6758 135.258 62.9404 135.775 60.2949L113.676 64.1991C113.676 64.1991 113.995 65.8692 114.356 68.3714C115.784 69.853 117.498 71.0287 119.394 71.8271C121.291 72.6254 123.33 73.0296 125.387 73.0152C127.445 73.0008 129.478 72.568 131.363 71.7432C133.249 70.9184 134.946 69.7187 136.353 68.2172H136.357Z" fill="black"/>
<path d="M140.127 56.8346C140.109 60.8166 138.528 64.6323 135.723 67.4589C132.918 70.2855 129.115 71.8966 125.133 71.9448C121.151 71.993 117.31 70.4745 114.438 67.7166C111.566 64.9587 109.892 61.1824 109.778 57.202C109.778 57.0795 109.778 56.9571 109.778 56.8346C109.778 53.9929 110.575 51.2081 112.079 48.7971C113.583 46.3861 115.733 44.4456 118.286 43.1965C118.74 42.9741 119.208 42.7742 119.688 42.5969C122.184 41.6791 124.877 41.4287 127.5 41.8705V41.8705C130.862 42.4429 133.932 44.1317 136.216 46.6641C138.5 49.1965 139.863 52.4247 140.087 55.8274C140.113 56.161 140.127 56.4968 140.127 56.8346Z" fill="#F7C4A7"/>
<g opacity="0.1">
<path opacity="0.1" d="M119.663 42.9531L119.685 42.9404C119.205 43.1178 118.737 43.3177 118.283 43.5401C115.73 44.7892 113.58 46.7296 112.076 49.1407C110.572 51.5517 109.775 54.3365 109.775 57.1782C109.775 57.3006 109.775 57.4231 109.775 57.5456C110.247 57.5328 110.711 57.4213 111.137 57.2183C114.837 55.4911 117.049 50.2082 117.928 46.5236C118.245 45.2039 118.542 43.7175 119.663 42.9531Z" fill="black"/>
<path opacity="0.1" d="M131.279 43.3773C130.077 42.8255 128.809 42.4343 127.505 42.2139C128.574 42.4598 129.529 43.0595 130.214 43.9157C130.55 44.3726 130.829 44.869 131.044 45.3938C129.025 44.5107 126.837 44.0769 124.633 44.1225C122.429 44.1681 120.262 44.6919 118.28 45.6577C119.233 47.746 122.187 48.8841 124.159 49.6463C126.318 50.4796 128.5 51.2419 130.704 51.933L128.753 50.3494L133.16 51.0504C133.207 50.1734 133.103 49.2948 132.852 48.4533C133.696 49.1332 134.815 49.3612 135.732 49.9314C137.448 51.0145 138.164 53.0986 139.1 54.9039C139.347 55.3811 139.638 55.8689 140.083 56.1708C139.903 53.4432 138.99 50.8149 137.441 48.5631C135.891 46.3114 133.762 44.5197 131.279 43.3773V43.3773Z" fill="black"/>
</g>
<path opacity="0.1" d="M153.96 21.0523C143.232 28.4745 129.317 27.9915 117.125 24.1333C104.933 20.2751 93.7305 13.3942 81.8557 8.50621C71.8808 4.40616 61.4662 1.7233 50.867 0.523349C35.7266 -1.18925 18.8202 0.895293 8.26989 12.8946C-3.47806 26.2595 -2.5773 50.3663 10.1298 62.6292C16.5924 68.869 25.057 71.9305 32.4382 76.8019C39.8193 81.6732 46.6474 89.7643 46.0206 99.1683C45.4396 107.873 38.675 114.554 31.6744 118.745C26.2623 121.984 19.5966 125.521 18.9445 132.229C18.3153 138.722 23.9178 143.81 29.269 146.702C46.726 156.139 68.2326 156.048 85.6211 146.463C91.825 143.044 97.5289 138.497 104.035 135.832C121.119 128.835 139.941 135.879 158.03 138.455C173.389 140.631 188.989 139.508 203.956 135.149C212.913 132.535 221.905 128.538 228.198 121.091C232.734 115.72 235.556 108.925 238.218 102.216C241.048 95.0585 243.768 87.8509 246.378 80.5935C247.946 76.2356 249.489 71.7945 249.892 67.1314C250.625 58.685 247.537 50.3357 243.328 43.205C233.331 26.2761 216.505 14.374 198.287 11.3513C180.069 8.32857 160.788 14.238 146.655 27.1532" fill="#7ECB20"/>
<path d="M119.664 42.6093L119.686 42.5967C119.206 42.774 118.738 42.9739 118.284 43.1963C115.731 44.4454 113.581 46.3859 112.077 48.7969C110.573 51.208 109.776 53.9928 109.776 56.8344C109.776 56.9569 109.776 57.0794 109.776 57.2018C110.248 57.1891 110.712 57.0776 111.138 56.8745C114.838 55.1474 117.05 49.8644 117.929 46.1799C118.246 44.8686 118.543 43.3758 119.664 42.6093Z" fill="#632652"/>
<path d="M131.28 43.0365C130.078 42.4847 128.81 42.0935 127.506 41.873C128.575 42.119 129.53 42.7187 130.215 43.5749C130.551 44.0318 130.83 44.5282 131.045 45.0529C129.025 44.1699 126.838 43.7361 124.634 43.7817C122.43 43.8272 120.263 44.3511 118.281 45.3169C119.234 47.4051 122.188 48.5432 124.16 49.3055C126.319 50.1388 128.501 50.9011 130.705 51.5922L128.754 50.0086L133.161 50.7096C133.208 49.8326 133.104 48.954 132.853 48.1125C133.697 48.7924 134.816 49.0204 135.733 49.5905C137.449 50.6737 138.165 52.7578 139.101 54.5631C139.348 55.0403 139.639 55.528 140.084 55.83C139.904 53.1024 138.991 50.474 137.441 48.2223C135.892 45.9705 133.763 44.1789 131.28 43.0365V43.0365Z" fill="#632652"/>
<path opacity="0.1" d="M108.045 54.3331C108.045 54.3331 123.67 34.9074 141.746 54.3331L140.184 49.9813C140.184 49.9813 131.702 37.5953 125.678 40.2685C119.654 42.9416 113.737 44.8441 113.737 44.8441L108.045 54.3331Z" fill="black"/>
<path d="M108.045 53.9884C108.045 53.9884 123.67 34.5627 141.746 53.9884L140.184 49.6366C140.184 49.6366 131.702 37.2506 125.678 39.9238C119.654 42.5969 113.737 44.4994 113.737 44.4994L108.045 53.9884Z" fill="#E14B5A"/>
<path opacity="0.1" d="M95.2111 95.8359C95.2111 95.8359 91.8644 104.763 96.5498 112.798C101.235 120.832 92.4219 124.181 92.4219 124.181" fill="black"/>
<path opacity="0.1" d="M149.445 87.8018C149.445 87.8018 155.247 95.1666 151.453 101.75C147.659 108.334 147.882 124.181 147.882 124.181" fill="black"/>
<path d="M90.0784 130.764H154.578C155.999 130.764 157.361 131.328 158.366 132.333C159.37 133.337 159.935 134.7 159.935 136.121V136.121H84.7236C84.7236 134.7 85.2877 133.338 86.2919 132.333C87.296 131.329 88.658 130.764 90.0784 130.764V130.764Z" fill="#535461"/>
<path d="M96.641 93.9375H148.018C149.099 93.9375 150.17 94.1505 151.169 94.5643C152.168 94.9782 153.076 95.5847 153.841 96.3494C154.605 97.1141 155.212 98.0219 155.626 99.021C156.04 100.02 156.253 101.091 156.253 102.172V131.991H88.4062V102.172C88.4062 99.9883 89.2738 97.8937 90.8182 96.3494C92.3625 94.8051 94.457 93.9375 96.641 93.9375V93.9375Z" fill="#535461"/>
<path d="M122.272 118.657C124.491 118.657 126.29 116.858 126.29 114.639C126.29 112.42 124.491 110.621 122.272 110.621C120.053 110.621 118.254 112.42 118.254 114.639C118.254 116.858 120.053 118.657 122.272 118.657Z" fill="white"/>
<path opacity="0.1" d="M108.938 45.2278C108.938 45.2278 124.292 29.8815 140.853 44.947" stroke="black" stroke-miterlimit="10"/>
<path d="M144.733 44.25H143.191V52.9894H144.733V44.25Z" fill="#6A5C99"/>
<path d="M141.134 49.9043C142.543 49.9043 143.894 50.464 144.89 51.4603C145.887 52.4566 146.446 53.8078 146.446 55.2168V55.5589C146.446 56.9678 145.887 58.3191 144.89 59.3154C143.894 60.3116 142.543 60.8714 141.134 60.8714V60.8714V49.9043Z" fill="#FFD037"/>
<path d="M142.504 50.5919C142.504 49.9295 141.967 49.3926 141.305 49.3926C140.642 49.3926 140.105 49.9295 140.105 50.5919V60.1886C140.105 60.851 140.642 61.3879 141.305 61.3879C141.967 61.3879 142.504 60.851 142.504 60.1886V50.5919Z" fill="#6A5C99"/>
<path d="M104.901 53.1611H106.442V44.4217H104.901V53.1611Z" fill="#6A5C99"/>
<path d="M108.498 61.043C107.089 61.043 105.738 60.4833 104.742 59.487C103.745 58.4907 103.186 57.1394 103.186 55.7305V55.3884C103.186 54.6908 103.323 53.9999 103.59 53.3554C103.857 52.7109 104.248 52.1252 104.742 51.6319C105.235 51.1386 105.821 50.7473 106.465 50.4803C107.11 50.2133 107.8 50.0759 108.498 50.0759V50.0759V61.043Z" fill="#FFD037"/>
<path d="M107.129 60.3573C107.129 61.0197 107.666 61.5566 108.328 61.5566C108.99 61.5566 109.527 61.0197 109.527 60.3573V50.7606C109.527 50.0982 108.99 49.5613 108.328 49.5613C107.666 49.5613 107.129 50.0982 107.129 50.7606V60.3573Z" fill="#6A5C99"/>
<path d="M143.008 34.909C140.92 30.5678 136.372 25.3186 126.568 24.8984V24.8857H126.45L122.977 25.0504V25.0673C113.239 25.515 108.712 30.7451 106.63 35.0716C105.243 38.0045 104.507 41.2025 104.472 44.4466L105.671 44.417L106.87 44.3895C106.922 41.5014 107.586 38.6572 108.819 36.0449C111.463 30.6142 116.328 27.7278 123.277 27.4596L126.349 27.2886C133.302 27.5547 138.169 30.4453 140.81 35.8739C142.045 38.4871 142.711 41.3329 142.763 44.2227L143.963 44.2502L145.162 44.2797C145.128 41.0375 144.393 37.841 143.008 34.909V34.909Z" fill="#FFD037"/>
<path d="M197.8 136.19H34.2207V180.109H197.8V136.19Z" fill="#D6D6E3"/>
<path opacity="0.1" d="M197.8 139.147H34.2207V144.848H197.8V139.147Z" fill="black"/>
<path d="M208.769 135.558H23.2471V141.259H208.769V135.558Z" fill="#D6D6E3"/>
<defs>
<linearGradient id="paint0_linear" x1="116.01" y1="138.408" x2="116.01" y2="23.8594" gradientUnits="userSpaceOnUse">
<stop stop-color="#808080" stop-opacity="0.25"/>
<stop offset="0.54" stop-color="#808080" stop-opacity="0.12"/>
<stop offset="1" stop-color="#808080" stop-opacity="0.1"/>
</linearGradient>
</defs>
</svg>
