<svg width="250" height="205" viewBox="0 0 250 205" fill="none" xmlns="http://www.w3.org/2000/svg">
<g clip-path="url(#clip0)">
<path d="M57.3145 41.4277L58.3787 129.227L104.365 151.627L103.301 63.8281L57.3145 41.4277Z" fill="#F2F2F2"/>
<path d="M43.3406 34.4141L8.97852 104.957L55.603 127.668L54.5388 39.8688L43.3406 34.4141Z" fill="#F2F2F2"/>
<path d="M250 133.515L157.193 88.3076L158.258 176.107L215.638 204.058L250 133.515Z" fill="#F2F2F2"/>
<path d="M107.459 63.8281L108.523 151.627L154.509 174.027L153.445 86.2283L107.459 63.8281Z" fill="#F2F2F2"/>
<path d="M211.253 67.569L205.479 67.793L205.766 75.2176L211.541 74.9937L211.253 67.569Z" fill="#7ECB20"/>
<path d="M185.205 93.5718C185.205 93.5718 177.208 89.7509 177.336 93.0507C177.463 96.3506 185.397 98.5216 185.397 98.5216L185.205 93.5718Z" fill="#FFB9B9"/>
<path d="M189.591 121.492C189.591 121.492 185.818 130.727 184.424 137.39C183.03 144.054 180.907 153.225 183.637 159.728C186.368 166.232 194.132 185.347 194.212 187.409C194.292 189.472 193.547 191.566 195.197 191.502C196.847 191.438 205.826 188.611 206.19 187.358C206.555 186.104 203.127 182.933 203.127 182.933L194.662 156.409L203.494 139.13L209.864 164.908L211.111 197.081C211.111 197.081 217.235 195.192 218.123 196.81C218.123 196.81 220.867 192.985 221.215 191.319C221.564 189.653 219.92 157.908 219.92 157.908C219.92 157.908 225.54 121.751 221.003 121.927C216.466 122.103 198.694 111.225 189.591 121.492Z" fill="#2F2E41"/>
<path d="M195.135 189.852C195.135 189.852 190.95 199.102 190.553 199.531C190.157 199.959 187.429 204.196 189.492 204.116C191.554 204.036 196.424 201.781 200.008 198.338C203.593 194.894 208.318 188.927 207.89 188.531C207.461 188.134 204.526 187.009 204.526 187.009L195.135 189.852Z" fill="#2F2E41"/>
<path d="M211.857 194.987C211.857 194.987 211.604 199.128 210.843 200.81C210.082 202.492 210.178 204.967 212.241 204.887C214.303 204.807 219.633 203.774 219.633 203.774C219.633 203.774 219.95 201.283 219.521 200.887C219.093 200.49 217.267 196.017 218.044 194.747C218.821 193.478 211.857 194.987 211.857 194.987Z" fill="#2F2E41"/>
<path d="M214.907 60.6104C214.907 60.6104 219.304 67.4626 221.018 69.0485C222.732 70.6344 217.91 74.1262 217.91 74.1262L209.28 75.2871C209.28 75.2871 209.388 67.434 208.944 66.625C208.5 65.816 214.907 60.6104 214.907 60.6104Z" fill="#FFB9B9"/>
<path d="M207.407 69.5772C207.407 69.5772 209.185 72.813 210.835 72.749C212.485 72.6851 221.019 69.0493 221.384 67.7959C221.748 66.5424 224.21 76.7745 224.21 76.7745L203.328 113.524L198.234 110.004L200.702 88.4267L202.729 76.7813L207.407 69.5772Z" fill="#7ECB20"/>
<path d="M222.153 102.466C221.32 104.208 220.799 106.025 220.872 107.886C220.875 107.968 220.878 108.051 220.885 108.133C221.083 111.951 222.489 116.366 222.994 119.577C223.36 121.88 223.256 123.561 221.908 123.956C218.64 124.909 222.384 125.59 209.741 129.798C197.098 134.007 194.892 130.374 194.86 129.549C194.828 128.724 196.651 122.457 196.222 122.061C195.794 121.664 190.227 127.25 188.545 126.489C186.863 125.728 188.353 121.54 188.353 121.54C188.353 121.54 192.142 112.718 192.062 110.655C191.982 108.593 197.801 98.8658 197.801 98.8658L201.759 73.1C201.759 73.1 203.281 69.7362 205.328 69.2437C207.374 68.7513 209.072 69.9247 209.072 69.9247L205.648 77.4933L202.035 90.8527L202.639 95.7864C202.639 95.7864 206.84 86.9484 209.6 83.5366C212.359 80.1248 218.242 72.0477 218.242 72.0477C218.242 72.0477 219.616 67.4132 218.579 66.0282C217.542 64.6391 222.904 64.4311 225.191 70.1259C226.402 73.1441 228.37 77.645 229.602 81.8356C230.7 85.5481 231.219 89.0187 230.131 91.0024C228.468 94.033 224.285 98.0164 222.153 102.466Z" fill="#575A89"/>
<path opacity="0.1" d="M230.131 91.0026C228.468 94.0331 224.285 98.0165 222.153 102.466C221.596 100.459 220.916 98.3826 220.916 98.3826C220.916 98.3826 218.31 84.4383 226.019 80.8345C227.297 80.711 228.574 81.068 229.602 81.8357C230.701 85.5482 231.219 89.0188 230.131 91.0026Z" fill="black"/>
<path d="M199.528 90.124L192.993 92.0299L183.918 92.3818L182.984 100.267L197.898 101.341C197.898 101.341 201.623 90.869 199.528 90.124Z" fill="#575A89"/>
<path d="M210.185 116.637C210.185 116.637 201.441 118.087 203.437 120.719C205.432 123.35 213.178 120.583 213.178 120.583L210.185 116.637Z" fill="#FFB9B9"/>
<path opacity="0.1" d="M220.887 108.134C221.084 111.951 222.491 116.367 222.995 119.578C220.21 122.214 217.561 124.539 216.563 124.578C214.501 124.658 211.185 124.373 209.963 124.834C208.742 125.294 208.025 117.473 208.025 117.473C208.025 117.473 208.754 114.966 212.006 113.601C214.201 112.677 218.409 110.171 220.887 108.134Z" fill="black"/>
<path d="M225.923 78.3599C225.923 78.3599 232.903 77.263 232.526 88.8444C232.149 100.426 233.262 107.819 230.454 109.993C227.647 112.167 218.528 122.022 216.465 122.102C214.403 122.182 211.087 121.898 209.866 122.358C208.644 122.819 207.928 114.997 207.928 114.997C207.928 114.997 208.657 112.491 211.909 111.125C215.16 109.76 222.822 104.919 222.758 103.269C222.694 101.619 220.82 95.908 220.82 95.908C220.82 95.908 218.214 81.9636 225.923 78.3599Z" fill="#575A89"/>
<path d="M208.753 70.7565C213.769 70.7565 217.835 66.6907 217.835 61.6751C217.835 56.6596 213.769 52.5938 208.753 52.5938C203.738 52.5938 199.672 56.6596 199.672 61.6751C199.672 66.6907 203.738 70.7565 208.753 70.7565Z" fill="#FFB9B9"/>
<path d="M202.639 48.6593C202.419 48.848 202.157 48.9796 201.875 49.0424C201.733 49.0677 201.587 49.0359 201.469 48.9539C201.351 48.872 201.27 48.7466 201.244 48.605C201.036 49.0359 200.801 49.4952 200.377 49.7163C199.953 49.9374 199.297 49.752 199.236 49.2775C199.174 49.6378 199.014 49.9742 198.775 50.2503C198.512 50.5012 198.034 50.5646 197.805 50.2827C197.99 51.298 197.876 52.342 197.934 53.3725C197.992 54.4029 198.267 55.4954 199.046 56.173C200.181 57.1612 201.889 56.9173 203.382 56.73C203.608 56.6826 203.842 56.6955 204.062 56.7672C204.621 57.0055 204.595 57.7839 204.603 58.3917C204.649 59.4582 205.071 60.474 205.794 61.2587C206.518 62.0435 207.496 62.5464 208.555 62.6782C209.148 62.7697 209.753 62.6221 210.237 62.2677C210.661 61.9083 210.878 61.3225 211.364 61.0525C212.154 60.6133 213.113 61.2538 213.691 61.9493C214.268 62.6448 214.838 63.5003 215.733 63.6276C216.917 63.7959 217.819 62.5893 218.261 61.4783C218.872 59.921 219.164 58.2574 219.121 56.5853C219.079 54.9133 218.702 53.2668 218.012 51.7428C215.54 46.3538 207.095 45.5014 202.639 48.6593Z" fill="#2F2E41"/>
<path d="M54.0432 203.418C64.3749 203.418 72.7505 195.043 72.7505 184.711C72.7505 174.379 64.3749 166.004 54.0432 166.004C43.7115 166.004 35.3359 174.379 35.3359 184.711C35.3359 195.043 43.7115 203.418 54.0432 203.418Z" fill="#7ECB20"/>
<path d="M45.8756 157.562C47.4879 163.523 53.0106 167.214 53.0106 167.214C53.0106 167.214 55.9192 161.242 54.3068 155.281C52.6945 149.321 47.1718 145.63 47.1718 145.63C47.1718 145.63 44.2632 151.602 45.8756 157.562Z" fill="#3F3D56"/>
<path d="M48.2447 156.282C52.6691 160.589 53.2095 167.21 53.2095 167.21C53.2095 167.21 46.5766 166.848 42.1522 162.541C37.7279 158.234 37.1875 151.613 37.1875 151.613C37.1875 151.613 43.8204 151.975 48.2447 156.282Z" fill="#7ECB20"/>
<path d="M55.4087 155.448C52.4371 160.861 53.8563 167.35 53.8563 167.35C53.8563 167.35 60.0934 165.064 63.065 159.652C66.0365 154.239 64.6173 147.75 64.6173 147.75C64.6173 147.75 58.3802 150.036 55.4087 155.448Z" fill="#3F3D56"/>
<path d="M58.0042 156.169C58.2052 162.34 54.0033 167.485 54.0033 167.485C54.0033 167.485 49.4755 162.624 49.2746 156.453C49.0736 150.282 53.2755 145.137 53.2755 145.137C53.2755 145.137 57.8033 149.997 58.0042 156.169Z" fill="#7ECB20"/>
<path d="M53.2638 192.246C58.5732 192.246 62.8773 187.942 62.8773 182.633C62.8773 177.324 58.5732 173.02 53.2638 173.02C47.9545 173.02 43.6504 177.324 43.6504 182.633C43.6504 187.942 47.9545 192.246 53.2638 192.246Z" fill="#F2F2F2"/>
<path d="M56.3815 181.074C58.1035 181.074 59.4994 179.678 59.4994 177.956C59.4994 176.234 58.1035 174.838 56.3815 174.838C54.6596 174.838 53.2637 176.234 53.2637 177.956C53.2637 179.678 54.6596 181.074 56.3815 181.074Z" fill="#3F3D56"/>
<path d="M100.031 203.158H2.59766V203.678H100.031V203.158Z" fill="#2F2E41"/>
<path d="M243.715 204.198H146.281V204.718H243.715V204.198Z" fill="#2F2E41"/>
<path d="M24.9138 203.537L24.452 203.299C30.4492 191.705 27.2423 176.648 23.4962 166.058C20.9525 158.94 17.708 152.093 13.8105 145.616L14.2498 145.339C18.1674 151.848 21.4288 158.73 23.9859 165.884C27.7665 176.571 30.996 191.778 24.9138 203.537Z" fill="#2F2E41"/>
<path d="M29.3593 145.432L25.9883 163.881L26.4993 163.974L29.8703 145.526L29.3593 145.432Z" fill="#2F2E41"/>
<path d="M6.94501 161.15L6.56445 161.504L23.9725 180.211L24.3531 179.857L6.94501 161.15Z" fill="#2F2E41"/>
<path d="M38.242 181.699L29.4121 193.914L29.8333 194.219L38.6632 182.004L38.242 181.699Z" fill="#2F2E41"/>
<path d="M30.9185 140.541C32.3535 140.541 33.5168 139.378 33.5168 137.943C33.5168 136.508 32.3535 135.345 30.9185 135.345C29.4836 135.345 28.3203 136.508 28.3203 137.943C28.3203 139.378 29.4836 140.541 30.9185 140.541Z" fill="#7ECB20"/>
<path d="M2.59823 160.548C4.03319 160.548 5.19646 159.385 5.19646 157.95C5.19646 156.515 4.03319 155.352 2.59823 155.352C1.16327 155.352 0 156.515 0 157.95C0 159.385 1.16327 160.548 2.59823 160.548Z" fill="#3F3D56"/>
<path d="M14.0299 163.146C15.4648 163.146 16.6281 161.982 16.6281 160.547C16.6281 159.112 15.4648 157.949 14.0299 157.949C12.5949 157.949 11.4316 159.112 11.4316 160.547C11.4316 161.982 12.5949 163.146 14.0299 163.146Z" fill="#3F3D56"/>
<path d="M8.83456 173.279C10.2695 173.279 11.4328 172.116 11.4328 170.681C11.4328 169.246 10.2695 168.083 8.83456 168.083C7.3996 168.083 6.23633 169.246 6.23633 170.681C6.23633 172.116 7.3996 173.279 8.83456 173.279Z" fill="#7ECB20"/>
<path d="M41.3111 179.775C42.7461 179.775 43.9094 178.611 43.9094 177.176C43.9094 175.741 42.7461 174.578 41.3111 174.578C39.8762 174.578 38.7129 175.741 38.7129 177.176C38.7129 178.611 39.8762 179.775 41.3111 179.775Z" fill="#3F3D56"/>
<path d="M32.7369 182.633C34.1719 182.633 35.3351 181.47 35.3351 180.035C35.3351 178.6 34.1719 177.437 32.7369 177.437C31.3019 177.437 30.1387 178.6 30.1387 180.035C30.1387 181.47 31.3019 182.633 32.7369 182.633Z" fill="#3F3D56"/>
<path d="M38.7135 190.947C40.1484 190.947 41.3117 189.784 41.3117 188.349C41.3117 186.914 40.1484 185.751 38.7135 185.751C37.2785 185.751 36.1152 186.914 36.1152 188.349C36.1152 189.784 37.2785 190.947 38.7135 190.947Z" fill="#3F3D56"/>
<path d="M11.4322 143.659C12.8672 143.659 14.0304 142.496 14.0304 141.061C14.0304 139.626 12.8672 138.463 11.4322 138.463C9.99725 138.463 8.83398 139.626 8.83398 141.061C8.83398 142.496 9.99725 143.659 11.4322 143.659Z" fill="#3F3D56"/>
<path d="M178.395 46.5703H53.1602V121.659H178.395V46.5703Z" fill="#3F3D56"/>
<path d="M58.096 50.7271C58.8135 50.7271 59.3951 50.1455 59.3951 49.428C59.3951 48.7105 58.8135 48.1289 58.096 48.1289C57.3785 48.1289 56.7969 48.7105 56.7969 49.428C56.7969 50.1455 57.3785 50.7271 58.096 50.7271Z" fill="#7ECB20"/>
<path d="M62.7737 50.7271C63.4912 50.7271 64.0728 50.1455 64.0728 49.428C64.0728 48.7105 63.4912 48.1289 62.7737 48.1289C62.0562 48.1289 61.4746 48.7105 61.4746 49.428C61.4746 50.1455 62.0562 50.7271 62.7737 50.7271Z" fill="#7ECB20"/>
<path d="M67.4495 50.7271C68.167 50.7271 68.7486 50.1455 68.7486 49.428C68.7486 48.7105 68.167 48.1289 67.4495 48.1289C66.732 48.1289 66.1504 48.7105 66.1504 49.428C66.1504 50.1455 66.732 50.7271 67.4495 50.7271Z" fill="#7ECB20"/>
<path d="M178.394 52.334H53.2637V52.8536H178.394V52.334Z" fill="#2F2E41"/>
<path d="M126.17 67.6162V91.0003H92.1769L85.897 98.5352L86.6141 91.0003H83.5586V67.6162H126.17Z" fill="#7ECB20"/>
<path opacity="0.1" d="M126.169 75.6709H110.84V91.0005H126.169V75.6709Z" fill="black"/>
<path d="M114.217 79.0488H156.828V102.433H153.772L154.489 109.968L148.21 102.433H114.217V79.0488Z" fill="#7ECB20"/>
<path opacity="0.1" d="M86.1564 102.306C91.3222 102.306 95.51 101.897 95.51 101.393C95.51 100.889 91.3222 100.48 86.1564 100.48C80.9905 100.48 76.8027 100.889 76.8027 101.393C76.8027 101.897 80.9905 102.306 86.1564 102.306Z" fill="black"/>
<path opacity="0.1" d="M154.491 114.644C160.374 114.644 165.143 114.179 165.143 113.605C165.143 113.031 160.374 112.565 154.491 112.565C148.607 112.565 143.838 113.031 143.838 113.605C143.838 114.179 148.607 114.644 154.491 114.644Z" fill="black"/>
</g>
<defs>
<clipPath id="clip0">
<rect width="250" height="204.888" fill="white"/>
</clipPath>
</defs>
</svg>
