<svg width="87" height="16" viewBox="0 0 87 16" fill="none" xmlns="http://www.w3.org/2000/svg">
<path d="M11.77 1.03047H7.7C6.6888 1.03047 5.6875 1.22947 4.7533 1.61647C3.8191 2.00347 2.9703 2.57047 2.2553 3.28547C1.5403 4.00047 0.9731 4.84947 0.5861 5.78347C0.1992 6.71847 0 7.71947 0 8.73047L0 12.9105C0 12.9291 0.00740018 12.9469 0.0205002 12.96C0.0336002 12.9731 0.0513997 12.9805 0.0699997 12.9805H3.18C3.1986 12.9805 3.2164 12.9731 3.2295 12.96C3.2426 12.9469 3.25 12.9291 3.25 12.9105L3.25 8.75047C3.25 7.56747 3.7199 6.43347 4.5563 5.59647C5.3927 4.76047 6.5271 4.29047 7.71 4.29047H8.71V6.97047C8.71 7.69747 8.4213 8.39447 7.9075 8.90747C7.3936 9.42147 6.6967 9.71047 5.97 9.71047H4.97C4.9514 9.71047 4.9336 9.71747 4.9205 9.73147C4.9074 9.74447 4.9 9.76147 4.9 9.78047V12.9105C4.9 12.9291 4.9074 12.9469 4.9205 12.96C4.9336 12.9731 4.9514 12.9805 4.97 12.9805H6.22C7.7476 12.9805 9.2127 12.3737 10.2929 11.2934C11.3731 10.2135 11.98 8.74847 11.98 7.22047V1.15047C11.9837 1.12447 11.9796 1.09847 11.9682 1.07447C11.9567 1.05147 11.9385 1.03147 11.9158 1.01947C11.8932 1.00647 11.8672 1.00047 11.8412 1.00247C11.8151 1.00447 11.7904 1.01447 11.77 1.03047Z" fill="white"/>
<path d="M17.4365 1.672H18.9725V11.56H24.1725V13H17.4365V1.672ZM25.3913 2.696C25.3913 2.408 25.4927 2.16267 25.6953 1.96C25.9087 1.74667 26.1593 1.64 26.4473 1.64C26.7353 1.64 26.9807 1.74667 27.1833 1.96C27.3967 2.16267 27.5033 2.408 27.5033 2.696C27.5033 2.984 27.3967 3.23467 27.1833 3.448C26.9807 3.65067 26.7353 3.752 26.4473 3.752C26.1593 3.752 25.9087 3.65067 25.6953 3.448C25.4927 3.23467 25.3913 2.984 25.3913 2.696ZM25.7273 5.416H27.1673V13H25.7273V5.416ZM29.7091 5.416H31.0531V6.6H31.0851C31.1171 6.49333 31.1971 6.36 31.3251 6.2C31.4638 6.04 31.6344 5.89067 31.8371 5.752C32.0504 5.60267 32.2958 5.48 32.5731 5.384C32.8611 5.27733 33.1758 5.224 33.5171 5.224C34.0824 5.224 34.5571 5.34133 34.9411 5.576C35.3251 5.81067 35.6398 6.16267 35.8851 6.632C36.1304 6.16267 36.4771 5.81067 36.9251 5.576C37.3731 5.34133 37.8264 5.224 38.2851 5.224C38.8718 5.224 39.3518 5.32 39.7251 5.512C40.0984 5.704 40.3918 5.96 40.6051 6.28C40.8184 6.58933 40.9624 6.94667 41.0371 7.352C41.1224 7.74667 41.1651 8.15733 41.1651 8.584V13H39.7251V8.776C39.7251 8.488 39.7038 8.21067 39.6611 7.944C39.6291 7.67733 39.5544 7.44267 39.4371 7.24C39.3198 7.03733 39.1544 6.87733 38.9411 6.76C38.7278 6.632 38.4451 6.568 38.0931 6.568C37.3998 6.568 36.9038 6.78133 36.6051 7.208C36.3064 7.63467 36.1571 8.184 36.1571 8.856V13H34.7171V9.032C34.7171 8.66933 34.6958 8.33867 34.6531 8.04C34.6211 7.74133 34.5464 7.48533 34.4291 7.272C34.3224 7.048 34.1624 6.87733 33.9491 6.76C33.7464 6.632 33.4691 6.568 33.1171 6.568C32.8611 6.568 32.6104 6.62133 32.3651 6.728C32.1304 6.824 31.9224 6.97333 31.7411 7.176C31.5598 7.37867 31.4158 7.64 31.3091 7.96C31.2024 8.26933 31.1491 8.63733 31.1491 9.064V13H29.7091V5.416ZM49.2161 8.584C49.2054 8.264 49.1521 7.97067 49.0561 7.704C48.9708 7.43733 48.8374 7.208 48.6561 7.016C48.4748 6.81333 48.2454 6.65867 47.9681 6.552C47.7014 6.43467 47.3868 6.376 47.0241 6.376C46.6721 6.376 46.3468 6.44533 46.0481 6.584C45.7601 6.712 45.5148 6.88267 45.3121 7.096C45.1094 7.30933 44.9494 7.54933 44.8321 7.816C44.7254 8.072 44.6721 8.328 44.6721 8.584H49.2161ZM44.6721 9.736C44.6721 10.0667 44.7414 10.3707 44.8801 10.648C45.0294 10.9147 45.2214 11.144 45.4561 11.336C45.6908 11.528 45.9628 11.6773 46.2721 11.784C46.5814 11.8907 46.9014 11.944 47.2321 11.944C47.6801 11.944 48.0694 11.8427 48.4001 11.64C48.7308 11.4267 49.0348 11.1493 49.3121 10.808L50.4001 11.64C49.6001 12.6747 48.4801 13.192 47.0401 13.192C46.4428 13.192 45.8988 13.0907 45.4081 12.888C44.9281 12.6853 44.5174 12.408 44.1761 12.056C43.8454 11.6933 43.5894 11.272 43.4081 10.792C43.2268 10.3013 43.1361 9.77333 43.1361 9.208C43.1361 8.64267 43.2321 8.12 43.4241 7.64C43.6268 7.14933 43.8988 6.728 44.2401 6.376C44.5921 6.01333 45.0081 5.73067 45.4881 5.528C45.9681 5.32533 46.4908 5.224 47.0561 5.224C47.7281 5.224 48.2934 5.34133 48.7521 5.576C49.2214 5.81067 49.6054 6.12 49.9041 6.504C50.2028 6.87733 50.4161 7.304 50.5441 7.784C50.6828 8.25333 50.7521 8.73333 50.7521 9.224V9.736H44.6721ZM60.9807 4.12C60.6607 3.704 60.2554 3.384 59.7647 3.16C59.2741 2.936 58.7674 2.824 58.2447 2.824C57.6047 2.824 57.0234 2.94667 56.5007 3.192C55.9887 3.42667 55.5461 3.752 55.1727 4.168C54.8101 4.584 54.5274 5.07467 54.3247 5.64C54.1221 6.19467 54.0207 6.792 54.0207 7.432C54.0207 8.02933 54.1167 8.59467 54.3087 9.128C54.5007 9.66133 54.7781 10.1307 55.1407 10.536C55.5034 10.9413 55.9461 11.2613 56.4687 11.496C56.9914 11.7307 57.5834 11.848 58.2447 11.848C58.8954 11.848 59.4661 11.7147 59.9567 11.448C60.4474 11.1813 60.8634 10.808 61.2047 10.328L62.5007 11.304C62.4154 11.4213 62.2661 11.592 62.0527 11.816C61.8394 12.0293 61.5567 12.248 61.2047 12.472C60.8527 12.6853 60.4261 12.872 59.9247 13.032C59.4341 13.2027 58.8634 13.288 58.2127 13.288C57.3167 13.288 56.5061 13.1173 55.7807 12.776C55.0661 12.4347 54.4527 11.9867 53.9407 11.432C53.4394 10.8773 53.0554 10.2533 52.7887 9.56C52.5221 8.856 52.3887 8.14667 52.3887 7.432C52.3887 6.55733 52.5327 5.752 52.8207 5.016C53.1087 4.26933 53.5087 3.62933 54.0207 3.096C54.5434 2.552 55.1674 2.13067 55.8927 1.832C56.6181 1.53333 57.4181 1.384 58.2927 1.384C59.0394 1.384 59.7701 1.528 60.4847 1.816C61.2101 2.104 61.8021 2.54667 62.2607 3.144L60.9807 4.12ZM64.2403 0.903999H65.6803V6.584H65.7123C65.8937 6.17867 66.2083 5.85333 66.6563 5.608C67.1043 5.352 67.6217 5.224 68.2083 5.224C68.571 5.224 68.9177 5.28267 69.2483 5.4C69.5897 5.50667 69.883 5.67733 70.1283 5.912C70.3843 6.14667 70.587 6.45067 70.7363 6.824C70.8857 7.18667 70.9603 7.61867 70.9603 8.12V13H69.5203V8.52C69.5203 8.168 69.4723 7.86933 69.3763 7.624C69.2803 7.368 69.1523 7.16533 68.9923 7.016C68.8323 6.856 68.6457 6.744 68.4323 6.68C68.2297 6.60533 68.0163 6.568 67.7923 6.568C67.4937 6.568 67.2163 6.616 66.9603 6.712C66.7043 6.808 66.4803 6.96267 66.2883 7.176C66.0963 7.37867 65.947 7.64 65.8403 7.96C65.7337 8.28 65.6803 8.65867 65.6803 9.096V13H64.2403V0.903999ZM77.477 9.352C77.1356 9.352 76.7836 9.37333 76.421 9.416C76.069 9.448 75.7436 9.51733 75.445 9.624C75.157 9.73067 74.917 9.88 74.725 10.072C74.5436 10.264 74.453 10.5093 74.453 10.808C74.453 11.2453 74.597 11.56 74.885 11.752C75.1836 11.944 75.5836 12.04 76.085 12.04C76.4796 12.04 76.8156 11.976 77.093 11.848C77.3703 11.7093 77.5943 11.5333 77.765 11.32C77.9356 11.1067 78.0583 10.872 78.133 10.616C78.2076 10.3493 78.245 10.088 78.245 9.832V9.352H77.477ZM73.413 6.344C73.8183 5.97067 74.2876 5.69333 74.821 5.512C75.3543 5.32 75.8876 5.224 76.421 5.224C76.9756 5.224 77.4503 5.29333 77.845 5.432C78.2503 5.57067 78.581 5.75733 78.837 5.992C79.093 6.22667 79.2796 6.49867 79.397 6.808C79.525 7.10667 79.589 7.42133 79.589 7.752V11.624C79.589 11.8907 79.5943 12.136 79.605 12.36C79.6156 12.584 79.6316 12.7973 79.653 13H78.373C78.341 12.616 78.325 12.232 78.325 11.848H78.293C77.973 12.3387 77.5943 12.6853 77.157 12.888C76.7196 13.0907 76.213 13.192 75.637 13.192C75.285 13.192 74.949 13.144 74.629 13.048C74.309 12.952 74.0263 12.808 73.781 12.616C73.5463 12.424 73.3596 12.1893 73.221 11.912C73.0823 11.624 73.013 11.2933 73.013 10.92C73.013 10.4293 73.1196 10.0187 73.333 9.688C73.557 9.35733 73.8556 9.09067 74.229 8.888C74.613 8.67467 75.0556 8.52533 75.557 8.44C76.069 8.344 76.613 8.296 77.189 8.296H78.245V7.976C78.245 7.784 78.2076 7.592 78.133 7.4C78.0583 7.208 77.9463 7.03733 77.797 6.888C77.6476 6.728 77.461 6.60533 77.237 6.52C77.013 6.424 76.7463 6.376 76.437 6.376C76.1596 6.376 75.9143 6.40267 75.701 6.456C75.4983 6.50933 75.3116 6.57867 75.141 6.664C74.9703 6.73867 74.8156 6.82933 74.677 6.936C74.5383 7.04267 74.405 7.144 74.277 7.24L73.413 6.344ZM85.9918 6.664H83.9278V10.104C83.9278 10.3173 83.9332 10.5307 83.9438 10.744C83.9545 10.9467 83.9918 11.1333 84.0558 11.304C84.1305 11.464 84.2372 11.5973 84.3758 11.704C84.5252 11.8 84.7385 11.848 85.0158 11.848C85.1865 11.848 85.3625 11.832 85.5438 11.8C85.7252 11.768 85.8905 11.7093 86.0398 11.624V12.936C85.8692 13.032 85.6452 13.096 85.3678 13.128C85.1012 13.1707 84.8932 13.192 84.7438 13.192C84.1892 13.192 83.7572 13.1173 83.4478 12.968C83.1492 12.808 82.9252 12.6053 82.7758 12.36C82.6372 12.1147 82.5518 11.8427 82.5198 11.544C82.4985 11.2347 82.4878 10.9253 82.4878 10.616V6.664H80.8238V5.416H82.4878V3.288H83.9278V5.416H85.9918V6.664Z" fill="white"/>
<path d="M17.4365 1.672V1.572H17.3365V1.672H17.4365ZM18.9725 1.672H19.0725V1.572H18.9725V1.672ZM18.9725 11.56H18.8725V11.66H18.9725V11.56ZM24.1725 11.56H24.2725V11.46H24.1725V11.56ZM24.1725 13V13.1H24.2725V13H24.1725ZM17.4365 13H17.3365V13.1H17.4365V13ZM17.4365 1.772H18.9725V1.572H17.4365V1.772ZM18.8725 1.672V11.56H19.0725V1.672H18.8725ZM18.9725 11.66H24.1725V11.46H18.9725V11.66ZM24.0725 11.56V13H24.2725V11.56H24.0725ZM24.1725 12.9H17.4365V13.1H24.1725V12.9ZM17.5365 13V1.672H17.3365V13H17.5365ZM25.6953 1.96L25.6246 1.88929V1.88929L25.6953 1.96ZM27.1833 1.96L27.1107 2.02896L27.1145 2.0325L27.1833 1.96ZM27.1833 3.448L27.2541 3.51871H27.2541L27.1833 3.448ZM25.6953 3.448L25.6227 3.51697L25.6265 3.5205L25.6953 3.448ZM25.7273 5.416V5.316H25.6273V5.416H25.7273ZM27.1673 5.416H27.2673V5.316H27.1673V5.416ZM27.1673 13V13.1H27.2673V13H27.1673ZM25.7273 13H25.6273V13.1H25.7273V13ZM25.4913 2.696C25.4913 2.43438 25.5822 2.21452 25.7661 2.03071L25.6246 1.88929C25.4031 2.11081 25.2913 2.38162 25.2913 2.696H25.4913ZM25.7661 2.03071C25.9616 1.83514 26.1872 1.74 26.4473 1.74V1.54C26.1314 1.54 25.8557 1.65819 25.6246 1.88929L25.7661 2.03071ZM26.4473 1.74C26.7073 1.74 26.9266 1.83493 27.1108 2.02887L27.2558 1.89112C27.0348 1.65841 26.7634 1.54 26.4473 1.54V1.74ZM27.1145 2.0325C27.3084 2.21675 27.4033 2.43608 27.4033 2.696H27.6033C27.6033 2.37992 27.4849 2.10858 27.2522 1.8875L27.1145 2.0325ZM27.4033 2.696C27.4033 2.95611 27.3082 3.18172 27.1126 3.37729L27.2541 3.51871C27.4851 3.28762 27.6033 3.01189 27.6033 2.696H27.4033ZM27.1126 3.37729C26.9288 3.5611 26.709 3.652 26.4473 3.652V3.852C26.7617 3.852 27.0325 3.74023 27.2541 3.51871L27.1126 3.37729ZM26.4473 3.652C26.1856 3.652 25.9594 3.56094 25.7642 3.3755L25.6265 3.5205C25.8579 3.7404 26.1331 3.852 26.4473 3.852V3.652ZM25.7678 3.37913C25.5824 3.18393 25.4913 2.95775 25.4913 2.696H25.2913C25.2913 3.01025 25.4029 3.2854 25.6228 3.51687L25.7678 3.37913ZM25.7273 5.516H27.1673V5.316H25.7273V5.516ZM27.0673 5.416V13H27.2673V5.416H27.0673ZM27.1673 12.9H25.7273V13.1H27.1673V12.9ZM25.8273 13V5.416H25.6273V13H25.8273ZM29.7091 5.416V5.316H29.6091V5.416H29.7091ZM31.0531 5.416H31.1531V5.316H31.0531V5.416ZM31.0531 6.6H30.9531V6.7H31.0531V6.6ZM31.0851 6.6V6.7H31.1595L31.1809 6.62873L31.0851 6.6ZM31.3251 6.2L31.2495 6.13446L31.247 6.13753L31.3251 6.2ZM31.8371 5.752L31.8936 5.83454L31.8944 5.83392L31.8371 5.752ZM32.5731 5.384L32.6058 5.47852L32.6078 5.47777L32.5731 5.384ZM34.9411 5.576L34.8889 5.66133L34.9411 5.576ZM35.8851 6.632L35.7965 6.67832L35.8851 6.84786L35.9737 6.67832L35.8851 6.632ZM36.9251 5.576L36.9715 5.66458L36.9251 5.576ZM39.7251 5.512L39.6794 5.60093L39.7251 5.512ZM40.6051 6.28L40.5219 6.33548L40.5228 6.33677L40.6051 6.28ZM41.0371 7.352L40.9387 7.37012L40.9394 7.37313L41.0371 7.352ZM41.1651 13V13.1H41.2651V13H41.1651ZM39.7251 13H39.6251V13.1H39.7251V13ZM39.6611 7.944L39.5617 7.95592L39.5624 7.9598L39.6611 7.944ZM39.4371 7.24L39.5236 7.1899L39.4371 7.24ZM38.9411 6.76L38.8896 6.84581L38.8929 6.84762L38.9411 6.76ZM36.6051 7.208L36.687 7.26535L36.6051 7.208ZM36.1571 13V13.1H36.2571V13H36.1571ZM34.7171 13H34.6171V13.1H34.7171V13ZM34.6531 8.04L34.5536 8.05066L34.5541 8.05414L34.6531 8.04ZM34.4291 7.272L34.3387 7.31507L34.3415 7.32019L34.4291 7.272ZM33.9491 6.76L33.8956 6.8447L33.9009 6.84762L33.9491 6.76ZM32.3651 6.728L32.403 6.82058L32.405 6.81971L32.3651 6.728ZM31.3091 7.96L31.4036 7.9926L31.404 7.99162L31.3091 7.96ZM31.1491 13V13.1H31.2491V13H31.1491ZM29.7091 13H29.6091V13.1H29.7091V13ZM29.7091 5.516H31.0531V5.316H29.7091V5.516ZM30.9531 5.416V6.6H31.1531V5.416H30.9531ZM31.0531 6.7H31.0851V6.5H31.0531V6.7ZM31.1809 6.62873C31.2073 6.54069 31.2776 6.41944 31.4032 6.26247L31.247 6.13753C31.1166 6.30056 31.0269 6.44597 30.9893 6.57127L31.1809 6.62873ZM31.4007 6.26549C31.5329 6.1129 31.6969 5.96911 31.8936 5.83453L31.7806 5.66947C31.572 5.81222 31.3946 5.9671 31.2495 6.13451L31.4007 6.26549ZM31.8944 5.83392C32.0993 5.69053 32.3361 5.57185 32.6058 5.4785L32.5404 5.2895C32.2554 5.38815 32.0016 5.51481 31.7797 5.67008L31.8944 5.83392ZM32.6078 5.47777C32.8835 5.37566 33.1863 5.324 33.5171 5.324V5.124C33.1652 5.124 32.8386 5.17901 32.5384 5.29023L32.6078 5.47777ZM33.5171 5.324C34.0687 5.324 34.5242 5.43843 34.8889 5.66133L34.9932 5.49067C34.59 5.24423 34.0962 5.124 33.5171 5.124V5.324ZM34.8889 5.66133C35.2549 5.88498 35.558 6.22219 35.7965 6.67832L35.9737 6.58567C35.7215 6.10314 35.3953 5.73635 34.9932 5.49067L34.8889 5.66133ZM35.9737 6.67832C36.2101 6.22615 36.5424 5.88933 36.9715 5.66458L36.8787 5.48742C36.4118 5.732 36.0508 6.09918 35.7965 6.58567L35.9737 6.67832ZM36.9715 5.66458C37.4067 5.43663 37.8442 5.324 38.2851 5.324V5.124C37.8087 5.124 37.3395 5.24603 36.8787 5.48742L36.9715 5.66458ZM38.2851 5.324C38.8618 5.324 39.3247 5.41851 39.6794 5.60093L39.7708 5.42307C39.3789 5.22149 38.8817 5.124 38.2851 5.124V5.324ZM39.6794 5.60093C40.039 5.78588 40.3188 6.0309 40.5219 6.33547L40.6883 6.22453C40.4647 5.8891 40.1579 5.62212 39.7708 5.42307L39.6794 5.60093ZM40.5228 6.33677C40.7274 6.63341 40.8664 6.9773 40.9387 7.37012L41.1354 7.33388C41.0585 6.91603 40.9095 6.54525 40.6874 6.22323L40.5228 6.33677ZM40.9394 7.37313C41.0231 7.76048 41.0651 8.16404 41.0651 8.584H41.2651C41.2651 8.15063 41.2218 7.73286 41.1348 7.33087L40.9394 7.37313ZM41.0651 8.584V13H41.2651V8.584H41.0651ZM41.1651 12.9H39.7251V13.1H41.1651V12.9ZM39.8251 13V8.776H39.6251V13H39.8251ZM39.8251 8.776C39.8251 8.48306 39.8034 8.20042 39.7598 7.9282L39.5624 7.9598C39.6041 8.22091 39.6251 8.49294 39.6251 8.776H39.8251ZM39.7604 7.93209C39.727 7.65392 39.6487 7.4059 39.5236 7.1899L39.3506 7.2901C39.4602 7.47944 39.5312 7.70074 39.5618 7.95591L39.7604 7.93209ZM39.5236 7.1899C39.3968 6.97082 39.2179 6.79813 38.9893 6.67238L38.8929 6.84762C39.0909 6.95654 39.2427 7.10385 39.3506 7.2901L39.5236 7.1899ZM38.9925 6.67425C38.7585 6.53383 38.4561 6.468 38.0931 6.468V6.668C38.4341 6.668 38.697 6.73017 38.8896 6.84575L38.9925 6.67425ZM38.0931 6.468C37.379 6.468 36.8465 6.68881 36.5232 7.15065L36.687 7.26535C36.9611 6.87385 37.4205 6.668 38.0931 6.668V6.468ZM36.5232 7.15065C36.2097 7.59841 36.0571 8.16942 36.0571 8.856H36.2571C36.2571 8.19858 36.4031 7.67092 36.687 7.26535L36.5232 7.15065ZM36.0571 8.856V13H36.2571V8.856H36.0571ZM36.1571 12.9H34.7171V13.1H36.1571V12.9ZM34.8171 13V9.032H34.6171V13H34.8171ZM34.8171 9.032C34.8171 8.66551 34.7955 8.33003 34.7521 8.02586L34.5541 8.05414C34.596 8.3473 34.6171 8.67315 34.6171 9.032H34.8171ZM34.7525 8.02935C34.7194 7.7205 34.6417 7.45112 34.5167 7.22381L34.3415 7.32019C34.4511 7.51955 34.5228 7.76217 34.5537 8.05065L34.7525 8.02935ZM34.5194 7.22901C34.4039 6.98647 34.2294 6.80001 33.9973 6.67238L33.9009 6.84762C34.0955 6.95465 34.241 7.10953 34.3388 7.31499L34.5194 7.22901ZM34.0025 6.67545C33.778 6.53368 33.4797 6.468 33.1171 6.468V6.668C33.4585 6.668 33.7148 6.73032 33.8957 6.84455L34.0025 6.67545ZM33.1171 6.468C32.8468 6.468 32.5826 6.52441 32.3252 6.63629L32.405 6.81971C32.6383 6.71826 32.8754 6.668 33.1171 6.668V6.468ZM32.3272 6.63545C32.0775 6.73759 31.8573 6.8962 31.6666 7.10932L31.8156 7.24268C31.9876 7.05047 32.1833 6.91041 32.403 6.82055L32.3272 6.63545ZM31.6666 7.10932C31.4742 7.32429 31.3242 7.59845 31.2142 7.92838L31.404 7.99162C31.5073 7.68155 31.6453 7.43304 31.8156 7.24268L31.6666 7.10932ZM31.2146 7.9274C31.1034 8.24986 31.0491 8.62942 31.0491 9.064H31.2491C31.2491 8.64524 31.3015 8.28881 31.4036 7.9926L31.2146 7.9274ZM31.0491 9.064V13H31.2491V9.064H31.0491ZM31.1491 12.9H29.7091V13.1H31.1491V12.9ZM29.8091 13V5.416H29.6091V13H29.8091ZM49.2161 8.584V8.684H49.3195L49.316 8.58067L49.2161 8.584ZM49.0561 7.704L48.9608 7.7345L48.962 7.73787L49.0561 7.704ZM48.6561 7.016L48.5815 7.0827L48.5834 7.08466L48.6561 7.016ZM47.9681 6.552L47.9278 6.64363L47.9322 6.64533L47.9681 6.552ZM46.0481 6.584L46.0887 6.67539L46.0902 6.6747L46.0481 6.584ZM45.3121 7.096L45.3846 7.16487L45.3121 7.096ZM44.8321 7.816L44.7405 7.77572L44.7398 7.77754L44.8321 7.816ZM44.6721 8.584H44.5721V8.684H44.6721V8.584ZM44.6721 9.736V9.636H44.5721V9.736H44.6721ZM44.8801 10.648L44.7906 10.6928L44.7928 10.6969L44.8801 10.648ZM45.4561 11.336L45.3928 11.4134L45.4561 11.336ZM46.2721 11.784L46.3047 11.6895L46.2721 11.784ZM48.4001 11.64L48.4524 11.7253L48.4543 11.724L48.4001 11.64ZM49.3121 10.808L49.3728 10.7286L49.2957 10.6696L49.2345 10.7449L49.3121 10.808ZM50.4001 11.64L50.4792 11.7012L50.5407 11.6216L50.4608 11.5606L50.4001 11.64ZM45.4081 12.888L45.3692 12.9801L45.3699 12.9804L45.4081 12.888ZM44.1761 12.056L44.1022 12.1234L44.1043 12.1256L44.1761 12.056ZM43.4081 10.792L43.3143 10.8267L43.3145 10.8273L43.4081 10.792ZM43.4241 7.64L43.3317 7.60182L43.3312 7.60286L43.4241 7.64ZM44.2401 6.376L44.1683 6.30635L44.1683 6.30639L44.2401 6.376ZM45.4881 5.528L45.527 5.62012L45.4881 5.528ZM48.7521 5.576L48.7065 5.66503L48.7074 5.66544L48.7521 5.576ZM49.9041 6.504L49.8252 6.5654L49.826 6.56647L49.9041 6.504ZM50.5441 7.784L50.4474 7.80978L50.4482 7.81233L50.5441 7.784ZM50.7521 9.736V9.836H50.8521V9.736H50.7521ZM49.316 8.58067C49.3051 8.25158 49.2501 7.94779 49.1502 7.67013L48.962 7.73787C49.054 7.99355 49.1058 8.27642 49.1161 8.58733L49.316 8.58067ZM49.1513 7.67352C49.0617 7.39348 48.921 7.15087 48.7288 6.94734L48.5834 7.08466C48.7538 7.26513 48.8798 7.48119 48.9609 7.73448L49.1513 7.67352ZM48.7306 6.94932C48.5378 6.73376 48.2947 6.57049 48.004 6.45866L47.9322 6.64533C48.1961 6.74684 48.4118 6.8929 48.5816 7.08268L48.7306 6.94932ZM48.0084 6.46047C47.7263 6.33636 47.3973 6.276 47.0241 6.276V6.476C47.3762 6.476 47.6765 6.53297 47.9278 6.64353L48.0084 6.46047ZM47.0241 6.276C46.6586 6.276 46.3187 6.34809 46.006 6.4933L46.0902 6.6747C46.3748 6.54258 46.6856 6.476 47.0241 6.476V6.276ZM46.0075 6.49262C45.7083 6.62557 45.4519 6.80361 45.2396 7.02712L45.3846 7.16487C45.5776 6.96173 45.8118 6.79843 46.0887 6.67538L46.0075 6.49262ZM45.2396 7.02712C45.0291 7.24874 44.8626 7.49839 44.7406 7.77573L44.9236 7.85627C45.0363 7.60027 45.1898 7.36993 45.3846 7.16487L45.2396 7.02712ZM44.7398 7.77754C44.6285 8.0447 44.5721 8.31373 44.5721 8.584H44.7721C44.7721 8.34227 44.8224 8.0993 44.9244 7.85446L44.7398 7.77754ZM44.6721 8.684H49.2161V8.484H44.6721V8.684ZM44.5721 9.736C44.5721 10.0811 44.6446 10.4006 44.7907 10.6927L44.9695 10.6033C44.8383 10.3407 44.7721 10.0522 44.7721 9.736H44.5721ZM44.7928 10.6969C44.9482 10.9744 45.1483 11.2134 45.3928 11.4134L45.5194 11.2586C45.2945 11.0746 45.1106 10.855 44.9673 10.5991L44.7928 10.6969ZM45.3928 11.4134C45.6373 11.6135 45.9199 11.7683 46.2395 11.8785L46.3047 11.6895C46.0056 11.5863 45.7442 11.4425 45.5194 11.2586L45.3928 11.4134ZM46.2395 11.8785C46.5594 11.9889 46.8905 12.044 47.2321 12.044V11.844C46.9124 11.844 46.6034 11.7925 46.3047 11.6895L46.2395 11.8785ZM47.2321 12.044C47.6956 12.044 48.1036 11.939 48.4524 11.7253L48.3478 11.5547C48.0352 11.7464 47.6646 11.844 47.2321 11.844V12.044ZM48.4543 11.724C48.7948 11.5044 49.1065 11.2196 49.3897 10.8711L49.2345 10.7449C48.963 11.079 48.6667 11.349 48.3459 11.556L48.4543 11.724ZM49.2514 10.8874L50.3393 11.7194L50.4608 11.5606L49.3728 10.7286L49.2514 10.8874ZM50.321 11.5788C49.542 12.5863 48.4527 13.092 47.0401 13.092V13.292C48.5075 13.292 49.6582 12.763 50.4792 11.7012L50.321 11.5788ZM47.0401 13.092C46.4542 13.092 45.9234 12.9927 45.4463 12.7956L45.3699 12.9804C45.8741 13.1887 46.4313 13.292 47.0401 13.292V13.092ZM45.447 12.7959C44.9786 12.5981 44.5793 12.3282 44.2479 11.9864L44.1043 12.1256C44.4556 12.4878 44.8776 12.7726 45.3692 12.9801L45.447 12.7959ZM44.25 11.9886C43.9282 11.6357 43.6787 11.2254 43.5016 10.7567L43.3145 10.8273C43.5001 11.3186 43.7626 11.7509 44.1022 12.1234L44.25 11.9886ZM43.5019 10.7573C43.325 10.2786 43.2361 9.76246 43.2361 9.208H43.0361C43.0361 9.78421 43.1285 10.324 43.3143 10.8267L43.5019 10.7573ZM43.2361 9.208C43.2361 8.65419 43.3301 8.14427 43.5169 7.67714L43.3312 7.60286C43.1341 8.09573 43.0361 8.63114 43.0361 9.208H43.2361ZM43.5165 7.67818C43.7148 7.19823 43.9801 6.78781 44.3119 6.44561L44.1683 6.30639C43.8175 6.66819 43.5388 7.10044 43.3317 7.60182L43.5165 7.67818ZM44.3119 6.44565C44.6542 6.0929 45.059 5.81774 45.527 5.62012L45.4492 5.43587C44.9572 5.64359 44.53 5.93377 44.1683 6.30635L44.3119 6.44565ZM45.527 5.62012C45.9937 5.42308 46.503 5.324 47.0561 5.324V5.124C46.4785 5.124 45.9425 5.22758 45.4492 5.43587L45.527 5.62012ZM47.0561 5.324C47.7169 5.324 48.2656 5.43943 48.7065 5.66502L48.7976 5.48697C48.3212 5.24324 47.7393 5.124 47.0561 5.124V5.324ZM48.7074 5.66544C49.1644 5.89397 49.5364 6.19409 49.8252 6.56539L49.983 6.44261C49.6745 6.04591 49.2784 5.72737 48.7968 5.48656L48.7074 5.66544ZM49.826 6.56647C50.1157 6.92856 50.3229 7.34262 50.4475 7.80977L50.6407 7.75823C50.5093 7.26538 50.2898 6.82611 49.9822 6.44153L49.826 6.56647ZM50.4482 7.81233C50.5841 8.27244 50.6521 8.7429 50.6521 9.224H50.8521C50.8521 8.72377 50.7814 8.23422 50.64 7.75567L50.4482 7.81233ZM50.6521 9.224V9.736H50.8521V9.224H50.6521ZM50.7521 9.636H44.6721V9.836H50.7521V9.636ZM60.9807 4.12L60.9015 4.18097L60.9622 4.2599L61.0414 4.19952L60.9807 4.12ZM59.7647 3.16L59.7232 3.25097L59.7647 3.16ZM56.5007 3.192L56.5424 3.28291L56.5432 3.28252L56.5007 3.192ZM55.1727 4.168L55.0983 4.1012L55.0973 4.10229L55.1727 4.168ZM54.3247 5.64L54.4186 5.67432L54.4189 5.67375L54.3247 5.64ZM54.3087 9.128L54.4028 9.09413L54.3087 9.128ZM55.1407 10.536L55.2152 10.4693L55.1407 10.536ZM59.9567 11.448L60.0045 11.5359L59.9567 11.448ZM61.2047 10.328L61.2649 10.2481L61.1828 10.1863L61.1232 10.27L61.2047 10.328ZM62.5007 11.304L62.5816 11.3628L62.6394 11.2833L62.5609 11.2241L62.5007 11.304ZM62.0527 11.816L62.1235 11.8867L62.1251 11.885L62.0527 11.816ZM61.2047 12.472L61.2566 12.5575L61.2584 12.5564L61.2047 12.472ZM59.9247 13.032L59.8943 12.9367L59.8919 12.9376L59.9247 13.032ZM55.7807 12.776L55.7376 12.8662L55.7381 12.8665L55.7807 12.776ZM53.9407 11.432L53.8665 11.4991L53.8672 11.4998L53.9407 11.432ZM52.7887 9.56L52.6952 9.59542L52.6954 9.5959L52.7887 9.56ZM52.8207 5.016L52.9138 5.05244L52.914 5.05199L52.8207 5.016ZM54.0207 3.096L53.9486 3.02672L53.9486 3.02675L54.0207 3.096ZM55.8927 1.832L55.8546 1.73953L55.8927 1.832ZM60.4847 1.816L60.4473 1.90875L60.4478 1.90894L60.4847 1.816ZM62.2607 3.144L62.3214 3.22352L62.4011 3.16268L62.34 3.0831L62.2607 3.144ZM61.06 4.05903C60.7298 3.62973 60.3113 3.29961 59.8062 3.06903L59.7232 3.25097C60.1994 3.46839 60.5917 3.77826 60.9015 4.18097L61.06 4.05903ZM59.8062 3.06903C59.303 2.83927 58.7822 2.724 58.2447 2.724V2.924C58.7526 2.924 59.2451 3.03272 59.7232 3.25097L59.8062 3.06903ZM58.2447 2.724C57.5916 2.724 56.9956 2.84925 56.4582 3.10148L56.5432 3.28252C57.0512 3.04408 57.6178 2.924 58.2447 2.924V2.724ZM56.4591 3.10109C55.9347 3.34142 55.4809 3.67493 55.0983 4.10121L55.2471 4.23479C55.6113 3.82907 56.0427 3.51191 56.5424 3.28291L56.4591 3.10109ZM55.0973 4.10229C54.7258 4.52848 54.4371 5.03023 54.2306 5.60625L54.4189 5.67375C54.6177 5.11911 54.8943 4.63952 55.2481 4.23371L55.0973 4.10229ZM54.2308 5.60568C54.0238 6.17223 53.9207 6.78128 53.9207 7.432H54.1207C54.1207 6.80272 54.2203 6.2171 54.4186 5.67432L54.2308 5.60568ZM53.9207 7.432C53.9207 8.04025 54.0185 8.6171 54.2146 9.16187L54.4028 9.09413C54.2149 8.57223 54.1207 8.01841 54.1207 7.432H53.9207ZM54.2146 9.16187C54.4108 9.70678 54.6946 10.1874 55.0662 10.6027L55.2152 10.4693C54.8615 10.074 54.5906 9.61589 54.4028 9.09413L54.2146 9.16187ZM55.0662 10.6027C55.4387 11.019 55.893 11.3471 56.4278 11.5872L56.5097 11.4048C55.9991 11.1755 55.5681 10.8637 55.2152 10.4693L55.0662 10.6027ZM56.4278 11.5872C56.9651 11.8285 57.5714 11.948 58.2447 11.948V11.748C57.5953 11.748 57.0176 11.6328 56.5097 11.4048L56.4278 11.5872ZM58.2447 11.948C58.9093 11.948 59.4969 11.8117 60.0045 11.5359L59.909 11.3601C59.4352 11.6176 58.8815 11.748 58.2447 11.748V11.948ZM60.0045 11.5359C60.5092 11.2615 60.9366 10.8777 61.2862 10.386L61.1232 10.27C60.7902 10.7383 60.3855 11.1011 59.909 11.3601L60.0045 11.5359ZM61.1446 10.4079L62.4406 11.3839L62.5609 11.2241L61.2649 10.2481L61.1446 10.4079ZM62.4198 11.2452C62.3386 11.3568 62.1932 11.5235 61.9803 11.747L62.1251 11.885C62.3389 11.6605 62.4921 11.4858 62.5816 11.3628L62.4198 11.2452ZM61.982 11.7453C61.7754 11.9519 61.499 12.1662 61.151 12.3876L61.2584 12.5564C61.6144 12.3298 61.9034 12.1067 62.1234 11.8867L61.982 11.7453ZM61.1529 12.3865C60.8092 12.5948 60.3901 12.7785 59.8943 12.9367L59.9551 13.1273C60.462 12.9655 60.8963 12.7759 61.2565 12.5575L61.1529 12.3865ZM59.8919 12.9376C59.414 13.1037 58.8549 13.188 58.2127 13.188V13.388C58.8719 13.388 59.4541 13.3016 59.9576 13.1264L59.8919 12.9376ZM58.2127 13.188C57.3297 13.188 56.5338 13.0199 55.8233 12.6855L55.7381 12.8665C56.4783 13.2148 57.3037 13.388 58.2127 13.388V13.188ZM55.8238 12.6858C55.12 12.3496 54.5172 11.9091 54.0142 11.3642L53.8672 11.4998C54.3883 12.0643 55.0121 12.5197 55.7376 12.8662L55.8238 12.6858ZM54.0149 11.3649C53.5218 10.8193 53.1443 10.2059 52.8821 9.5241L52.6954 9.5959C52.9665 10.3008 53.357 10.9353 53.8665 11.4991L54.0149 11.3649ZM52.8822 9.52458C52.6196 8.83128 52.4887 8.13393 52.4887 7.432H52.2887C52.2887 8.15941 52.4245 8.88072 52.6952 9.59542L52.8822 9.52458ZM52.4887 7.432C52.4887 6.56847 52.6308 5.77565 52.9138 5.05244L52.7276 4.97956C52.4346 5.72835 52.2887 6.54619 52.2887 7.432H52.4887ZM52.914 5.05199C53.1976 4.31667 53.5908 3.68825 54.0929 3.16525L53.9486 3.02675C53.4267 3.57042 53.0198 4.22199 52.7274 4.98001L52.914 5.05199ZM54.0928 3.16528C54.6055 2.63169 55.2178 2.21807 55.9308 1.92447L55.8546 1.73953C55.117 2.04327 54.4813 2.47231 53.9486 3.02672L54.0928 3.16528ZM55.9308 1.92447C56.6427 1.63132 57.4296 1.484 58.2927 1.484V1.284C57.4065 1.284 56.5934 1.43535 55.8546 1.73953L55.9308 1.92447ZM58.2927 1.484C59.0262 1.484 59.7442 1.62538 60.4473 1.90875L60.5221 1.72325C59.7959 1.43062 59.0526 1.284 58.2927 1.284V1.484ZM60.4478 1.90894C61.157 2.19054 61.7341 2.62241 62.1814 3.2049L62.34 3.0831C61.87 2.47092 61.2631 2.01746 60.5216 1.72306L60.4478 1.90894ZM62.2001 3.06448L60.9201 4.04048L61.0414 4.19952L62.3214 3.22352L62.2001 3.06448ZM64.2403 0.903999V0.803999H64.1403V0.903999H64.2403ZM65.6803 0.903999H65.7803V0.803999H65.6803V0.903999ZM65.6803 6.584H65.5803V6.684H65.6803V6.584ZM65.7123 6.584V6.684H65.7772L65.8036 6.62484L65.7123 6.584ZM66.6563 5.608L66.7044 5.69572L66.706 5.69482L66.6563 5.608ZM69.2483 5.4L69.2149 5.49431L69.2185 5.49545L69.2483 5.4ZM70.1283 5.912L70.0592 5.98428L70.0608 5.98571L70.1283 5.912ZM70.7363 6.824L70.6435 6.86114L70.6439 6.86207L70.7363 6.824ZM70.9603 13V13.1H71.0603V13H70.9603ZM69.5203 13H69.4203V13.1H69.5203V13ZM69.3763 7.624L69.2827 7.65912L69.2832 7.66044L69.3763 7.624ZM68.9923 7.016L68.9216 7.08675L68.9241 7.08911L68.9923 7.016ZM68.4323 6.68L68.3977 6.77401L68.4036 6.77578L68.4323 6.68ZM66.9603 6.712L66.9252 6.61837L66.9603 6.712ZM66.2883 7.176L66.361 7.2448L66.3627 7.2429L66.2883 7.176ZM65.8403 7.96L65.9352 7.99162L65.8403 7.96ZM65.6803 13V13.1H65.7803V13H65.6803ZM64.2403 13H64.1403V13.1H64.2403V13ZM64.2403 1.004H65.6803V0.803999H64.2403V1.004ZM65.5803 0.903999V6.584H65.7803V0.903999H65.5803ZM65.6803 6.684H65.7123V6.484H65.6803V6.684ZM65.8036 6.62484C65.9747 6.24234 66.2725 5.9322 66.7044 5.69571L66.6083 5.52029C66.1442 5.77446 65.8126 6.11499 65.6211 6.54316L65.8036 6.62484ZM66.706 5.69482C67.1369 5.44859 67.6367 5.324 68.2083 5.324V5.124C67.6067 5.124 67.0718 5.25541 66.6067 5.52118L66.706 5.69482ZM68.2083 5.324C68.56 5.324 68.8953 5.38085 69.2149 5.49424L69.2818 5.30576C68.94 5.18449 68.582 5.124 68.2083 5.124V5.324ZM69.2185 5.49545C69.5459 5.59777 69.8256 5.76082 70.0592 5.98426L70.1975 5.83974C69.9404 5.59385 69.6334 5.41556 69.2782 5.30455L69.2185 5.49545ZM70.0608 5.98571C70.3041 6.20876 70.4989 6.49955 70.6435 6.86114L70.8292 6.78686C70.6752 6.40179 70.4646 6.08458 70.1959 5.83828L70.0608 5.98571ZM70.6439 6.86207C70.7871 7.20981 70.8603 7.62824 70.8603 8.12H71.0603C71.0603 7.60909 70.9843 7.16352 70.8288 6.78592L70.6439 6.86207ZM70.8603 8.12V13H71.0603V8.12H70.8603ZM70.9603 12.9H69.5203V13.1H70.9603V12.9ZM69.6203 13V8.52H69.4203V13H69.6203ZM69.6203 8.52C69.6203 8.15948 69.5713 7.84769 69.4695 7.58756L69.2832 7.66044C69.3734 7.89098 69.4203 8.17652 69.4203 8.52H69.6203ZM69.47 7.58889C69.3699 7.32195 69.2343 7.10506 69.0606 6.94289L68.9241 7.08911C69.0704 7.22561 69.1908 7.41405 69.2827 7.65911L69.47 7.58889ZM69.0631 6.94529C68.8915 6.77378 68.6905 6.65305 68.4611 6.58422L68.4036 6.77578C68.6008 6.83495 68.7731 6.93822 68.9216 7.08671L69.0631 6.94529ZM68.4669 6.58617C68.2528 6.50727 68.0277 6.468 67.7923 6.468V6.668C68.005 6.668 68.2066 6.7034 68.3978 6.77383L68.4669 6.58617ZM67.7923 6.468C67.4828 6.468 67.1935 6.51778 66.9252 6.61837L66.9955 6.80563C67.2392 6.71422 67.5046 6.668 67.7923 6.668V6.468ZM66.9252 6.61837C66.6535 6.72028 66.4162 6.88445 66.214 7.1091L66.3627 7.2429C66.5445 7.04088 66.7552 6.89571 66.9955 6.80563L66.9252 6.61837ZM66.2157 7.10722C66.0118 7.32248 65.8558 7.59735 65.7455 7.92838L65.9352 7.99162C66.0382 7.68265 66.1809 7.43486 66.3609 7.24477L66.2157 7.10722ZM65.7455 7.92838C65.6346 8.26108 65.5803 8.65093 65.5803 9.096H65.7803C65.7803 8.6664 65.8328 8.29891 65.9352 7.99162L65.7455 7.92838ZM65.5803 9.096V13H65.7803V9.096H65.5803ZM65.6803 12.9H64.2403V13.1H65.6803V12.9ZM64.3403 13V0.903999H64.1403V13H64.3403ZM76.421 9.416L76.43 9.51562L76.4327 9.51532L76.421 9.416ZM75.445 9.624L75.4113 9.52982L75.4102 9.53022L75.445 9.624ZM74.725 10.072L74.6542 10.0013L74.6523 10.0033L74.725 10.072ZM74.885 11.752L74.8295 11.8352L74.8309 11.8361L74.885 11.752ZM77.093 11.848L77.1349 11.9388L77.1377 11.9374L77.093 11.848ZM77.765 11.32L77.6869 11.2575L77.765 11.32ZM78.133 10.616L78.229 10.644L78.2293 10.643L78.133 10.616ZM78.245 9.352H78.345V9.252H78.245V9.352ZM73.413 6.344L73.3452 6.27045L73.27 6.33976L73.341 6.41341L73.413 6.344ZM74.821 5.512L74.8532 5.60669L74.8548 5.60609L74.821 5.512ZM77.845 5.432L77.8118 5.52635L77.8126 5.52662L77.845 5.432ZM78.837 5.992L78.9045 5.91828L78.837 5.992ZM79.397 6.808L79.3034 6.8435L79.3051 6.84739L79.397 6.808ZM79.605 12.36L79.5051 12.3648L79.605 12.36ZM79.653 13V13.1H79.764L79.7524 12.9895L79.653 13ZM78.373 13L78.2733 13.0083L78.281 13.1H78.373V13ZM78.325 11.848H78.425V11.748H78.325V11.848ZM78.293 11.848V11.748H78.2388L78.2092 11.7934L78.293 11.848ZM74.629 13.048L74.6577 12.9522L74.629 13.048ZM73.781 12.616L73.7176 12.6934L73.7193 12.6948L73.781 12.616ZM73.221 11.912L73.1309 11.9554L73.1315 11.9567L73.221 11.912ZM73.333 9.688L73.2502 9.6319L73.2489 9.63379L73.333 9.688ZM74.229 8.888L74.2767 8.97589L74.2775 8.97542L74.229 8.888ZM75.557 8.44L75.5737 8.5386L75.5754 8.53829L75.557 8.44ZM78.245 8.296V8.396H78.345V8.296H78.245ZM77.797 6.888L77.7238 6.95627L77.7263 6.95871L77.797 6.888ZM77.237 6.52L77.1975 6.61199L77.2014 6.61345L77.237 6.52ZM75.701 6.456L75.6767 6.35898L75.6755 6.35929L75.701 6.456ZM75.141 6.664L75.1811 6.75574L75.1857 6.75344L75.141 6.664ZM74.677 6.936L74.7379 7.01526L74.677 6.936ZM74.277 7.24L74.205 7.30941L74.2663 7.373L74.337 7.32L74.277 7.24ZM77.477 9.252C77.1315 9.252 76.7756 9.27359 76.4093 9.31668L76.4327 9.51532C76.7917 9.47307 77.1398 9.452 77.477 9.452V9.252ZM76.4119 9.31641C76.0525 9.34909 75.7188 9.42002 75.4113 9.52983L75.4786 9.71817C75.7685 9.61464 76.0855 9.54691 76.43 9.51559L76.4119 9.31641ZM75.4102 9.53022C75.1105 9.64124 74.8577 9.79784 74.6543 10.0013L74.7957 10.1427C74.9762 9.96216 75.2034 9.82009 75.4797 9.71777L75.4102 9.53022ZM74.6523 10.0033C74.4511 10.2164 74.353 10.4874 74.353 10.808H74.553C74.553 10.5313 74.6362 10.3116 74.7977 10.1407L74.6523 10.0033ZM74.353 10.808C74.353 11.2688 74.5063 11.6197 74.8295 11.8352L74.9404 11.6688C74.6876 11.5003 74.553 11.2218 74.553 10.808H74.353ZM74.8309 11.8361C75.151 12.0419 75.572 12.14 76.085 12.14V11.94C75.5953 11.94 75.2162 11.8461 74.939 11.6679L74.8309 11.8361ZM76.085 12.14C76.49 12.14 76.8412 12.0744 77.1349 11.9388L77.0511 11.7572C76.7901 11.8776 76.4692 11.94 76.085 11.94V12.14ZM77.1377 11.9374C77.4262 11.7932 77.6622 11.6085 77.8431 11.3825L77.6869 11.2575C77.5264 11.4581 77.3144 11.6255 77.0482 11.7586L77.1377 11.9374ZM77.8431 11.3825C78.0217 11.1592 78.1506 10.9129 78.229 10.644L78.037 10.588C77.9661 10.8311 77.8496 11.0541 77.6869 11.2575L77.8431 11.3825ZM78.2293 10.643C78.3062 10.3682 78.345 10.0978 78.345 9.832H78.145C78.145 10.0782 78.1091 10.3304 78.0367 10.589L78.2293 10.643ZM78.345 9.832V9.352H78.145V9.832H78.345ZM78.245 9.252H77.477V9.452H78.245V9.252ZM73.4807 6.41755C73.8756 6.05388 74.3327 5.78363 74.8532 5.60668L74.7888 5.41732C74.2426 5.60304 73.761 5.88746 73.3452 6.27045L73.4807 6.41755ZM74.8548 5.60609C75.378 5.41775 75.8999 5.324 76.421 5.324V5.124C75.8754 5.124 75.3306 5.22225 74.7871 5.41791L74.8548 5.60609ZM76.421 5.324C76.9678 5.324 77.4306 5.39242 77.8118 5.52635L77.8781 5.33765C77.47 5.19425 76.9835 5.124 76.421 5.124V5.324ZM77.8126 5.52662C78.2078 5.66183 78.5256 5.84228 78.7694 6.06571L78.9045 5.91828C78.6363 5.67239 78.2928 5.4795 77.8773 5.33738L77.8126 5.52662ZM78.7694 6.06571C79.0145 6.29037 79.192 6.54946 79.3035 6.84346L79.4905 6.77253C79.3673 6.44787 79.1715 6.16296 78.9045 5.91828L78.7694 6.06571ZM79.3051 6.84739C79.4276 7.13339 79.489 7.43463 79.489 7.752H79.689C79.689 7.40804 79.6223 7.07995 79.4889 6.76861L79.3051 6.84739ZM79.489 7.752V11.624H79.689V7.752H79.489ZM79.489 11.624C79.489 11.892 79.4943 12.1389 79.5051 12.3648L79.7049 12.3552C79.6943 12.1331 79.689 11.8894 79.689 11.624H79.489ZM79.5051 12.3648C79.5158 12.5905 79.532 12.8057 79.5535 13.0105L79.7524 12.9895C79.7313 12.7889 79.7154 12.5775 79.7049 12.3552L79.5051 12.3648ZM79.653 12.9H78.373V13.1H79.653V12.9ZM78.4726 12.9917C78.4409 12.6104 78.425 12.2292 78.425 11.848H78.225C78.225 12.2348 78.2411 12.6216 78.2733 13.0083L78.4726 12.9917ZM78.325 11.748H78.293V11.948H78.325V11.748ZM78.2092 11.7934C77.8972 12.2717 77.5319 12.604 77.1149 12.7973L77.199 12.9787C77.6567 12.7666 78.0487 12.4056 78.3767 11.9026L78.2092 11.7934ZM77.1149 12.7973C76.6931 12.9928 76.2012 13.092 75.637 13.092V13.292C76.2247 13.292 76.7462 13.1886 77.199 12.9787L77.1149 12.7973ZM75.637 13.092C75.2942 13.092 74.9679 13.0453 74.6577 12.9522L74.6002 13.1438C74.93 13.2427 75.2758 13.292 75.637 13.292V13.092ZM74.6577 12.9522C74.3488 12.8595 74.0774 12.721 73.8426 12.5372L73.7193 12.6948C73.9752 12.895 74.2692 13.0445 74.6002 13.1438L74.6577 12.9522ZM73.8443 12.5386C73.6208 12.3557 73.4429 12.1323 73.3104 11.8673L73.1315 11.9567C73.2764 12.2464 73.4718 12.4923 73.7176 12.6934L73.8443 12.5386ZM73.3111 11.8686C73.1799 11.5962 73.113 11.2808 73.113 10.92H72.913C72.913 11.3058 72.9847 11.6518 73.1309 11.9554L73.3111 11.8686ZM73.113 10.92C73.113 10.4438 73.2164 10.0531 73.417 9.74221L73.2489 9.63379C73.0229 9.98418 72.913 10.4148 72.913 10.92H73.113ZM73.4158 9.74408C73.6302 9.42751 73.9165 9.17141 74.2767 8.97589L74.1813 8.80011C73.7948 9.00992 73.4837 9.28715 73.2502 9.63192L73.4158 9.74408ZM74.2775 8.97542C74.6502 8.76837 75.0818 8.62231 75.5737 8.53858L75.5402 8.34142C75.0294 8.42836 74.5757 8.58097 74.1804 8.80058L74.2775 8.97542ZM75.5754 8.53829C76.0807 8.44354 76.6185 8.396 77.189 8.396V8.196C76.6074 8.196 76.0572 8.24446 75.5385 8.34171L75.5754 8.53829ZM77.189 8.396H78.245V8.196H77.189V8.396ZM78.345 8.296V7.976H78.145V8.296H78.345ZM78.345 7.976C78.345 7.77072 78.305 7.56646 78.2262 7.36376L78.0398 7.43624C78.1103 7.61754 78.145 7.79728 78.145 7.976H78.345ZM78.2262 7.36376C78.1463 7.1585 78.0266 6.97617 77.8677 6.81729L77.7263 6.95871C77.866 7.09849 77.9703 7.2575 78.0398 7.43624L78.2262 7.36376ZM77.8701 6.81977C77.7094 6.64758 77.5095 6.51679 77.2726 6.42655L77.2014 6.61345C77.4125 6.69387 77.5859 6.80842 77.7239 6.95623L77.8701 6.81977ZM77.2764 6.42808C77.037 6.32552 76.7563 6.276 76.437 6.276V6.476C76.7363 6.476 76.9889 6.52248 77.1976 6.61191L77.2764 6.42808ZM76.437 6.276C76.1535 6.276 75.8997 6.30323 75.6767 6.35899L75.7252 6.55301C75.9289 6.5021 76.1658 6.476 76.437 6.476V6.276ZM75.6755 6.35929C75.4668 6.41421 75.2736 6.48586 75.0962 6.57456L75.1857 6.75344C75.3496 6.67147 75.5298 6.60446 75.7264 6.55271L75.6755 6.35929ZM75.1009 6.57238C74.9233 6.65009 74.7615 6.74481 74.616 6.85674L74.7379 7.01526C74.8698 6.91386 75.0173 6.82724 75.181 6.75562L75.1009 6.57238ZM74.616 6.85674C74.4776 6.96318 74.3446 7.06426 74.217 7.16L74.337 7.32C74.4653 7.22373 74.599 7.12215 74.7379 7.01526L74.616 6.85674ZM74.349 7.17059L73.485 6.27459L73.341 6.41341L74.205 7.30941L74.349 7.17059ZM85.9918 6.664V6.764H86.0918V6.664H85.9918ZM83.9278 6.664V6.564H83.8278V6.664H83.9278ZM83.9438 10.744L83.844 10.749L83.844 10.7493L83.9438 10.744ZM84.0558 11.304L83.9619 11.3392L83.9652 11.3463L84.0558 11.304ZM84.3758 11.704L84.3147 11.7835L84.3218 11.7881L84.3758 11.704ZM85.5438 11.8L85.5265 11.7015L85.5438 11.8ZM86.0398 11.624H86.1398V11.4517L85.9902 11.5372L86.0398 11.624ZM86.0398 12.936L86.0889 13.0232L86.1398 12.9945V12.936H86.0398ZM85.3678 13.128L85.3564 13.0286L85.352 13.0293L85.3678 13.128ZM83.4478 12.968L83.4006 13.0562L83.4044 13.0581L83.4478 12.968ZM82.7758 12.36L82.6887 12.4092L82.6904 12.412L82.7758 12.36ZM82.5198 11.544L82.42 11.5509L82.4204 11.5547L82.5198 11.544ZM82.4878 6.664H82.5878V6.564H82.4878V6.664ZM80.8238 6.664H80.7238V6.764H80.8238V6.664ZM80.8238 5.416V5.316H80.7238V5.416H80.8238ZM82.4878 5.416V5.516H82.5878V5.416H82.4878ZM82.4878 3.288V3.188H82.3878V3.288H82.4878ZM83.9278 3.288H84.0278V3.188H83.9278V3.288ZM83.9278 5.416H83.8278V5.516H83.9278V5.416ZM85.9918 5.416H86.0918V5.316H85.9918V5.416ZM85.9918 6.564H83.9278V6.764H85.9918V6.564ZM83.8278 6.664V10.104H84.0278V6.664H83.8278ZM83.8278 10.104C83.8278 10.319 83.8332 10.534 83.844 10.749L84.0437 10.739C84.0331 10.5273 84.0278 10.3157 84.0278 10.104H83.8278ZM83.844 10.7493C83.8551 10.961 83.8942 11.1579 83.9622 11.3391L84.1495 11.2689C84.0894 11.1088 84.0539 10.9323 84.0437 10.7387L83.844 10.7493ZM83.9652 11.3463C84.0466 11.5207 84.1634 11.6667 84.3149 11.7833L84.4368 11.6247C84.311 11.5279 84.2144 11.4073 84.1465 11.2617L83.9652 11.3463ZM84.3218 11.7881C84.4939 11.8988 84.7292 11.948 85.0158 11.948V11.748C84.7478 11.748 84.5564 11.7012 84.4299 11.6199L84.3218 11.7881ZM85.0158 11.948C85.1928 11.948 85.3746 11.9314 85.5612 11.8985L85.5265 11.7015C85.3504 11.7326 85.1802 11.748 85.0158 11.748V11.948ZM85.5612 11.8985C85.7531 11.8646 85.9294 11.8023 86.0895 11.7108L85.9902 11.5372C85.8516 11.6164 85.6973 11.6714 85.5265 11.7015L85.5612 11.8985ZM85.9398 11.624V12.936H86.1398V11.624H85.9398ZM85.9908 12.8488C85.8356 12.9362 85.6257 12.9976 85.3564 13.0287L85.3793 13.2273C85.6647 13.1944 85.9028 13.1278 86.0889 13.0232L85.9908 12.8488ZM85.352 13.0293C85.0872 13.0716 84.8853 13.092 84.7438 13.092V13.292C84.9011 13.292 85.1152 13.2697 85.3836 13.2267L85.352 13.0293ZM84.7438 13.092C84.196 13.092 83.7813 13.0179 83.4913 12.8779L83.4044 13.0581C83.7331 13.2168 84.1823 13.292 84.7438 13.292V13.092ZM83.4951 12.8799C83.2093 12.7268 82.9998 12.5356 82.8613 12.308L82.6904 12.412C82.8506 12.6751 83.0891 12.8892 83.4006 13.0561L83.4951 12.8799ZM82.8629 12.3108C82.7314 12.0781 82.6499 11.8194 82.6193 11.5333L82.4204 11.5547C82.4538 11.866 82.543 12.1512 82.6888 12.4092L82.8629 12.3108ZM82.6196 11.5371C82.5984 11.2301 82.5878 10.923 82.5878 10.616H82.3878C82.3878 10.9276 82.3986 11.2393 82.4201 11.5509L82.6196 11.5371ZM82.5878 10.616V6.664H82.3878V10.616H82.5878ZM82.4878 6.564H80.8238V6.764H82.4878V6.564ZM80.9238 6.664V5.416H80.7238V6.664H80.9238ZM80.8238 5.516H82.4878V5.316H80.8238V5.516ZM82.5878 5.416V3.288H82.3878V5.416H82.5878ZM82.4878 3.388H83.9278V3.188H82.4878V3.388ZM83.8278 3.288V5.416H84.0278V3.288H83.8278ZM83.9278 5.516H85.9918V5.316H83.9278V5.516ZM85.8918 5.416V6.664H86.0918V5.416H85.8918Z" fill="white"/>
</svg>
