<svg width="250" height="193" viewBox="0 0 250 193" fill="none" xmlns="http://www.w3.org/2000/svg">
<path opacity="0.1" d="M156.826 30.3911C146.418 36.9735 132.919 36.5451 121.09 33.1235C109.262 29.7018 98.3942 23.5994 86.8738 19.2645C77.1966 15.6283 67.0928 13.249 56.8099 12.1848C42.1213 10.666 25.7195 12.5147 15.484 23.1563C4.08667 35.0091 4.96055 56.3883 17.2884 67.2638C23.5582 72.7976 31.7702 75.5128 38.9311 79.8329C46.092 84.1531 52.7162 91.3287 52.1082 99.6687C51.5445 107.388 44.9818 113.314 38.1901 117.031C32.9395 119.903 26.4728 123.039 25.8401 128.989C25.2296 134.747 30.6649 139.259 35.8565 141.824C52.7925 150.194 73.6573 150.112 90.5269 141.612C96.5456 138.58 102.079 134.548 108.391 132.184C124.965 125.979 143.225 132.226 160.774 134.511C175.676 136.44 190.81 135.444 205.33 131.579C214.02 129.26 222.744 125.715 228.848 119.111C233.25 114.347 235.987 108.321 238.569 102.372C241.315 96.0239 243.954 89.6319 246.486 83.1955C248.007 79.3307 249.504 75.3921 249.895 71.2566C250.607 63.7659 247.611 56.3613 243.527 50.0373C233.828 35.0238 217.505 24.4684 199.831 21.7877C182.156 19.1069 163.45 24.3478 149.739 35.8017" fill="#7ECB20"/>
<path opacity="0.1" d="M33.4142 192.172C51.8683 192.172 66.8284 189.247 66.8284 185.639C66.8284 182.03 51.8683 179.105 33.4142 179.105C14.96 179.105 0 182.03 0 185.639C0 189.247 14.96 192.172 33.4142 192.172Z" fill="#7ECB20"/>
<path opacity="0.1" d="M132.679 178.527C171.363 178.527 202.722 175.602 202.722 171.994C202.722 168.386 171.363 165.461 132.679 165.461C93.9952 165.461 62.6357 168.386 62.6357 171.994C62.6357 175.602 93.9952 178.527 132.679 178.527Z" fill="#7ECB20"/>
<g opacity="0.2">
<path opacity="0.2" d="M171.284 17.5488H92.376V20.6382H171.284V17.5488Z" fill="#7ECB20"/>
</g>
<path d="M229.318 155.486C229.318 155.486 231.076 157.783 228.508 161.249C225.941 164.715 223.831 167.649 224.68 169.806C224.68 169.806 228.552 163.366 231.706 163.277C234.859 163.189 232.786 159.358 229.318 155.486Z" fill="#3ACC6C"/>
<path opacity="0.1" d="M229.318 155.486C229.472 155.708 229.593 155.95 229.678 156.205C232.755 159.819 234.392 163.191 231.435 163.277C228.683 163.356 225.377 168.279 224.587 169.523C224.613 169.619 224.644 169.713 224.68 169.806C224.68 169.806 228.553 163.366 231.706 163.277C234.859 163.189 232.787 159.358 229.318 155.486Z" fill="black"/>
<path d="M232.585 158.413C232.585 159.22 232.494 159.875 232.383 159.875C232.272 159.875 232.179 159.22 232.179 158.413C232.179 157.605 232.292 157.984 232.405 157.984C232.518 157.984 232.585 157.603 232.585 158.413Z" fill="#FFD037"/>
<path d="M233.705 159.377C232.996 159.764 232.375 159.998 232.324 159.899C232.272 159.801 232.801 159.407 233.51 159.02C234.219 158.634 233.941 158.917 234.003 159.02C234.064 159.124 234.414 158.998 233.705 159.377Z" fill="#FFD037"/>
<path d="M220.042 155.486C220.042 155.486 218.285 157.783 220.852 161.249C223.42 164.715 225.529 167.649 224.68 169.806C224.68 169.806 220.808 163.366 217.655 163.277C214.501 163.189 216.569 159.358 220.042 155.486Z" fill="#3ACC6C"/>
<path opacity="0.1" d="M220.042 155.486C219.889 155.708 219.768 155.95 219.683 156.205C216.606 159.819 214.969 163.191 217.925 163.277C220.68 163.356 223.984 168.279 224.774 169.523C224.749 169.619 224.718 169.713 224.68 169.806C224.68 169.806 220.808 163.366 217.655 163.277C214.501 163.189 216.569 159.358 220.042 155.486Z" fill="black"/>
<path d="M216.776 158.413C216.776 159.22 216.867 159.875 216.981 159.875C217.094 159.875 217.183 159.22 217.183 158.413C217.183 157.605 217.069 157.984 216.959 157.984C216.848 157.984 216.776 157.603 216.776 158.413Z" fill="#FFD037"/>
<path d="M215.656 159.377C216.367 159.764 216.985 159.998 217.039 159.899C217.094 159.801 216.559 159.407 215.85 159.02C215.141 158.634 215.42 158.917 215.358 159.02C215.297 159.124 214.947 158.998 215.656 159.377Z" fill="#FFD037"/>
<path opacity="0.1" d="M224.681 187.375C234.823 187.375 243.045 186.113 243.045 184.557C243.045 183 234.823 181.738 224.681 181.738C214.539 181.738 206.317 183 206.317 184.557C206.317 186.113 214.539 187.375 224.681 187.375Z" fill="#7ECB20"/>
<path d="M234.133 166.711L234.044 167.428L233.921 168.442L233.869 168.863L233.746 169.877L233.692 170.3L233.569 171.312L232.163 182.833C232.038 183.862 230.359 184.662 228.331 184.662H221.029C219.001 184.662 217.337 183.862 217.199 182.833L215.791 171.307L215.668 170.296L215.616 169.872L215.491 168.858L215.439 168.437L215.316 167.423L215.227 166.706C215.158 166.138 216.077 165.646 217.214 165.646H232.149C233.293 165.646 234.204 166.138 234.133 166.711Z" fill="#65617D"/>
<path d="M234.044 167.428L233.921 168.439H215.439L215.316 167.428H234.044Z" fill="#9D9CB5"/>
<path d="M233.87 168.863L233.747 169.877H215.617L215.491 168.863H233.87Z" fill="#9D9CB5"/>
<path d="M233.692 170.298L233.569 171.312H215.791L215.668 170.298H233.692Z" fill="#9D9CB5"/>
<path opacity="0.1" d="M99.4229 100.845C99.4229 100.845 100.105 102.208 100.179 102.588Z" fill="black"/>
<path d="M61.2406 96.9659L61.2529 96.9487L61.2307 96.9315L61.0978 96.8429L61.1249 96.8625C61.0296 96.8074 60.9171 96.79 60.8096 96.8137C60.702 96.8374 60.6073 96.9005 60.544 96.9906L60.4898 97.0669L57.4989 101.37L56.9771 102.135C55.3991 101.66 52.8366 103.659 51.5393 104.806C51.4581 104.878 51.3818 104.944 51.3128 105.008C51.2095 104.777 51.1479 104.629 51.1479 104.629C51.0839 105.333 48.5977 106.389 48.0167 106.773C47.7528 106.933 47.4569 107.032 47.1502 107.064C47.2339 104.388 45.1637 101.572 45.1637 101.572L40.105 95.1345C39.9189 93.9703 40.0996 92.7771 40.622 91.7202C40.6638 91.6365 40.7057 91.5528 40.7524 91.474H40.7771C40.5857 92.0149 40.4786 92.5819 40.4595 93.1553C40.4718 93.591 40.8755 95.7031 41.4442 95.617C41.5005 95.6227 41.5574 95.6129 41.6087 95.5886C41.6599 95.5643 41.7034 95.5264 41.7346 95.4791C42.1876 94.9523 42.227 94.0563 42.2048 93.2267C42.197 93.4705 42.1698 93.7134 42.1236 93.9529C42.1605 93.2636 42.0817 92.535 42.0817 92.0156C42.0817 91.8088 42.0817 91.6045 42.0965 91.3977H42.158C42.158 91.4765 42.158 91.5602 42.158 91.6439C42.158 91.5577 42.158 91.474 42.158 91.3977H42.222C43.3567 91.1901 44.4199 90.697 45.3114 89.9651C45.5315 89.9562 45.7476 89.9035 45.9471 89.8101C46.1466 89.7167 46.3255 89.5844 46.4733 89.421C46.5272 89.601 46.5355 89.7916 46.4972 89.9756C46.459 90.1595 46.3754 90.3311 46.2542 90.4746C46.9311 90.4426 47.5047 89.9158 47.7656 89.298C47.9892 88.667 48.0551 87.9909 47.9576 87.3286C47.8603 86.666 47.8118 85.9971 47.8124 85.3273C47.8591 84.9658 47.8788 84.6013 47.8715 84.2368C47.8606 84.1255 47.8408 84.0152 47.8124 83.907H47.8321C47.897 83.9083 47.9614 83.8968 48.0219 83.8732C48.0823 83.8495 48.1374 83.8142 48.1841 83.7691C48.4647 83.5525 48.5558 83.1291 48.6272 82.8042C48.8215 82.0563 48.9093 81.2848 48.8881 80.5124C48.8734 80.7462 48.8438 80.9826 48.8094 81.2164C48.8709 80.3302 48.7478 79.4687 48.1619 78.8262C47.7582 78.3855 47.1945 78.1271 46.653 77.8686C46.4593 77.7994 46.2888 77.6774 46.1606 77.5166C46.0649 77.327 46.0128 77.1184 46.008 76.9061C45.8185 75.6113 44.6 74.7103 43.3864 74.1983C41.8257 73.5189 39.9401 73.2284 38.4508 74.0358C37.7123 74.4272 37.1462 75.0402 36.4815 75.5399C35.6495 76.1725 34.6894 76.6156 33.8008 77.167C32.9121 77.7184 32.0777 78.4175 31.6419 79.3677C30.9896 80.8447 31.4795 82.5186 31.5607 84.1211C31.6912 86.6443 30.6524 89.2906 28.5944 90.7675C28.3478 90.9187 28.1275 91.1091 27.9421 91.3313C27.8517 91.4437 27.798 91.5812 27.7883 91.7252C27.7786 91.8692 27.8134 92.0127 27.888 92.1362C27.9938 92.2741 28.1612 92.3528 28.2769 92.4833C28.5107 92.7492 28.464 93.1553 28.3729 93.495C28.074 94.6065 27.4783 95.6157 26.6498 96.4145C26.6867 96.6755 27.0092 96.7788 27.2725 96.8182C27.9694 96.9207 28.6729 96.9717 29.3772 96.9709H29.68C29.648 97.0521 29.6136 97.1382 29.5791 97.2293C29.1975 98.2337 28.7028 99.7796 28.8677 100.725C29.1139 102.217 29.9016 109.038 29.5126 110.234C29.1237 111.43 30.1379 120.105 30.1379 120.105C30.1379 120.105 30.2733 120.775 30.5071 121.774C29.8991 123.207 29.2049 124.797 28.8578 125.435C28.1587 126.712 28.5034 133.236 30.9133 136.135C30.9133 136.135 31.898 137.543 31.6518 138.053C31.4056 138.563 31.6961 139.461 31.6961 139.461L32.0777 147.902C32.0695 148.765 32.0103 149.626 31.9004 150.482C30.8715 151.754 29.2862 153.611 28.5403 153.913C27.3858 154.383 18.775 164.828 18.775 164.828C18.775 164.828 18.8439 164.954 18.9793 165.158L18.7332 165.439L17.0814 167.354L16.9509 167.504C16.6408 167.445 14.5755 167.071 12.9385 166.953H12.776V166.923C12.2023 166.857 11.6222 166.873 11.0529 166.97C10.9452 166.99 10.8458 167.041 10.7673 167.117C10.2085 167.802 9.9082 178.544 9.9082 178.544C9.9082 178.544 10.5039 183.923 12.3698 184.223C12.465 184.256 12.5646 184.275 12.6652 184.278H12.7465C14.0757 184.179 14.6862 183.418 14.9619 182.897C15.0435 182.741 15.1055 182.575 15.1466 182.404C15.1466 182.404 14.9299 181.447 15.5109 180.125C16.0918 178.803 17.1774 176.477 17.1774 176.477C17.1774 176.477 19.1467 174.406 18.7947 173.402C18.8488 173.321 18.9129 173.232 18.9818 173.131C19.7203 172.078 21.2169 169.998 22.4281 168.609C22.5068 168.516 22.5856 168.43 22.6742 168.343C23.1148 168.529 23.5759 168.662 24.0478 168.74C24.0478 168.74 25.899 168.016 26.5858 166.396C26.8787 165.707 28.0283 164.486 29.2517 163.312L29.2123 163.624L29.1705 173.899C29.5683 174.173 29.9921 174.406 30.4357 174.596V174.842C30.4444 176.306 30.3556 177.769 30.1699 179.221L30.133 179.45C29.9803 179.342 29.8474 179.305 29.7637 179.389C29.3846 179.773 29.1483 182.225 29.1262 183.354C29.1262 183.391 29.1262 183.428 29.1262 183.468C29.0646 184.595 28.4221 186.235 30.357 186.318C31.8044 186.38 38.0446 186.473 41.3826 186.523C43.181 186.557 44.9305 185.936 46.3059 184.777C47.3668 183.869 48.0093 182.788 46.5644 181.993C46.4757 181.944 46.3822 181.897 46.2788 181.85L43.0787 181.358L37.6114 178.567C37.6114 178.567 37.5794 176.878 36.9221 177.158C36.7269 177.201 36.5398 177.275 36.3683 177.378C36.3363 177.316 36.3018 177.25 36.2698 177.181C35.8245 176.298 35.5934 175.323 35.5953 174.335C35.5953 174.246 35.5953 174.155 35.6076 174.064C35.7677 173.918 35.919 173.763 36.0606 173.599C36.0606 173.599 36.0187 169.761 36.4495 169.038C36.8803 168.314 38.2145 160.978 38.2145 160.978C38.2145 160.978 38.2563 159.614 39.1179 158.805C39.9795 157.995 39.6767 155.649 39.6767 155.649C39.6767 155.649 40.8829 155.009 41.2694 152.921C41.6559 150.834 42.9064 146.275 42.9064 146.275C42.9064 146.275 45.4886 139.537 45.3188 135.276C45.1489 131.015 45.5649 128.795 45.5649 128.795L46.1016 118.889V118.737C46.3157 118.899 46.461 119.032 46.461 119.032C46.461 119.032 46.461 118.993 46.461 118.924C46.5397 118.99 46.584 119.032 46.584 119.032C46.584 119.032 46.8598 114.537 46.7662 112.755C48.2727 112.243 50.567 111.401 50.7048 110.973C50.8968 110.335 53.4815 108.319 53.4815 108.319C53.4256 108.31 53.3721 108.29 53.324 108.26C53.4052 108.223 53.4889 108.179 53.5702 108.132C55.2638 107.226 58.4097 104.577 57.8805 102.962L61.3268 98.017C61.4347 97.8584 61.485 97.6675 61.4694 97.4763C61.4537 97.285 61.3729 97.1049 61.2406 96.9659V96.9659Z" fill="url(#paint0_linear)"/>
<path d="M53.2227 108.909C52.9712 109.067 52.6909 109.173 52.398 109.222C51.3223 109.254 50.4287 106.342 50.4287 106.342C50.4287 106.342 50.734 106.031 51.2214 105.603C52.6639 104.321 55.6892 101.953 57.1071 103.277C58.7072 104.756 55.0861 107.907 53.2227 108.909Z" fill="#ECB4B6"/>
<path d="M36.8703 178.36L32.8997 182.646C32.8997 182.646 29.227 182.687 29.9458 180.661C30.0894 180.222 30.1916 179.771 30.251 179.312C30.432 177.874 30.5183 176.425 30.5095 174.975C30.5095 174.025 30.4947 173.358 30.4947 173.358C30.4947 173.358 36.2771 170.825 35.6863 173.464C35.6128 173.793 35.5732 174.13 35.5681 174.468C35.5658 175.446 35.7917 176.411 36.2279 177.287C36.4063 177.664 36.6215 178.024 36.8703 178.36V178.36Z" fill="#ECB4B6"/>
<path opacity="0.1" d="M36.8703 178.359L32.8997 182.645C32.8997 182.645 29.227 182.687 29.9458 180.661C30.0894 180.222 30.1916 179.77 30.251 179.312C30.7754 179.718 31.5286 180.915 31.5286 180.915C31.5286 180.915 34.0616 181.653 34.7583 179.438C35.1472 178.207 35.7626 177.584 36.2352 177.286C36.4114 177.664 36.6241 178.023 36.8703 178.359V178.359Z" fill="black"/>
<path d="M46.0818 184.814C44.7356 185.961 43.0153 186.574 41.2472 186.537C37.9732 186.49 31.8561 186.394 30.4357 186.335C28.5353 186.252 29.1655 184.629 29.227 183.512C29.227 183.472 29.227 183.438 29.227 183.401C29.2492 182.281 29.4732 179.854 29.8523 179.475C30.2314 179.096 31.5287 181.163 31.5287 181.163C31.5287 181.163 34.0617 181.902 34.7583 179.686C35.455 177.471 36.8704 177.257 36.8704 177.257C37.5129 176.979 37.5449 178.65 37.5449 178.65L42.9063 181.415L46.0523 181.907C46.1532 181.954 46.2443 182 46.3304 182.047C47.7533 182.845 47.1231 183.913 46.0818 184.814Z" fill="#C17174"/>
<path opacity="0.25" d="M36.1757 180.553C36.3035 180.553 36.4071 180.449 36.4071 180.321C36.4071 180.193 36.3035 180.09 36.1757 180.09C36.0479 180.09 35.9443 180.193 35.9443 180.321C35.9443 180.449 36.0479 180.553 36.1757 180.553Z" fill="white"/>
<path opacity="0.25" d="M38.3525 181.631C38.4803 181.631 38.5839 181.527 38.5839 181.399C38.5839 181.272 38.4803 181.168 38.3525 181.168C38.2247 181.168 38.1211 181.272 38.1211 181.399C38.1211 181.527 38.2247 181.631 38.3525 181.631Z" fill="white"/>
<path opacity="0.25" d="M39.4707 182.131C39.5984 182.131 39.702 182.027 39.702 181.899C39.702 181.772 39.5984 181.668 39.4707 181.668C39.3429 181.668 39.2393 181.772 39.2393 181.899C39.2393 182.027 39.3429 182.131 39.4707 182.131Z" fill="white"/>
<path opacity="0.25" d="M41.791 183.021C41.9188 183.021 42.0224 182.918 42.0224 182.79C42.0224 182.662 41.9188 182.559 41.791 182.559C41.6632 182.559 41.5596 182.662 41.5596 182.79C41.5596 182.918 41.6632 183.021 41.791 183.021Z" fill="white"/>
<path opacity="0.25" d="M40.6093 182.642C40.7371 182.642 40.8407 182.539 40.8407 182.411C40.8407 182.283 40.7371 182.18 40.6093 182.18C40.4815 182.18 40.3779 182.283 40.3779 182.411C40.3779 182.539 40.4815 182.642 40.6093 182.642Z" fill="white"/>
<path d="M46.0818 184.814C44.7356 185.961 43.0153 186.574 41.2472 186.537C37.9732 186.491 31.8561 186.395 30.4357 186.335C28.5353 186.252 29.1655 184.63 29.227 183.512L41.1586 184.25C41.1586 184.25 46.0449 183.512 46.328 182.055C47.7533 182.845 47.1231 183.913 46.0818 184.814Z" fill="#C17174"/>
<path opacity="0.25" d="M46.0818 184.814C44.7356 185.961 43.0153 186.574 41.2472 186.537C37.9732 186.491 31.8561 186.395 30.4357 186.335C28.5353 186.252 29.1655 184.63 29.227 183.512L41.1586 184.25C41.1586 184.25 46.0449 183.512 46.328 182.055C47.7533 182.845 47.1231 183.913 46.0818 184.814Z" fill="white"/>
<path d="M23.8696 167.594C23.4306 167.953 23.0297 168.355 22.6733 168.796C21.4892 170.169 20.0246 172.242 19.2984 173.271C19.0177 173.675 18.8479 173.928 18.8479 173.928L17.2626 173.694C17.2626 173.694 15.5542 171.078 15.5764 171.016C15.5985 170.954 16.9303 168.143 16.9303 168.143L17.4448 167.54L19.067 165.645L19.8055 164.788C19.8055 164.788 25.2998 166.56 23.8696 167.594Z" fill="#ECB4B6"/>
<path opacity="0.1" d="M19.2984 173.277C19.0177 173.68 18.8479 173.934 18.8479 173.934L17.2626 173.7C17.2626 173.7 15.5542 171.083 15.5764 171.022C15.5985 170.96 16.9303 168.144 16.9303 168.144L17.4448 167.541L17.6122 167.573H18.0159C16.6004 169.05 18.1193 172.299 18.1193 172.299C18.1193 172.299 18.774 172.361 19.2984 173.277Z" fill="black"/>
<path d="M17.5289 176.584C17.5289 176.584 16.4729 178.864 15.9018 180.174C15.3307 181.483 15.5424 182.431 15.5424 182.431C15.5022 182.601 15.4418 182.767 15.3627 182.923C15.1603 183.326 14.8523 183.666 14.4716 183.907C14.0909 184.148 13.6518 184.281 13.2014 184.292H13.098C11.173 184.243 10.5625 178.655 10.5625 178.655C10.5625 178.655 10.8579 168.018 11.4068 167.331C11.4823 167.255 11.5794 167.203 11.685 167.184C12.2452 167.086 12.8164 167.071 13.3811 167.137C15.1214 167.262 17.3591 167.691 17.3591 167.691H17.7603C16.3449 169.168 17.8637 172.419 17.8637 172.419C17.8637 172.419 18.5406 172.481 19.0674 173.431C19.5942 174.381 17.5289 176.584 17.5289 176.584Z" fill="#C17174"/>
<path opacity="0.25" d="M15.206 173.65C15.3338 173.65 15.4374 173.547 15.4374 173.419C15.4374 173.291 15.3338 173.188 15.206 173.188C15.0782 173.188 14.9746 173.291 14.9746 173.419C14.9746 173.547 15.0782 173.65 15.206 173.65Z" fill="white"/>
<path opacity="0.25" d="M15.0898 175.494C15.2176 175.494 15.3212 175.39 15.3212 175.263C15.3212 175.135 15.2176 175.031 15.0898 175.031C14.962 175.031 14.8584 175.135 14.8584 175.263C14.8584 175.39 14.962 175.494 15.0898 175.494Z" fill="white"/>
<path d="M15.2084 182.876C15.006 183.279 14.698 183.619 14.3173 183.86C13.9366 184.101 13.4975 184.234 13.0471 184.245H12.9461C11.0211 184.196 10.4082 178.608 10.4082 178.608C10.4082 178.608 10.7036 167.971 11.2525 167.284C11.328 167.208 11.4251 167.156 11.5307 167.137C12.0909 167.04 12.6621 167.024 13.2268 167.09C13.1948 169.003 13.1037 175.046 13.2268 175.647C13.3499 176.247 14.4404 181.274 15.2084 182.876Z" fill="#C17174"/>
<path opacity="0.25" d="M15.2084 182.876C15.006 183.279 14.698 183.619 14.3173 183.86C13.9366 184.101 13.4975 184.234 13.0471 184.245H12.9461C11.0211 184.196 10.4082 178.608 10.4082 178.608C10.4082 178.608 10.7036 167.971 11.2525 167.284C11.328 167.208 11.4251 167.156 11.5307 167.137C12.0909 167.04 12.6621 167.024 13.2268 167.09C13.1948 169.003 13.1037 175.046 13.2268 175.647C13.3499 176.247 14.4404 181.274 15.2084 182.876Z" fill="white"/>
<path d="M12.9432 184.25C11.0182 184.201 10.4053 178.613 10.4053 178.613C10.4053 178.613 10.7007 167.976 11.2496 167.289C11.3251 167.213 11.4222 167.161 11.5278 167.142C11.9315 167.742 12.286 169.072 11.9659 171.996C11.3653 177.537 12.089 177.887 12.089 177.887C12.089 177.887 12.9924 182.596 12.9432 184.25Z" fill="#C17174"/>
<path opacity="0.1" d="M12.9432 184.25C11.0182 184.201 10.4053 178.613 10.4053 178.613C10.4053 178.613 10.7007 167.976 11.2496 167.289C11.3251 167.213 11.4222 167.161 11.5278 167.142C11.9315 167.742 12.286 169.072 11.9659 171.996C11.3653 177.537 12.089 177.887 12.089 177.887C12.089 177.887 12.9924 182.596 12.9432 184.25Z" fill="black"/>
<path opacity="0.1" d="M53.2227 108.909C52.9712 109.066 52.6909 109.172 52.398 109.221C51.3223 109.253 50.4287 106.341 50.4287 106.341C50.4287 106.341 50.734 106.031 51.2214 105.603C51.5734 106.39 52.5433 108.515 53.2227 108.909Z" fill="black"/>
<path d="M46.3206 107.861C46.3206 107.861 47.2068 107.925 47.7754 107.546C48.3441 107.167 50.7835 106.12 50.8475 105.424C50.8475 105.424 52.3024 108.969 53.127 109.097C53.127 109.097 50.594 111.091 50.4045 111.723C50.2149 112.356 45.2744 113.909 45.2744 113.909L46.3206 107.861Z" fill="#FF748E"/>
<path opacity="0.1" d="M46.3206 107.861C46.3206 107.861 47.2068 107.925 47.7754 107.546C48.3441 107.167 50.7835 106.12 50.8475 105.424C50.8475 105.424 52.3024 108.969 53.127 109.097C53.127 109.097 50.594 111.091 50.4045 111.723C50.2149 112.356 45.2744 113.909 45.2744 113.909L46.3206 107.861Z" fill="black"/>
<path opacity="0.1" d="M23.8705 167.594C23.4315 167.953 23.0306 168.355 22.6742 168.796C20.764 167.996 19.5331 166.361 19.0654 165.645L19.8039 164.788C19.8039 164.788 25.3007 166.56 23.8705 167.594Z" fill="black"/>
<path d="M32.9039 149.645C32.9039 149.645 29.8072 153.783 28.6748 154.248C27.5425 154.713 19.1016 165.054 19.1016 165.054C19.1016 165.054 20.9158 168.39 24.2513 168.936C24.2513 168.936 26.0655 168.22 26.7425 166.615C27.4194 165.01 32.7365 160.476 32.7365 160.476L32.9039 149.645Z" fill="#5E5A6B"/>
<path opacity="0.1" d="M32.9039 149.645C32.9039 149.645 29.8072 153.783 28.6748 154.248C27.5425 154.713 19.1016 165.054 19.1016 165.054C19.1016 165.054 20.9158 168.39 24.2513 168.936C24.2513 168.936 26.0655 168.22 26.7425 166.615C27.4194 165.01 32.7365 160.476 32.7365 160.476L32.9039 149.645Z" fill="black"/>
<path opacity="0.1" d="M23.5234 163.491C24.4604 163.589 25.4051 163.589 26.342 163.491C28.0085 163.331 26.7531 164.345 23.5234 163.491Z" fill="black"/>
<path opacity="0.1" d="M22.7627 164.567C22.7627 164.567 24.9782 165.833 25.8348 165.2C26.6915 164.567 25.0102 165.811 22.7627 164.567Z" fill="black"/>
<path opacity="0.1" d="M35.6916 173.463C35.6181 173.793 35.5785 174.13 35.5734 174.467C33.8626 176.021 31.8022 175.541 30.5148 174.975C30.5148 174.024 30.5 173.357 30.5 173.357C30.5 173.357 36.2824 170.814 35.6916 173.463Z" fill="black"/>
<path d="M45.9483 118.394L45.8868 119.561L45.36 129.37C45.36 129.37 44.9366 131.566 45.1138 135.785C45.291 140.004 42.7408 146.69 42.7408 146.69C42.7408 146.69 41.51 151.207 41.1358 153.275C40.7616 155.343 39.5751 155.983 39.5751 155.983C39.5751 155.983 39.8705 158.304 39.0262 159.107C38.1819 159.909 38.14 161.258 38.14 161.258C38.14 161.258 36.8304 168.52 36.4169 169.239C36.0033 169.957 36.0353 173.756 36.0353 173.756C33.2931 177.005 29.2831 174.051 29.2831 174.051L29.3249 163.877C29.3249 163.877 30.4647 154.506 31.309 153.196C32.1533 151.887 32.1533 148.3 32.1533 148.3L31.7767 139.931C31.7767 139.931 31.4764 139.044 31.7349 138.537C31.9933 138.03 31.0136 136.639 31.0136 136.639C28.648 133.767 28.3058 127.307 28.9975 126.054C29.6892 124.801 31.7349 119.723 31.7349 119.723L34.5583 118.076L39.6613 118.226L45.9483 118.394Z" fill="#5E5A6B"/>
<path opacity="0.1" d="M33.9414 168.144C33.9414 168.144 34.6085 170.455 35.1451 170.709C35.6818 170.962 33.9414 168.144 33.9414 168.144Z" fill="black"/>
<path opacity="0.1" d="M34.8594 160.451C34.8594 160.451 36.5825 161.815 37.321 161.812C38.0595 161.81 34.8594 160.451 34.8594 160.451Z" fill="black"/>
<path d="M45.2741 103.302V106.088L43.4352 105.296L41.6013 104.505L37.6086 100.579C37.6086 100.579 34.4503 98.5286 32.7616 96.6602C31.7967 95.5944 31.3117 94.5875 32.161 94.0558C32.5726 93.7863 32.9446 93.4607 33.2662 93.0884C34.115 92.0879 34.8528 90.9984 35.4669 89.8391C35.494 89.7923 35.5211 89.7455 35.5457 89.6988C36.3679 88.1898 36.9119 86.9023 36.9119 86.9023C36.9119 86.9023 39.2259 87.6408 40.7127 88.6944C40.8333 88.7781 40.9465 88.8643 41.0548 88.9529C41.8844 89.6323 42.298 90.4299 41.5324 91.2077C41.3357 91.411 41.1539 91.6282 40.9884 91.8576V91.8576C40.8648 92.028 40.7513 92.2055 40.6487 92.3893C40.6044 92.473 40.5601 92.5542 40.5207 92.6355C40.0085 93.6832 39.8314 94.8633 40.0136 96.0153L45.2741 103.302Z" fill="#ECB4B6"/>
<path d="M44.9368 83.4263C45.0328 83.5937 45.1657 83.7365 45.2544 83.9063C45.4037 84.2812 45.452 84.6886 45.3947 85.0879C45.3467 85.7191 45.3881 86.3539 45.5177 86.9735C45.6482 87.5299 45.8919 88.0665 45.9116 88.6376C45.9387 89.4425 45.5202 90.1884 45.1165 90.8851C45.3358 90.8784 45.5515 90.8271 45.7504 90.7345C45.9493 90.6418 46.1273 90.5096 46.2735 90.346C46.3269 90.5235 46.3356 90.7115 46.2986 90.8932C46.2617 91.0749 46.1803 91.2447 46.0618 91.3872C46.7239 91.3552 47.2926 90.8334 47.5387 90.2229C47.7634 89.5921 47.8285 88.9156 47.7283 88.2536C47.6319 87.5975 47.5842 86.9351 47.5855 86.272C47.6313 85.9137 47.6502 85.5524 47.6421 85.1913C47.5806 84.475 47.1498 83.8522 46.7166 83.2712L45.8599 82.0946C45.8004 81.9984 45.7151 81.9208 45.6137 81.8706C44.8039 81.5259 44.7103 83.0177 44.9368 83.4263Z" fill="#464353"/>
<path opacity="0.1" d="M41.5469 91.2078C41.3502 91.4111 41.1684 91.6283 41.0029 91.8576V91.8576C40.8793 92.028 40.7658 92.2056 40.6632 92.3894C40.6189 92.4731 40.5746 92.5543 40.5352 92.6355C39.5593 92.5808 38.6075 92.3116 37.7476 91.8469C36.8876 91.3823 36.1408 90.7337 35.5602 89.9474C35.5331 89.9105 35.5061 89.8736 35.4814 89.8342C35.5085 89.7874 35.5356 89.7406 35.5602 89.6939C36.3824 88.1849 36.9264 86.8975 36.9264 86.8975C36.9264 86.8975 39.2404 87.636 40.7272 88.6895C40.8478 88.7732 40.961 88.8594 41.0693 88.948C41.8891 89.6323 42.3026 90.4201 41.5469 91.2078Z" fill="black"/>
<path d="M47.5492 85.7502C47.5495 87.3044 47.0052 88.8096 46.0109 90.0041C45.0165 91.1986 43.635 92.0068 42.1065 92.2883C41.7085 92.3606 41.3048 92.3969 40.9003 92.3966H40.8708C40.7994 92.3966 40.7255 92.3966 40.6541 92.3966C39.3512 92.3483 38.0912 91.9179 37.0311 91.1588C35.9709 90.3998 35.1575 89.3457 34.692 88.1278C34.2264 86.9098 34.1294 85.5819 34.413 84.3093C34.6966 83.0366 35.3482 81.8755 36.2868 80.9704C37.2254 80.0654 38.4094 79.4564 39.6915 79.2192C40.9737 78.9821 42.2972 79.1273 43.4974 79.6368C44.6976 80.1463 45.7214 80.9975 46.4414 82.0846C47.1614 83.1716 47.5458 84.4464 47.5467 85.7502H47.5492Z" fill="#ECB4B6"/>
<path opacity="0.1" d="M41.7715 102.184C41.7715 102.184 45.1193 104.072 44.2627 102.48L39.8933 96.0205L44.8535 102.394C44.8535 102.394 48.0191 106.743 46.2886 109.739C46.2886 109.739 46.0424 112.23 46.3304 112.821C46.6185 113.412 46.2467 119.714 46.2467 119.714C46.2467 119.714 45.0627 118.616 44.4301 118.825C43.7974 119.034 39.332 119.408 39.332 119.408L41.7715 102.184Z" fill="black"/>
<path opacity="0.1" d="M45.9489 118.394L45.8874 119.561C45.4861 119.27 44.9273 118.946 44.5556 119.069C43.923 119.28 39.4502 119.662 39.4502 119.662L39.6545 118.207L45.9489 118.394Z" fill="black"/>
<path d="M41.8971 102.184C41.8971 102.184 45.2473 104.072 44.3882 102.48L40.0188 96.0205L44.979 102.394C44.979 102.394 48.1447 106.743 46.4141 109.739C46.4141 109.739 46.168 112.23 46.456 112.821C46.744 113.412 46.3723 119.714 46.3723 119.714C46.3723 119.714 45.1907 118.616 44.5581 118.825C43.9254 119.034 39.4502 119.418 39.4502 119.418L41.8971 102.184Z" fill="#464353"/>
<path opacity="0.1" d="M43.6868 105.421C43.4923 107.452 42.6578 109.867 42.6578 109.867C42.6578 109.867 42.067 115.861 41.3015 117.643C40.5359 119.425 40.8781 121.865 40.4571 126.382C40.3045 128.009 39.7802 129.127 39.0737 129.88C37.9118 131.111 36.2527 131.379 34.9431 131.303L34.6329 131.278C32.5208 131.069 30.4949 120.895 30.4949 120.895C30.4949 120.895 29.525 112.24 29.9041 111.048C30.2832 109.857 29.53 103.12 29.2764 101.643C29.1139 100.705 29.5989 99.1809 29.9731 98.1815C30.1921 97.6055 30.3718 97.1968 30.3718 97.1968C30.3718 97.1968 31.0906 94.9174 32.2722 93.7358C32.4351 93.5685 32.63 93.4357 32.8452 93.3452C33.0605 93.2547 33.2917 93.2084 33.5252 93.209C34.0807 93.2315 34.6202 93.4015 35.0883 93.7013C35.1073 93.7122 35.1254 93.7246 35.1425 93.7382C35.1425 93.7382 42.8277 101.591 43.544 103.405C43.7434 103.915 43.7631 104.638 43.6868 105.421Z" fill="black"/>
<path d="M43.4354 105.296C43.2384 107.325 42.4039 109.739 42.4039 109.739C42.4039 109.739 41.8131 115.736 41.0525 117.508C40.2918 119.281 40.6316 121.73 40.2082 126.247C40.0555 127.872 39.5312 128.989 38.8247 129.745C37.6628 130.976 36.0037 131.242 34.6941 131.168L34.3839 131.143C32.2719 130.932 30.2459 120.758 30.2459 120.758C30.2459 120.758 29.2761 112.105 29.6551 110.923C30.0342 109.742 29.2761 102.987 29.0225 101.508C28.86 100.572 29.345 99.0461 29.7191 98.0467C29.9382 97.4706 30.1179 97.0743 30.1179 97.0743C30.1179 97.0743 30.8367 94.7948 32.0183 93.6133C32.1807 93.4455 32.3756 93.3126 32.591 93.2224C32.8063 93.1323 33.0378 93.0869 33.2713 93.0889C33.8272 93.109 34.3673 93.2791 34.8344 93.5813L34.8886 93.6157C34.8886 93.6157 42.5738 101.468 43.2901 103.283C43.4895 103.787 43.5166 104.513 43.4354 105.296Z" fill="#FF748E"/>
<path opacity="0.1" d="M34.8276 136.198C34.8276 136.198 33.0848 137.749 32.4841 137.675C31.8835 137.601 34.8276 136.198 34.8276 136.198Z" fill="black"/>
<path opacity="0.1" d="M35.2899 137.688C35.2899 137.688 33.4535 138.54 32.9045 138.673C32.3556 138.806 34.5809 137.469 35.2899 137.688Z" fill="black"/>
<path opacity="0.1" d="M42.3936 114.385C42.3936 114.385 45.1161 114.417 45.5272 115.271C45.9383 116.125 43.2699 114.035 42.3936 114.385Z" fill="black"/>
<path opacity="0.1" d="M42.0127 115.871C42.0127 115.871 44.1026 116.314 44.7353 116.821C45.3679 117.328 42.0127 115.871 42.0127 115.871Z" fill="black"/>
<path opacity="0.1" d="M38.4997 110.711C38.4997 110.711 38.2535 119.29 37.3132 120.4C36.3729 121.51 38.4997 110.711 38.4997 110.711Z" fill="black"/>
<path opacity="0.1" d="M36.1564 134.964C36.1564 134.964 34.4087 142.531 37.914 142.999C41.4194 143.466 40.3363 134.383 40.3363 134.383L36.1564 134.964Z" fill="black"/>
<path d="M36.0284 134.838C36.0284 134.838 34.2905 142.405 37.7885 142.877C41.2864 143.35 40.2082 134.262 40.2082 134.262L36.0284 134.838Z" fill="#ECB4B6"/>
<path opacity="0.1" d="M47.5074 85.0173C47.4099 84.8727 47.3274 84.7184 47.2613 84.557C46.796 83.5871 45.5997 84.0647 44.7233 84.525L44.2556 85.1281C44.0422 85.3784 43.8626 85.6556 43.7214 85.9527C43.6316 86.194 43.5568 86.4407 43.4974 86.6912C43.3768 87.1196 43.1996 87.5282 43.0396 87.9467C42.5089 89.338 42.1943 90.8024 42.1066 92.289C41.7086 92.3613 41.3049 92.3976 40.9004 92.3973H40.8709V92.3678C40.9152 92.2004 40.9521 92.0305 40.9866 91.8607C41.1698 90.9028 41.1923 89.9211 41.053 88.9559C41.053 88.9338 41.053 88.9141 41.053 88.8919C41.021 88.6778 40.9792 88.4611 40.962 88.247C40.8807 88.3947 40.8019 88.5448 40.7158 88.6975C40.1865 89.6821 39.6302 90.6668 38.6308 91.0976C38.2252 91.2568 37.7977 91.3531 37.3631 91.3831C36.8265 91.4117 36.2948 91.5001 35.7778 91.6465C35.6015 91.6947 35.4421 91.791 35.3174 91.9247C35.1783 92.1305 35.0982 92.3706 35.086 92.6188C35.0327 92.9463 34.9503 93.2684 34.8399 93.5813C34.3879 94.7494 33.6815 95.8022 32.7721 96.6633L32.5432 96.8849C32.1533 97.2872 31.6883 97.6092 31.1745 97.8326C30.7077 97.9895 30.2169 98.0629 29.7246 98.0492C29.9437 97.4732 30.1234 97.0769 30.1234 97.0769C30.1234 97.0769 30.8422 94.7974 32.0238 93.6158C32.1862 93.4481 32.381 93.3151 32.5964 93.225C32.8118 93.1348 33.0433 93.0894 33.2767 93.0915C34.1588 92.0487 34.9232 90.912 35.5562 89.7018C34.9513 88.8809 34.5433 87.9319 34.3639 86.9281C34.1845 85.9242 34.2384 84.8926 34.5216 83.913C34.8048 82.9334 35.3096 82.0321 35.9969 81.2788C36.6842 80.5256 37.5356 79.9405 38.4853 79.569C39.4349 79.1976 40.4573 79.0496 41.4733 79.1365C42.4893 79.2235 43.4717 79.543 44.3444 80.0704C45.2171 80.5979 45.9568 81.3191 46.5061 82.1782C47.0554 83.0372 47.3997 84.0112 47.5124 85.0247L47.5074 85.0173Z" fill="black"/>
<path d="M47.9305 79.8307C47.5366 79.3925 46.9828 79.1365 46.4535 78.883C46.2651 78.8115 46.0993 78.6908 45.9735 78.5334C45.8817 78.3453 45.8313 78.1396 45.8258 77.9303C45.6412 76.6453 44.4448 75.7567 43.2559 75.2348C41.7247 74.5628 39.8859 74.2748 38.4163 75.0724C37.7024 75.4613 37.1387 76.0693 36.4938 76.5641C35.6765 77.1894 34.7362 77.6275 33.8647 78.174C32.9933 78.7205 32.1613 79.4048 31.7477 80.355C31.1077 81.8074 31.5877 83.4739 31.669 85.0592C31.7945 87.5602 30.7779 90.172 28.7593 91.6514C28.5161 91.8005 28.2998 91.9894 28.1193 92.2102C28.0311 92.3219 27.9789 92.4577 27.9696 92.5997C27.9604 92.7417 27.9946 92.8832 28.0676 93.0053C28.1685 93.1432 28.3359 93.222 28.4467 93.35C28.6781 93.6134 28.6313 94.0146 28.5402 94.3543C28.2487 95.4517 27.6651 96.4496 26.8516 97.2418C26.886 97.5027 27.2011 97.6037 27.4596 97.6431C28.1433 97.7447 28.8337 97.7949 29.5249 97.7932C30.0636 97.8374 30.6052 97.7551 31.1065 97.553C31.6078 97.3508 32.055 97.0344 32.4124 96.6289C33.6432 95.4719 34.6845 94.0269 34.9626 92.3628C34.9771 92.1151 35.057 91.8756 35.194 91.6687C35.3205 91.5372 35.4792 91.4413 35.6544 91.3905C36.5725 91.0754 37.6237 91.2305 38.5074 90.8416C39.6594 90.3492 40.2305 89.1184 40.8336 87.991C40.8533 88.2052 40.8927 88.4218 40.9272 88.6384C41.1029 89.7969 41.0443 90.9788 40.7549 92.1142C40.5899 92.7567 40.3511 93.3967 40.3684 94.0589C40.3807 94.5512 40.8804 97.1236 41.5377 96.3532C42.1949 95.5827 41.9537 93.8792 41.9537 92.9241C41.9544 91.136 42.2823 89.3632 42.9211 87.6931C43.0786 87.2771 43.2583 86.866 43.379 86.4377C43.4386 86.1875 43.5126 85.9409 43.6005 85.6992C43.7434 85.4026 43.9238 85.1254 44.1371 84.8746L44.6073 84.2715C45.4836 83.8062 46.68 83.3336 47.1452 84.3035C47.3225 84.6752 47.4185 85.0863 47.8837 84.7244C48.157 84.5102 48.2456 84.0893 48.317 83.7693C48.6099 82.4277 48.8512 80.8498 47.9305 79.8307Z" fill="#464353"/>
<path opacity="0.1" d="M39.0218 103.071C38.8421 98.5242 32.4788 97.5838 30.9944 101.884C30.9824 101.913 30.9725 101.943 30.9649 101.973C29.9926 104.885 30.416 112.26 30.416 112.26C30.416 112.26 30.5415 117.213 31.0068 118.86C31.472 120.507 32.7791 125.233 32.7791 125.998C32.7791 126.764 33.9927 129.671 34.5023 129.883C35.0118 130.095 35.2703 131.739 35.3958 132.034C35.5214 132.33 35.8882 136.172 35.8882 136.172C35.8882 136.172 40.6588 135.877 40.7425 135.116C40.8262 134.356 39.6865 130.641 39.6865 130.641C39.6865 130.641 38.847 129.122 38.7387 127.899C38.6304 126.675 37.9707 126.119 38.1012 125.275C38.2316 124.43 37.7196 124.009 37.7196 123.46C37.7196 122.912 37.3405 121.435 37.3405 121.435C37.3405 121.435 36.538 120.799 36.666 120.041C36.794 119.283 35.5263 117.762 35.8636 117.213C36.2008 116.664 36.2845 115.313 36.2845 115.313C36.2845 115.313 36.7079 109.235 37.0033 107.588C37.2987 105.941 39.0292 103.283 39.0292 103.283C39.0292 103.283 39.0267 103.206 39.0218 103.071Z" fill="black"/>
<path opacity="0.1" d="M38.8246 129.744C37.6628 130.975 36.0036 131.241 34.694 131.167C34.5414 130.591 34.3199 129.882 33.9974 129.749C33.4854 129.537 32.2742 126.625 32.2742 125.867C32.2742 125.109 30.9671 120.378 30.5019 118.728C30.0366 117.079 29.9111 112.131 29.9111 112.131C29.9111 112.131 29.4877 104.746 30.46 101.842C30.46 101.815 30.4773 101.785 30.4896 101.755C31.9665 97.4525 38.3372 98.3953 38.5169 102.942C38.5169 103.077 38.5169 103.151 38.5169 103.151C38.5169 103.151 36.7938 105.81 36.491 107.457C36.1882 109.103 35.7771 115.181 35.7771 115.181C35.7771 115.181 35.691 116.533 35.3537 117.082C35.0165 117.63 36.2818 119.152 36.1562 119.91C36.0307 120.668 36.8307 121.303 36.8307 121.303C36.8307 121.303 37.2098 122.78 37.2098 123.332C37.2098 123.883 37.7169 124.302 37.5914 125.146C37.4658 125.99 38.1403 126.539 38.2486 127.763C38.3391 128.448 38.5333 129.117 38.8246 129.744V129.744Z" fill="black"/>
<path d="M38.7689 102.945C38.5892 98.3982 32.2259 97.4579 30.7415 101.758L30.712 101.844C29.7396 104.759 30.163 112.134 30.163 112.134C30.163 112.134 30.2886 117.084 30.7538 118.731C31.2191 120.378 32.5262 125.107 32.5262 125.87C32.5262 126.633 33.7398 129.543 34.2493 129.754C34.7589 129.966 35.0174 131.613 35.1429 131.908C35.2685 132.204 35.6352 136.044 35.6352 136.044C35.6352 136.044 40.4059 135.749 40.4896 134.99C40.5733 134.232 39.436 130.515 39.436 130.515C39.436 130.515 38.5941 128.994 38.4858 127.77C38.3775 126.547 37.703 125.998 37.831 125.154C37.959 124.309 37.4495 123.886 37.4495 123.337C37.4495 122.788 37.0704 121.311 37.0704 121.311C37.0704 121.311 36.2679 120.678 36.3959 119.918C36.5239 119.157 35.2562 117.638 35.5934 117.089C35.9306 116.54 36.0143 115.191 36.0143 115.191C36.0143 115.191 36.4377 109.111 36.7331 107.464C37.0285 105.818 38.7591 103.159 38.7591 103.159C38.7591 103.159 38.7738 103.08 38.7689 102.945Z" fill="#FF748E"/>
<path opacity="0.1" d="M30.9326 114.638C31.0582 114.51 33.4656 111.851 34.2238 112.801C34.982 113.752 30.9326 114.638 30.9326 114.638Z" fill="black"/>
<path opacity="0.1" d="M31.1543 116.696C31.2478 116.6 33.5593 116.506 34.1304 115.219C34.7015 113.931 31.1543 116.696 31.1543 116.696Z" fill="black"/>
<g opacity="0.1">
<path opacity="0.1" d="M28.5215 93.3486C28.5784 93.4157 28.6211 93.4936 28.6471 93.5776C28.6936 93.4339 28.7065 93.2815 28.6847 93.1322C28.6629 92.9828 28.6071 92.8404 28.5215 92.716C28.4083 92.5855 28.2434 92.5092 28.14 92.3714C28.14 92.3714 28.1277 92.3492 28.1203 92.3369C28.0632 92.4396 28.0349 92.5558 28.0384 92.6732C28.0418 92.7906 28.0769 92.9049 28.14 93.004C28.2557 93.1419 28.4083 93.2206 28.5215 93.3486Z" fill="black"/>
<path opacity="0.1" d="M31.7437 85.1494C31.7437 84.9032 31.7437 84.6571 31.7437 84.4306C31.6994 83.569 31.5394 82.6853 31.4976 81.8213C31.4459 82.8798 31.6822 83.99 31.7437 85.0633C31.7437 85.0879 31.7413 85.1149 31.7437 85.1494Z" fill="black"/>
<path opacity="0.1" d="M41.6098 95.7187C41.024 96.4055 40.5636 94.4288 40.4627 93.6484C40.4467 93.784 40.4393 93.9205 40.4406 94.0571C40.4553 94.5494 40.9526 97.1218 41.6098 96.3513C42.0554 95.8294 42.1022 94.9408 42.0726 94.1211C42.0406 94.7488 41.9422 95.3297 41.6098 95.7187Z" fill="black"/>
<path opacity="0.1" d="M40.9994 88.637C41.0495 88.9681 41.0799 89.3018 41.0905 89.6364C41.1119 89.0899 41.0814 88.5426 40.9994 88.0019C40.9674 87.7877 40.9256 87.5711 40.9059 87.3545C40.2979 88.4918 39.7342 89.7078 38.5821 90.2075C37.6885 90.594 36.6473 90.4414 35.7291 90.7565C35.5528 90.8047 35.3934 90.901 35.2688 91.0346C35.1303 91.2409 35.0503 91.4808 35.0374 91.7288C34.7567 93.3929 33.713 94.8379 32.4847 95.9948C32.1273 96.4003 31.6801 96.7168 31.1788 96.9189C30.6775 97.1211 30.1359 97.2034 29.5972 97.1592C28.9068 97.1597 28.2173 97.1095 27.5343 97.009C27.4284 96.9927 27.3245 96.9655 27.2241 96.9278C27.1281 97.0361 27.0272 97.1395 26.9238 97.2404C26.9583 97.5014 27.2758 97.6023 27.5343 97.6417C28.2172 97.7433 28.9068 97.7935 29.5972 97.7918C30.1359 97.836 30.6775 97.7537 31.1788 97.5516C31.6801 97.3494 32.1273 97.033 32.4847 96.6275C33.7155 95.4705 34.7567 94.0255 35.0374 92.3615C35.0507 92.1135 35.1306 91.8737 35.2688 91.6673C35.3944 91.5348 35.5534 91.4387 35.7291 91.3891C36.6473 91.074 37.6984 91.2291 38.5821 90.8402C39.7342 90.3478 40.3053 89.117 40.9059 87.9896C40.9256 88.2038 40.9674 88.4204 40.9994 88.637Z" fill="black"/>
<path opacity="0.1" d="M48.3897 83.135C48.3183 83.455 48.2272 83.8735 47.954 84.0901C47.4912 84.4495 47.3976 84.0409 47.2155 83.6692C46.7502 82.6993 45.5539 83.1769 44.6775 83.6372L44.2074 84.2403C43.994 84.4906 43.8144 84.7679 43.6732 85.0649C43.5831 85.3059 43.509 85.5526 43.4517 85.8034C43.3286 86.2318 43.1513 86.6404 42.9913 87.0564C42.355 88.7271 42.028 90.4996 42.0264 92.2874C42.0264 92.3686 42.0264 92.4572 42.0264 92.5483C42.0702 90.8866 42.3957 89.2444 42.9889 87.6915C43.1489 87.2755 43.3261 86.8644 43.4492 86.4361C43.5066 86.1853 43.5806 85.9386 43.6707 85.6976C43.8119 85.4005 43.9915 85.1232 44.2049 84.8729L44.6751 84.2698C45.5514 83.8046 46.7478 83.332 47.213 84.3018C47.3927 84.6735 47.4863 85.0846 47.9515 84.7228C48.2248 84.5086 48.3158 84.0877 48.3872 83.7677C48.5728 83.026 48.6557 82.2623 48.6334 81.498C48.5939 82.0491 48.5125 82.5964 48.3897 83.135V83.135Z" fill="black"/>
</g>
<path d="M54.1455 107.102L54.276 107.191C54.2176 107.152 54.1677 107.102 54.1291 107.044C54.0905 106.985 54.0642 106.919 54.0515 106.85C54.0389 106.782 54.0403 106.711 54.0556 106.642C54.0709 106.574 54.0998 106.509 54.1406 106.453L60.0091 97.9501C60.0478 97.8934 60.0974 97.8449 60.155 97.8075C60.2125 97.7701 60.2769 97.7445 60.3445 97.7321C60.412 97.7198 60.4813 97.7209 60.5484 97.7355C60.6155 97.7501 60.679 97.7778 60.7353 97.8171L60.6048 97.7261C60.7878 97.8525 60.9132 98.0464 60.9533 98.2651C60.9935 98.4839 60.9451 98.7097 60.819 98.8929L55.3123 106.886C55.1858 107.069 54.9922 107.194 54.7736 107.235C54.5549 107.275 54.3292 107.228 54.1455 107.102V107.102Z" fill="#464353"/>
<path d="M60.6682 97.7586L60.7675 97.827L54.3077 107.205L54.2084 107.137C54.1148 107.072 54.0507 106.973 54.0301 106.861C54.0095 106.75 54.0342 106.634 54.0986 106.541L60.0711 97.8704C60.1355 97.7768 60.2345 97.7127 60.3462 97.6921C60.4579 97.6715 60.5732 97.6962 60.6668 97.7606L60.6682 97.7586Z" fill="#9F9EFF"/>
<path d="M59.9433 99.0402L59.9251 99.0276C59.9061 99.0145 59.88 99.0193 59.8669 99.0384L59.3879 99.7337C59.3748 99.7528 59.3796 99.7788 59.3986 99.792L59.4169 99.8045C59.4359 99.8176 59.462 99.8128 59.4751 99.7938L59.9541 99.0984C59.9672 99.0794 59.9624 99.0533 59.9433 99.0402Z" fill="#464353"/>
<path d="M152.867 183.331C200.722 183.331 239.517 181.347 239.517 178.9C239.517 176.453 200.722 174.469 152.867 174.469C105.012 174.469 66.2178 176.453 66.2178 178.9C66.2178 181.347 105.012 183.331 152.867 183.331Z" fill="#E6E6E6"/>
<path d="M198.053 83.5858C198.373 83.4697 198.462 82.9094 198.253 82.3344C198.044 81.7595 197.616 81.3875 197.296 81.5036C196.977 81.6197 196.887 82.18 197.096 82.7549C197.305 83.3299 197.734 83.7019 198.053 83.5858Z" fill="#FFB8B8"/>
<path d="M171.575 43.3457H170.591V16.3797C170.591 14.3301 170.187 12.3006 169.403 10.407C168.618 8.51349 167.469 6.79296 166.019 5.34369C164.57 3.89443 162.85 2.74481 160.956 1.96048C159.063 1.17614 157.033 0.772454 154.983 0.772461H97.8524C95.8028 0.772456 93.7733 1.17614 91.8797 1.96048C89.9862 2.74481 88.2656 3.89443 86.8164 5.3437C85.3671 6.79296 84.2175 8.51349 83.4331 10.407C82.6488 12.3006 82.2451 14.3301 82.2451 16.3797V164.317C82.2451 166.367 82.6488 168.396 83.4331 170.29C84.2175 172.184 85.3671 173.904 86.8164 175.353C88.2656 176.803 89.9862 177.952 91.8797 178.737C93.7733 179.521 95.8028 179.925 97.8524 179.925H154.983C157.033 179.925 159.063 179.521 160.956 178.737C162.85 177.952 164.57 176.803 166.019 175.353C167.469 173.904 168.618 172.184 169.403 170.29C170.187 168.396 170.591 166.367 170.591 164.317V62.5406H171.575V43.3457Z" fill="#3F3D56"/>
<path d="M155.613 4.83204H148.156C148.499 5.67285 148.63 6.58509 148.537 7.48841C148.444 8.39172 148.131 9.25839 147.624 10.0121C147.118 10.7657 146.434 11.3833 145.633 11.8103C144.831 12.2373 143.937 12.4607 143.029 12.4608H110.299C109.391 12.4607 108.497 12.2373 107.696 11.8103C106.894 11.3833 106.21 10.7657 105.704 10.0121C105.197 9.25839 104.884 8.39172 104.791 7.4884C104.699 6.58508 104.829 5.67284 105.172 4.83203H98.2071C96.6765 4.83203 95.1609 5.1335 93.7468 5.71923C92.3327 6.30496 91.0478 7.16348 89.9655 8.24577C88.8832 9.32807 88.0247 10.6129 87.439 12.027C86.8532 13.4411 86.5518 14.9567 86.5518 16.4873V164.208C86.5518 165.739 86.8532 167.254 87.439 168.668C88.0247 170.082 88.8832 171.367 89.9655 172.449C91.0478 173.532 92.3327 174.39 93.7468 174.976C95.1609 175.562 96.6765 175.863 98.2071 175.863H155.613C157.144 175.863 158.66 175.562 160.074 174.976C161.488 174.39 162.773 173.532 163.855 172.449C164.937 171.367 165.796 170.082 166.381 168.668C166.967 167.254 167.269 165.739 167.269 164.208V16.4873C167.269 14.9567 166.967 13.4411 166.381 12.027C165.796 10.6129 164.937 9.32808 163.855 8.24578C162.773 7.16349 161.488 6.30497 160.074 5.71924C158.66 5.13351 157.144 4.83204 155.613 4.83204V4.83204Z" fill="white"/>
<g opacity="0.5">
<path opacity="0.5" d="M102.4 30.4939C103.552 30.5015 104.681 30.8149 105.671 31.4023C105.671 31.4023 108.67 31.7666 110.304 31.4023C111.939 31.0379 112.766 29.7677 113.076 30.1296C113.386 30.4915 113.394 33.9008 113.394 33.9008L111.986 37.672L108.805 40.0328L103.764 38.5804L102.095 34.3144L102.4 30.4939Z" fill="#7ECB20"/>
<path opacity="0.1" d="M113.394 33.9051L111.986 37.6763L108.805 40.037L103.764 38.5847L102.095 34.3137L102.412 30.4982H102.486C103.613 30.5269 104.714 30.8402 105.686 31.409C105.686 31.409 108.685 31.7733 110.319 31.409C111.872 31.0644 112.69 29.8976 113.027 30.0945C113.047 30.1038 113.064 30.1172 113.079 30.1339C113.394 30.4933 113.394 33.9051 113.394 33.9051Z" fill="black"/>
<path opacity="0.1" d="M113.394 33.9048L111.986 37.676L108.805 40.0367L103.764 38.5844L102.095 34.3135L102.412 30.4979H102.486C102.767 31.7017 103.963 35.5024 107.774 35.7707C111.693 36.044 112.805 31.3817 113.037 30.0967C113.057 30.1059 113.074 30.1194 113.088 30.1361C113.394 30.493 113.394 33.9048 113.394 33.9048Z" fill="black"/>
<path d="M102.4 30.4942C102.4 30.4942 103.218 35.8089 107.762 36.1264C112.306 36.444 113.076 30.1299 113.076 30.1299C113.076 30.1299 119.664 32.2887 121.2 36.1387C122.736 39.9887 123.881 43.0781 123.881 43.0781C123.881 43.0781 123.388 43.9396 122.834 44.0307C122.28 44.1218 118.519 46.7114 118.519 46.7114C118.519 46.7114 118.475 54.0717 118.883 54.5246C119.292 54.9776 119.157 56.9321 117.928 56.841C116.7 56.75 108.207 54.8422 100.943 56.4324C100.943 56.4324 97.9005 57.5229 97.9891 55.7505C98.0777 53.9782 98.2156 47.029 98.2156 47.029C98.2156 47.029 93.6271 45.0301 93.3563 45.0301C93.0856 45.0301 92.4012 44.6707 93.1274 43.4867C93.8536 42.3026 94.7644 38.2631 94.7644 38.2631C94.7644 38.2631 96.586 32.4635 102.4 30.4942Z" fill="#7ECB20"/>
<path opacity="0.1" d="M116.528 40.0371C116.528 40.0371 117.892 41.0365 117.575 41.8095C117.257 42.5824 116.528 40.0371 116.528 40.0371Z" fill="black"/>
<path opacity="0.1" d="M118.527 40.998C118.4 41.4412 118.4 41.9112 118.527 42.3544Z" fill="black"/>
<path opacity="0.1" d="M119.435 43.4912C119.435 43.4912 119.617 44.722 119.073 44.8525Z" fill="black"/>
<path opacity="0.1" d="M100.901 39.7197C100.901 39.7197 98.3576 41.9352 99.2192 42.8091Z" fill="black"/>
<path opacity="0.1" d="M99.311 45.0811C99.311 45.0811 99.2692 47.3975 99.9707 47.5796Z" fill="black"/>
<path opacity="0.1" d="M106.624 52.8479C106.624 52.8479 108.347 51.6688 108.805 51.7131Z" fill="black"/>
<path opacity="0.1" d="M108.348 54.0769C108.348 54.0769 110.214 52.7575 110.713 52.8461Z" fill="black"/>
</g>
<path d="M103.389 72.8418C103.389 72.8418 106.183 76.7435 108.081 76.3644C109.978 75.9853 110.166 75.5693 111.852 72.8418L113.235 76.0247L111.606 79.9633L109.676 82.4618L105.584 81.8194L104.26 77.349L103.389 72.8418Z" fill="#7ECB20"/>
<path opacity="0.1" d="M113.235 76.0218L111.606 79.9604L109.676 82.459L105.584 81.8165L104.26 77.3462L103.389 72.8414C103.389 72.8414 103.635 73.1811 104.019 73.6488C104.957 74.7688 106.741 76.6298 108.081 76.3566C109.951 75.9824 110.161 75.5713 111.785 72.9448L111.852 72.834L113.235 76.0218Z" fill="black"/>
<path opacity="0.1" d="M113.235 76.0222L111.606 79.9608L109.676 82.4594L105.584 81.8169L104.26 77.3466L103.389 72.8418C103.389 72.8418 103.635 73.1815 104.019 73.6492C104.629 75.6185 105.941 78.7768 108.081 78.7497C110.495 78.7226 111.47 74.7225 111.785 72.9526L111.852 72.8418L113.235 76.0222Z" fill="black"/>
<path d="M102.135 72.7261C102.135 72.7261 101.188 72.6129 101.68 73.7871C102.172 74.9613 103.081 78.8236 102.628 79.6187C102.175 80.4138 102.401 82.5726 100.432 82.9911L100.998 85.2238C100.998 85.2238 101.111 90.1471 100.885 90.8683C100.658 91.5896 100.619 95.5627 100.695 95.9787C100.772 96.3947 100.735 99.1222 100.432 99.2379C100.129 99.3536 99.9397 100.675 100.924 100.902C101.909 101.128 106.111 101.244 106.869 101.471C107.627 101.697 113.004 101.471 113.004 101.471C113.004 101.471 115.276 101.168 115.844 100.978C116.413 100.789 116.526 100.336 116.337 99.4643C116.147 98.5929 115.276 92.269 115.465 91.4739C115.655 90.6788 115.694 82.9148 115.694 82.9148C115.694 82.9148 114.217 82.4225 114.217 80.9824C114.217 79.5424 113.649 75.6801 114.823 73.2578C114.823 73.2578 113.875 72.6079 113.725 72.7236C113.575 72.8393 112.144 72.4233 112.144 72.4233C112.144 72.4233 111.406 79.0131 108.317 79.05C105.227 79.087 103.851 72.4233 103.851 72.4233C103.851 72.4233 103.878 71.8178 102.135 72.7261Z" fill="#7ECB20"/>
<path opacity="0.1" d="M107.327 93.8594C107.327 93.8594 107.965 95.4127 109.028 95.6391C110.092 95.8656 107.327 93.8594 107.327 93.8594Z" fill="black"/>
<path opacity="0.1" d="M107.327 95.0703C107.327 95.0703 109.385 96.7368 109.296 97.079Z" fill="black"/>
<path opacity="0.1" d="M107.573 85.2246C107.573 85.2246 109.203 86.3225 109.203 87.1176Z" fill="black"/>
<path opacity="0.1" d="M108.821 88.6702C108.821 88.6702 108.368 87.0799 108.065 86.7402Z" fill="black"/>
<path opacity="0.1" d="M108.065 89.2754C108.065 89.2754 108.747 90.6391 108.821 91.0182Z" fill="black"/>
<path opacity="0.1" d="M109.271 86.5117C109.271 86.5117 107.152 87.1567 107.339 87.9518Z" fill="black"/>
<path opacity="0.1" d="M107.327 93.8587C107.327 93.8587 110.104 90.6389 109.269 90.7152C108.435 90.7915 107.327 93.8587 107.327 93.8587Z" fill="black"/>
<g opacity="0.1">
<path opacity="0.1" d="M114.218 80.9816C114.218 80.3169 114.098 79.1353 114.083 77.8184C114.068 79.3298 114.218 80.728 114.218 81.4739C114.218 82.8819 115.629 83.3817 115.695 83.4038C115.695 83.0961 115.695 82.9115 115.695 82.9115C115.695 82.9115 114.218 82.4216 114.218 80.9816Z" fill="black"/>
<path opacity="0.1" d="M116.333 99.9569C116.362 100.086 116.385 100.217 116.4 100.348C116.431 100.052 116.409 99.7527 116.333 99.4646C116.171 98.7261 115.511 93.9849 115.442 92.1338C115.368 93.3991 116.161 99.1298 116.333 99.9569Z" fill="black"/>
<path opacity="0.1" d="M100.665 95.0461C100.665 93.6947 100.741 91.8312 100.889 91.3536C101.009 90.9696 101.034 89.3991 101.031 88.0107C101.031 89.2563 100.994 90.5216 100.889 90.8613C100.721 91.398 100.657 93.707 100.665 95.0461Z" fill="black"/>
<path opacity="0.1" d="M102.139 73.2184C103.88 72.3101 103.843 72.9156 103.843 72.9156C103.843 72.9156 105.206 79.5818 108.308 79.5424C111.41 79.503 112.148 72.9156 112.148 72.9156C112.148 72.9156 113.588 73.3317 113.738 73.216C113.889 73.1003 114.393 73.4621 114.671 73.6394C114.723 73.5089 114.777 73.3809 114.839 73.2578C114.839 73.2578 113.891 72.6079 113.738 72.7236C113.586 72.8393 112.148 72.4233 112.148 72.4233C112.148 72.4233 111.41 79.0131 108.32 79.05C105.231 79.087 103.855 72.4233 103.855 72.4233C103.855 72.4233 103.892 71.8178 102.152 72.7261C102.152 72.7261 101.381 72.6375 101.595 73.4867C101.718 73.1692 102.139 73.2184 102.139 73.2184Z" fill="black"/>
<path opacity="0.1" d="M100.434 99.7302C100.68 99.6392 100.746 97.953 100.732 97.0225C100.719 97.9579 100.633 99.1616 100.434 99.2379C100.234 99.3142 100.138 99.7302 100.215 100.131C100.254 99.9198 100.333 99.7647 100.434 99.7302Z" fill="black"/>
<path opacity="0.1" d="M102.632 80.1113C102.752 79.7885 102.792 79.4412 102.748 79.0996C102.745 79.2789 102.706 79.4557 102.632 79.619C102.176 80.4141 102.403 82.573 100.434 82.9914L100.552 83.4542C102.393 82.9767 102.186 80.8917 102.632 80.1113Z" fill="black"/>
</g>
<path d="M113.518 119.032C112.588 120.725 103.143 119.032 103.143 119.032L103.167 118.862L103.354 117.55H113.307L113.496 118.859L113.518 119.032Z" fill="#7ECB20"/>
<path opacity="0.1" d="M113.518 119.031C112.588 120.725 103.143 119.031 103.143 119.031L103.167 118.861C103.62 118.861 110.454 118.699 113.506 118.861L113.518 119.031Z" fill="black"/>
<path d="M103.293 119.033C103.293 119.033 101.6 119.456 98.973 126.57C96.3465 133.684 95.416 142.876 95.416 142.876C95.416 142.876 93.939 145.377 100.243 145.544C100.243 145.544 99.7361 147.196 103.293 146.943C106.85 146.689 106.338 146.692 106.338 146.692C106.338 146.692 108.625 145.251 109.642 145.505C110.658 145.759 111.293 145.845 112.394 146.775C113.494 147.706 117.012 147.327 117.054 146.608C117.082 146.255 117.082 145.9 117.054 145.547C117.054 145.547 122.432 145.887 121.416 141.99C120.399 138.093 119.552 131.698 119.552 131.698C119.552 131.698 116.8 119.205 113.664 119.035C110.528 118.865 103.293 119.033 103.293 119.033Z" fill="#7ECB20"/>
<path opacity="0.1" d="M109.32 123.949L107.327 145.549L107.496 145.564L109.489 123.964L109.32 123.949Z" fill="black"/>
<path opacity="0.1" d="M108.399 123.932L108.312 146.675L108.481 146.675L108.569 123.933L108.399 123.932Z" fill="black"/>
<path opacity="0.1" d="M107.989 123.928L107.819 123.935L108.668 146.763L108.838 146.756L107.989 123.928Z" fill="black"/>
<path opacity="0.1" d="M109.618 145.546C109.323 132.537 107.107 123.63 107.08 123.552L107.245 123.51C107.267 123.598 109.495 132.522 109.788 145.554L109.618 145.546Z" fill="black"/>
<path opacity="0.1" d="M108.443 120.302C108.443 120.302 108.147 120.472 108.443 121.286Z" fill="black"/>
<path opacity="0.1" d="M108.423 120.302C108.423 120.302 107.618 120.809 108.423 121.658Z" fill="black"/>
<path opacity="0.1" d="M107.819 120.302C107.819 120.302 108.92 121.36 108.666 121.658Z" fill="black"/>
<path opacity="0.1" d="M107.819 120.048C107.819 120.048 107.992 121.318 108.627 121.658Z" fill="black"/>
<path d="M163.245 47.4082C157.994 48.419 153.043 50.612 148.766 53.8208C148.549 53.245 148.142 52.761 147.611 52.4496C147.249 52.2249 146.854 52.0588 146.439 51.9573C146.063 51.8613 145.701 52.0902 145.369 52.4201C144.986 52.8431 144.666 53.318 144.416 53.8306C138.678 49.892 129.974 47.3787 129.974 47.3787V46.591C129.974 46.4359 130.001 46.2488 130.03 46.0371C130.06 45.8254 130.097 45.6383 130.143 45.4094C130.882 41.6529 133.801 33.0692 133.801 33.0692H134.705H137.103L143.503 34.3985L150.703 33.9579L157.955 32.4489L158.895 32.252C160.463 33.4828 162.243 42.0985 162.942 45.7663C163.031 46.2316 163.1 46.6156 163.151 46.8987C163.213 47.2187 163.245 47.4082 163.245 47.4082Z" fill="#7ECB20"/>
<path d="M131.165 45.7817C131.355 42.1755 134.22 34.3598 134.705 33.0625H133.801C133.801 33.0625 130.71 42.1705 130.082 45.7251C130.081 45.7341 130.081 45.7432 130.082 45.7522C130.065 45.8482 130.047 45.9418 130.035 46.0304C130.006 46.2421 129.986 46.4292 129.979 46.5842V47.372C129.979 47.372 138.683 49.8877 144.421 53.8239C144.671 53.3113 144.991 52.8364 145.374 52.4134C143.18 50.4195 134.862 47.1701 131.165 45.7817Z" fill="#7ECB20"/>
<path d="M163.152 46.8889C163.129 46.7634 163.102 46.6181 163.073 46.4581C163.036 46.2513 162.992 46.0175 162.942 45.7565C162.243 42.0838 160.463 33.4656 158.895 32.2422L157.955 32.4391C158.526 33.9727 162.206 43.9866 161.894 45.9412C155.74 47.172 149.502 51.1721 147.616 52.4497C148.147 52.7611 148.554 53.2451 148.771 53.8209C153.048 50.612 157.999 48.4191 163.25 47.4083C163.25 47.4083 163.213 47.2188 163.152 46.8889Z" fill="#7ECB20"/>
<path opacity="0.1" d="M131.393 45.5547C131.58 41.9484 134.447 34.1327 134.932 32.8379H134.027C134.027 32.8379 130.935 41.9459 130.307 45.4981C130.307 45.4981 130.307 45.5178 130.307 45.5251C130.289 45.6236 130.274 45.7171 130.263 45.8058C130.233 46.0175 130.213 46.2045 130.206 46.3596V47.1473C130.206 47.1473 138.908 49.6607 144.648 53.5993C144.896 53.0861 145.216 52.6111 145.599 52.1888C143.405 50.1998 135.09 46.943 131.393 45.5547Z" fill="black"/>
<path d="M131.165 45.7817C131.355 42.1755 134.22 34.3598 134.705 33.0625H133.801C133.801 33.0625 130.71 42.1705 130.082 45.7251C130.081 45.7341 130.081 45.7432 130.082 45.7522C130.065 45.8482 130.047 45.9418 130.035 46.0304C130.006 46.2421 129.986 46.4292 129.979 46.5842V47.372C129.979 47.372 138.683 49.8877 144.421 53.8239C144.671 53.3113 144.991 52.8364 145.374 52.4134C143.18 50.4195 134.862 47.1701 131.165 45.7817Z" fill="#7ECB20"/>
<path opacity="0.1" d="M162.928 46.6623L162.85 46.2315C162.81 46.0248 162.768 45.7934 162.719 45.53C162.023 41.8597 160.24 33.2415 158.672 32.0156L157.734 32.215C158.305 33.7486 161.986 43.7625 161.673 45.7171C155.519 46.9479 149.279 50.948 147.396 52.2232C147.926 52.5354 148.334 53.0203 148.55 53.5967C152.826 50.3863 157.777 48.1924 163.027 47.1817C163.027 47.1817 162.99 46.9971 162.928 46.6623Z" fill="black"/>
<path d="M163.152 46.8889C163.129 46.7634 163.102 46.6181 163.073 46.4581C163.036 46.2513 162.992 46.0175 162.942 45.7565C162.243 42.0838 160.463 33.4656 158.895 32.2422L157.955 32.4391C158.526 33.9727 162.206 43.9866 161.894 45.9412C155.74 47.172 149.502 51.1721 147.616 52.4497C148.147 52.7611 148.554 53.2451 148.771 53.8209C153.048 50.612 157.999 48.4191 163.25 47.4083C163.25 47.4083 163.213 47.2188 163.152 46.8889Z" fill="#7ECB20"/>
<path opacity="0.1" d="M133.305 37.5127C133.305 37.5127 139.016 41.1067 140.35 35.8438L141.62 36.1835C141.62 36.1835 142.039 42.0151 132.926 38.6869L133.305 37.5127Z" fill="black"/>
<path d="M133.305 37.0625C133.305 37.0625 139.016 40.6565 140.35 35.3936L141.62 35.7333C141.62 35.7333 142.039 41.5649 132.926 38.2367L133.305 37.0625Z" fill="#7ECB20"/>
<path opacity="0.1" d="M151.274 36.0131C151.274 36.0131 152.013 40.3136 159.838 38.2286L159.563 37.4162C159.563 37.4162 154.219 39.6317 152.281 35.7842L151.274 36.0131Z" fill="black"/>
<path d="M151.274 35.5639C151.274 35.5639 152.013 39.8644 159.838 37.7794L159.563 36.967C159.563 36.967 154.219 39.1825 152.281 35.335L151.274 35.5639Z" fill="#7ECB20"/>
<path opacity="0.1" d="M146.065 35.9574V44.9325H147.454C147.454 44.9325 149.374 44.2407 149.33 40.2061C149.285 36.1715 148.992 35.0859 148.992 35.0859L146.065 35.9574Z" fill="black"/>
<path d="M145.842 35.7327V44.7079H147.23C147.23 44.7079 149.15 44.0161 149.106 39.9815C149.062 35.9469 148.766 34.8613 148.766 34.8613L145.842 35.7327Z" fill="#7ECB20"/>
<path opacity="0.1" d="M158.888 32.6951C158.322 33.7487 153.182 35.4792 152.274 35.7771L152.136 35.8214C152.136 35.8214 151.811 35.9051 151.267 36.0183C149.613 36.3629 145.925 37.003 143.144 36.4417C142.74 36.3629 142.321 36.2768 141.896 36.1955L140.911 35.9814C137.711 35.27 134.4 34.3395 133.812 33.5198C133.812 33.5198 133.972 30.844 134.511 30.9153C135.05 30.9867 141.068 33.5198 141.068 33.5198L141.155 33.5321C141.31 33.5518 141.662 33.5961 142.156 33.6527C144.111 33.8668 148.229 34.2065 150.445 33.6133C150.551 33.5838 150.649 33.5542 150.745 33.5198C150.912 33.4631 151.087 33.4041 151.267 33.3376C154.118 32.3283 158.386 30.5215 158.386 30.5215C158.386 30.5215 159.513 31.5357 158.888 32.6951Z" fill="black"/>
<path d="M158.888 32.2425C158.322 33.2961 153.182 35.0241 152.274 35.322L152.136 35.3688C152.136 35.3688 151.811 35.45 151.267 35.5632C149.613 35.9079 145.925 36.5479 143.144 35.9866C142.74 35.9079 142.321 35.8217 141.896 35.7405L140.911 35.5263C137.711 34.8149 134.4 33.8844 133.812 33.0647C133.812 33.0647 133.972 30.3889 134.511 30.4627C135.05 30.5366 141.068 33.0647 141.068 33.0647L141.155 33.077C141.31 33.0967 141.662 33.1434 142.156 33.1976C144.111 33.4118 148.229 33.7515 150.445 33.1582C150.551 33.1287 150.649 33.0991 150.745 33.0647C150.912 33.0105 151.087 32.949 151.267 32.8825C154.118 31.8732 158.386 30.0664 158.386 30.0664C158.386 30.0664 159.513 31.088 158.888 32.2425Z" fill="#7ECB20"/>
<path opacity="0.1" d="M147.041 35.9855C147.538 35.9855 147.942 35.5821 147.942 35.0845C147.942 34.587 147.538 34.1836 147.041 34.1836C146.543 34.1836 146.14 34.587 146.14 35.0845C146.14 35.5821 146.543 35.9855 147.041 35.9855Z" fill="black"/>
<path d="M147.041 35.7599C147.538 35.7599 147.942 35.3566 147.942 34.859C147.942 34.3614 147.538 33.958 147.041 33.958C146.543 33.958 146.14 34.3614 146.14 34.859C146.14 35.3566 146.543 35.7599 147.041 35.7599Z" fill="#7ECB20"/>
<path opacity="0.1" d="M142.371 33.188L142.125 35.7284L141.141 35.5142L141.387 33.0674C141.525 33.092 141.879 33.1388 142.371 33.188Z" fill="black"/>
<path d="M142.149 33.188L141.903 35.7284L140.918 35.5142L141.164 33.0674C141.3 33.092 141.656 33.1388 142.149 33.188Z" fill="#7ECB20"/>
<path opacity="0.1" d="M152.054 35.3223L151.916 35.3691C151.916 35.3691 151.594 35.4503 151.047 35.5636L150.208 33.1536C150.314 33.1241 150.415 33.0946 150.511 33.0601C150.678 33.0059 150.853 32.9444 151.033 32.8779L152.054 35.3223Z" fill="black"/>
<path d="M152.282 35.3223L152.144 35.3691C152.144 35.3691 151.819 35.4503 151.275 35.5636L150.436 33.1536C150.541 33.1241 150.64 33.0946 150.736 33.0601C150.903 33.0059 151.078 32.9444 151.258 32.8779L152.282 35.3223Z" fill="#7ECB20"/>
<path opacity="0.5" d="M135.257 73.4717C135.257 73.4717 150.12 74.1757 157.51 73.7425L157.348 75.6921L144.271 77.4152L140.402 76.2238L135.257 73.4717Z" fill="#7ECB20"/>
<path opacity="0.1" d="M157.52 73.7425L157.357 75.6921L144.284 77.4152L140.411 76.2238L135.257 73.4717C135.257 73.4717 135.562 73.4889 136.106 73.5111C139.331 73.6514 150.942 74.1043 157.318 73.7572L157.52 73.7425Z" fill="black"/>
<path opacity="0.5" d="M162.664 101.465C159.794 103.188 149.832 101.519 149.832 101.519L147.07 91.673L143.983 101.689C139.599 103.26 130.555 100.985 130.555 100.985L134.075 79.323L134.683 76.337L135.256 73.4717L140.834 75.1505C140.834 75.1505 142.511 76.2878 149.497 75.9628C156.483 75.6379 157.51 73.7474 157.51 73.7474C157.817 73.836 158.11 74.9216 158.406 76.2706C158.834 78.2399 159.27 80.7655 159.784 81.6C160.66 83.0031 162.664 101.465 162.664 101.465Z" fill="#7ECB20"/>
<path opacity="0.1" d="M158.416 76.4824C152.188 79.9016 146.827 79.8081 146.827 79.8081C145.5 79.9706 134.684 76.5514 134.684 76.5514L135.257 73.6885L140.835 75.3673C140.835 75.3673 142.512 76.5046 149.498 76.1796C156.484 75.8547 157.51 73.9642 157.51 73.9642C157.828 74.0503 158.121 75.1335 158.416 76.4824Z" fill="black"/>
<path opacity="0.1" d="M157.52 73.7425L157.357 75.6921L144.284 77.4152L140.411 76.2238L135.257 73.4717C135.257 73.4717 135.562 73.4889 136.106 73.5111L140.832 74.9339C140.832 74.9339 142.509 76.0712 149.495 75.7462C154.982 75.5001 156.794 74.2692 157.318 73.7548L157.52 73.7425Z" fill="black"/>
<path opacity="0.5" d="M158.416 76.2656C152.188 79.6848 146.827 79.5913 146.827 79.5913C145.5 79.7538 134.684 76.3346 134.684 76.3346L135.257 73.4717L140.835 75.1505C140.835 75.1505 142.512 76.2878 149.498 75.9628C156.484 75.6379 157.51 73.7474 157.51 73.7474C157.828 73.8311 158.121 74.9167 158.416 76.2656Z" fill="#7ECB20"/>
<path opacity="0.1" d="M147.882 79.0738C148.196 79.0738 148.451 78.8192 148.451 78.5052C148.451 78.1911 148.196 77.9365 147.882 77.9365C147.568 77.9365 147.313 78.1911 147.313 78.5052C147.313 78.8192 147.568 79.0738 147.882 79.0738Z" fill="black"/>
<path opacity="0.5" d="M147.882 78.858C148.196 78.858 148.451 78.6034 148.451 78.2893C148.451 77.9753 148.196 77.7207 147.882 77.7207C147.568 77.7207 147.313 77.9753 147.313 78.2893C147.313 78.6034 147.568 78.858 147.882 78.858Z" stroke="#7ECB20" stroke-miterlimit="10"/>
<path opacity="0.1" d="M133.344 88.4707C133.344 88.4707 134.346 91.4493 135.05 91.3951C135.754 91.341 133.344 88.4707 133.344 88.4707Z" fill="black"/>
<path opacity="0.1" d="M132.694 91.3955C132.694 91.3955 133.317 93.1827 133.967 93.4805Z" fill="black"/>
<path opacity="0.1" d="M132.694 93.2627C132.694 93.2627 133.679 94.5083 134.262 94.8061Z" fill="black"/>
<path opacity="0.1" d="M159.134 82.001C159.134 82.001 160.054 83.3819 159.134 83.6798Z" fill="black"/>
<path opacity="0.1" d="M159.552 84.2458C158.484 82.978 159.144 85.9689 159.144 85.9689C159.144 85.9689 159.826 84.5707 159.552 84.2458Z" fill="black"/>
<path opacity="0.1" d="M160.092 85.79C160.092 85.79 158.467 88.2 158.792 88.4707Z" fill="black"/>
<path opacity="0.1" d="M138.6 82.0534C136.608 82.0534 134.531 81.1524 134.415 81.0983L134.504 80.8989C134.543 80.9186 138.519 82.6442 140.67 81.3493C141.482 80.857 141.938 79.9905 142.026 78.7646L142.243 78.7819C142.149 80.0816 141.657 80.9973 140.781 81.534C140.115 81.9023 139.361 82.0818 138.6 82.0534Z" fill="black"/>
<path opacity="0.5" d="M138.6 81.8356C136.608 81.8356 134.531 80.9347 134.415 80.8805L134.504 80.6836C134.543 80.7008 138.519 82.4264 140.67 81.1316C141.482 80.6393 141.938 79.7728 142.026 78.5469L142.243 78.5641C142.149 79.8639 141.657 80.7796 140.781 81.3162C140.115 81.6845 139.361 81.8641 138.6 81.8356Z" fill="#7ECB20"/>
<path opacity="0.1" d="M154.95 82.2155C154.44 82.2228 153.935 82.1142 153.473 81.898C151.858 81.1201 151.597 79.2148 151.585 79.1335L151.802 79.1064C151.802 79.1261 152.06 80.9798 153.569 81.7035C154.913 82.3509 156.821 81.9496 159.231 80.4727L159.342 80.6573C157.626 81.6961 156.156 82.2155 154.95 82.2155Z" fill="black"/>
<path opacity="0.5" d="M154.95 81.9987C154.44 82.006 153.935 81.8974 153.473 81.6811C151.858 80.9033 151.597 78.998 151.585 78.9167L151.802 78.8896C151.802 78.9093 152.06 80.7629 153.569 81.4867C154.913 82.1341 156.821 81.7328 159.231 80.2558L159.342 80.4405C157.626 81.4793 156.156 81.9987 154.95 81.9987Z" fill="#7ECB20"/>
<g opacity="0.5">
<path opacity="0.5" d="M144.148 118.979C144.148 118.979 148.304 117.325 150.101 119.343C151.898 121.362 148.87 123.818 148.87 123.818L147.6 126.354L144.611 126.027L143.907 122.521L144.148 118.979Z" fill="#7ECB20"/>
<path opacity="0.1" d="M148.87 123.807L147.6 126.342L144.611 126.025L143.907 122.522L144.153 118.98L144.22 118.955C144.747 118.76 148.304 117.52 150.005 119.228C150.04 119.261 150.074 119.295 150.106 119.332C151.898 121.34 148.87 123.807 148.87 123.807Z" fill="black"/>
<path opacity="0.1" d="M148.87 123.807L147.6 126.342L144.611 126.025L143.907 122.522L144.153 118.98L144.22 118.955C144.734 121.774 146.108 122.963 146.339 123.14L146.374 123.164L147.218 123.096C148.86 122.19 149.727 120.036 150.005 119.221C150.04 119.254 150.074 119.288 150.106 119.324C151.898 121.34 148.87 123.807 148.87 123.807Z" fill="black"/>
<path opacity="0.5" d="M156.127 133.461C156.127 133.461 155.211 145.124 155.46 146.532C155.708 147.94 154.93 148.046 154.93 148.046C154.93 148.046 151.617 148.785 150.992 148.292C150.366 147.8 149.301 147.704 149.301 147.704C149.301 147.704 146.839 148.268 145.741 147.847C144.643 147.426 142.817 147.601 142.817 147.601C142.817 147.601 141.409 148.448 141.02 148.27C140.631 148.093 140.138 148.164 139.011 147.849C137.884 147.534 137.248 147.249 137.847 145.311C138.445 143.374 137.92 137.242 137.884 136.501C137.847 135.76 137.497 133.966 137.002 131.824C136.508 129.682 137.847 130.133 137.847 130.133C140.985 128.513 139.681 125.34 139.188 123.932C138.696 122.524 139.469 122.455 139.855 122.455C140.242 122.455 141.724 121.187 141.724 121.187L142.324 120.648L144.156 119.004C144.611 122.083 146.088 123.376 146.334 123.568L146.369 123.595L147.213 123.523C149.256 122.398 150.101 119.339 150.101 119.339C150.347 119.757 150.896 120.235 151.509 120.678C152.311 121.245 153.147 121.763 154.012 122.229C155.489 123.11 154.401 123.991 154.401 123.991C152.604 130.121 155.14 130.391 155.14 130.391C157.008 130.667 156.127 133.461 156.127 133.461Z" fill="#7ECB20"/>
<path opacity="0.1" d="M142.28 122.468C142.28 122.468 141.751 122.751 141.751 123.066Z" fill="black"/>
<path opacity="0.1" d="M142.597 123.066C142.597 123.066 141.893 123.805 142.016 124.019Z" fill="black"/>
<path opacity="0.1" d="M142.598 124.021C142.598 124.021 142.069 124.584 142.28 124.902Z" fill="black"/>
<path opacity="0.1" d="M146.122 123.992L143.906 126.131C143.825 123.753 142.676 121.85 142.109 121.048L143.941 119.403C144.389 122.507 145.878 123.8 146.122 123.992Z" fill="black"/>
<path opacity="0.5" d="M146.334 123.568L144.119 125.71C144.04 123.329 142.888 121.429 142.324 120.624L144.156 118.979C144.611 122.084 146.088 123.376 146.334 123.568Z" fill="#7ECB20"/>
<path opacity="0.1" d="M151.72 121.093C150.834 122.477 149.187 126.13 149.187 126.13L147.425 123.946C149.468 122.819 150.312 119.762 150.312 119.762C150.558 120.17 151.107 120.648 151.72 121.093Z" fill="black"/>
<path opacity="0.5" d="M151.504 120.671C150.62 122.056 148.97 125.71 148.97 125.71L147.213 123.529C149.256 122.404 150.1 119.344 150.1 119.344C150.347 119.75 150.895 120.227 151.504 120.671Z" fill="#7ECB20"/>
<path opacity="0.1" d="M150.209 143.256C150.209 143.256 149.833 146.456 149.616 146.638Z" fill="black"/>
<path opacity="0.1" d="M153.309 143.819C153.309 143.819 153.732 146.109 153.555 146.638Z" fill="black"/>
<path opacity="0.1" d="M144.289 143.96C144.289 143.96 143.902 146.109 144.289 146.355Z" fill="black"/>
<path opacity="0.1" d="M142.001 143.643C142.001 143.643 141.681 146.181 141.755 146.638Z" fill="black"/>
<path opacity="0.1" d="M153.837 131.275C153.837 131.275 152.852 132.051 152.921 132.26Z" fill="black"/>
<path opacity="0.1" d="M154.541 131.771C154.541 131.771 152.655 133.356 153.598 133.179C154.541 133.001 154.541 131.771 154.541 131.771Z" fill="black"/>
</g>
<path d="M134.43 30.7602C134.43 30.7602 133.979 29.6353 137.017 29.9159C140.055 30.1965 148.776 31.1664 152.548 30.3171C156.319 29.4679 158.566 29.1971 158.342 30.3171C158.118 31.4372 151.816 33.9678 151.816 33.9678L143.656 34.8121L137.637 33.8545L134.405 31.9418L134.43 30.7602Z" fill="#7ECB20"/>
<path opacity="0.1" d="M158.35 30.3182C158.124 31.4382 151.824 33.9688 151.824 33.9688L143.664 34.8131L137.645 33.858L134.416 31.9453L134.438 30.7637C134.406 30.6664 134.406 30.5617 134.437 30.4642C134.468 30.3667 134.528 30.2812 134.61 30.2197C134.888 29.9735 135.538 29.7815 137.025 29.9194C140.065 30.2 148.784 31.1674 152.555 30.3182C155.627 29.6264 157.69 29.3187 158.217 29.8258C158.282 29.8879 158.329 29.9666 158.352 30.0534C158.376 30.1402 158.375 30.2318 158.35 30.3182Z" fill="black"/>
<path opacity="0.1" d="M158.35 30.3174C158.124 31.4375 151.824 33.968 151.824 33.968L143.664 34.8124L137.645 33.8573L134.416 31.9446L134.438 30.763C134.406 30.6657 134.406 30.561 134.437 30.4635C134.468 30.366 134.528 30.2805 134.61 30.219C135.681 30.5439 141.01 32.7865 141.01 32.7865L141.096 32.7988C141.252 32.8185 141.604 32.8628 142.098 32.9194C144.053 33.1335 148.171 33.4733 150.387 32.88C150.493 32.8505 150.591 32.8209 150.687 32.7865C150.854 32.7323 151.029 32.6708 151.209 32.6043C153.786 31.691 157.525 30.1254 158.217 29.835C158.28 29.8962 158.326 29.9732 158.349 30.0581C158.373 30.1429 158.373 30.2325 158.35 30.3174V30.3174Z" fill="black"/>
<path d="M227.367 119.921V120.993C227.367 120.993 229.297 127.857 226.938 127.857C224.579 127.857 223.721 121.208 223.721 121.208V119.921H227.367Z" fill="#FFB8B8"/>
<path d="M184.469 95.4688L184.898 93.7529C184.898 93.7529 187.257 88.3907 189.188 89.4631C191.118 90.5355 188.33 94.6109 188.33 94.6109L187.901 95.6833L184.469 95.4688Z" fill="#FFB8B8"/>
<path d="M198.196 172.256L198.625 175.902L202.701 176.546V171.827L198.196 172.256Z" fill="#FFB8B8"/>
<path d="M220.718 171.184L221.147 176.546L225.866 175.903L225.007 170.755L220.718 171.184Z" fill="#FFB8B8"/>
<path d="M196.265 130.431L195.407 130.645L197.766 153.381V173.758L203.772 172.685L206.775 136.865L215.998 154.453L220.502 172.256L227.58 170.969L221.789 148.662L217.928 127.428L196.265 130.431Z" fill="#2F2E41"/>
<path d="M200.555 174.615C200.555 174.615 198.625 173.329 197.981 174.187C197.338 175.044 194.55 179.334 194.55 179.334C194.55 179.334 187.686 186.412 194.55 186.198C194.55 186.198 199.054 186.198 199.912 183.624C199.912 183.624 200.126 182.337 201.628 182.337C203.129 182.337 204.845 180.836 204.845 179.978C204.845 179.12 203.344 174.788 202.7 175.452C202.057 176.117 200.555 174.615 200.555 174.615Z" fill="#2F2E41"/>
<path d="M223.584 174.615C223.584 174.615 225.514 173.329 226.158 174.187C226.801 175.044 229.589 179.334 229.589 179.334C229.589 179.334 236.453 186.412 229.589 186.198C229.589 186.198 225.085 186.198 224.227 183.624C224.227 183.624 224.013 182.337 222.511 182.337C221.01 182.337 219.294 180.836 219.294 179.978C219.294 179.12 220.795 174.788 221.439 175.452C222.082 176.117 223.584 174.615 223.584 174.615Z" fill="#2F2E41"/>
<path d="M196.802 94.3733C199.929 94.3733 202.464 91.8385 202.464 88.7116C202.464 85.5847 199.929 83.0498 196.802 83.0498C193.675 83.0498 191.141 85.5847 191.141 88.7116C191.141 91.8385 193.675 94.3733 196.802 94.3733Z" fill="#FFB8B8"/>
<path d="M196.373 93.2163L199.376 96.8625L204.738 92.3582L200.877 89.3555L196.373 93.2163Z" fill="#FFB8B8"/>
<path d="M197.981 96.9704L198.157 95.3831L204.178 91.9235L212.358 91.1473C212.61 91.1233 212.865 91.1494 213.108 91.224C213.351 91.2986 213.576 91.4202 213.772 91.582C213.968 91.7438 214.129 91.9426 214.248 92.1669C214.367 92.3913 214.44 92.6368 214.464 92.8895L217.5 125.069L218.572 127.857C218.572 127.857 199.697 138.581 195.407 130.645L198.625 113.915L191.976 101.26L197.981 96.9704Z" fill="#D0CDE1"/>
<path d="M212.567 91.6074C212.698 91.5856 212.827 91.5491 212.949 91.4985C213.343 91.3569 213.771 91.3461 214.171 91.4678C214.571 91.5896 214.921 91.8373 215.168 92.1741L224.793 105.335L228.44 120.563H223.292L219.86 110.268L214.283 102.975L212.567 91.6074Z" fill="#D0CDE1"/>
<path d="M193.692 100.831L191.976 101.26L186.828 105.764L188.544 95.4685L184.254 94.6104L180.93 111.877L183.289 114.236L196.695 108.767L193.692 100.831Z" fill="#D0CDE1"/>
<path d="M199.056 88.6936C199.056 88.6936 196.73 85.2784 195.399 86.4029C194.068 87.5275 190.336 89.7332 189.55 87.9872C188.764 86.2413 191.786 83.0427 194.067 82.278C196.347 81.5134 200.352 80.4972 201.608 83.869C202.364 86.0084 202.617 88.2933 202.345 90.5461L199.056 88.6936Z" fill="#2F2E41"/>
<defs>
<linearGradient id="paint0_linear" x1="12240.4" y1="92589.3" x2="12240.4" y2="40697.8" gradientUnits="userSpaceOnUse">
<stop stop-color="#808080" stop-opacity="0.25"/>
<stop offset="0.54" stop-color="#808080" stop-opacity="0.12"/>
<stop offset="1" stop-color="#808080" stop-opacity="0.1"/>
</linearGradient>
</defs>
</svg>
