<svg width="250" height="184" viewBox="0 0 250 184" fill="none" xmlns="http://www.w3.org/2000/svg">
<path opacity="0.1" d="M142.24 44.825C126.655 44.2832 111.813 39.253 97.6372 33.7484C83.4616 28.2439 69.4257 22.1445 54.2147 19.2285C44.4313 17.3527 33.244 17.0879 25.3604 22.3324C17.7753 27.389 15.324 36.0938 14.0045 44.1772C13.0148 50.2621 12.4297 56.6624 15.1483 62.3572C17.0337 66.3111 20.3831 69.634 22.6996 73.4217C30.7566 86.598 25.0618 102.847 16.3282 115.712C12.2347 121.747 7.48138 127.511 4.31975 133.931C1.15812 140.351 -0.303506 147.716 2.46081 154.271C5.20346 160.772 11.7362 165.646 18.8107 169.077C33.1838 176.046 50.114 178.042 66.6373 179.171C103.195 181.673 139.95 180.59 176.603 179.506C190.17 179.104 203.794 178.697 217.139 176.6C224.55 175.434 232.203 173.585 237.582 169.135C244.411 163.469 246.104 153.874 241.529 146.77C233.852 134.853 212.633 131.891 207.261 119.103C204.307 112.064 207.341 104.222 211.632 97.6938C220.84 83.6868 236.272 71.4015 237.086 55.391C237.645 44.3964 230.226 33.3848 218.754 28.1813C206.729 22.7273 190.056 23.4135 181.19 32.4409C172.05 41.726 155.999 45.3017 142.24 44.825Z" fill="#7ECB20"/>
<path d="M210.593 162.318L207.877 163.8L209.605 169.478L212.321 169.725L213.802 166.515L210.593 162.318Z" fill="#9F616A"/>
<path d="M218.986 173.674V176.389L223.183 176.142L223.125 173.906L218.986 173.674Z" fill="#9F616A"/>
<path d="M209.604 129.73L211.085 148.247L215.775 175.403L223.182 174.415L220.713 152.937L221.701 133.187L209.604 129.73Z" fill="#2F2E41"/>
<path d="M229.354 115.906L211.579 116.153L209.604 129.731L221.701 135.41L224.663 146.272L209.604 162.319L215.529 169.726C215.529 169.726 223.923 158.369 230.094 151.95C236.266 145.532 233.304 126.028 233.304 126.028L229.354 115.906Z" fill="#2F2E41"/>
<path d="M218.738 80.849C221.738 80.849 224.169 78.4173 224.169 75.4177C224.169 72.418 221.738 69.9863 218.738 69.9863C215.738 69.9863 213.307 72.418 213.307 75.4177C213.307 78.4173 215.738 80.849 218.738 80.849Z" fill="#9F616A"/>
<path d="M216.764 79.1211V84.5524L220.467 90.4775C220.467 90.4775 226.145 86.2806 224.911 85.2931C223.676 84.3056 223.429 76.6523 223.429 76.6523L216.764 79.1211Z" fill="#9F616A"/>
<path d="M216.762 83.5658L213.059 88.0095L214.54 118.869L226.143 118.622L228.118 91.7128L225.65 84.8001L223.956 82.4961L220.959 87.022L216.762 83.5658Z" fill="#D0CDE1"/>
<path d="M210.839 99.6115L208.124 109.98L210.839 120.349L206.395 126.274L202.445 107.512C202.445 107.512 205.408 92.2052 205.655 90.477C205.902 88.7488 206.395 88.502 206.395 88.502L208.37 88.7488L210.839 99.6115Z" fill="#2F2E41"/>
<path d="M230.588 103.562L232.316 106.771L232.81 112.202L231.822 118.374L235.279 124.053L238.735 108.499L235.032 88.502H233.55L230.588 103.562Z" fill="#2F2E41"/>
<path d="M209.604 162.07C209.604 162.07 206.148 163.058 204.914 163.305C203.679 163.552 205.654 168.242 205.654 168.242C205.654 168.242 206.889 174.661 207.136 175.896C207.382 177.13 209.111 181.327 211.333 181.821C213.554 182.314 212.073 173.18 212.073 173.18C212.073 173.18 213.061 170.217 213.061 169.23C213.061 168.242 211.579 168.736 211.579 168.736C207.629 168.242 209.604 162.07 209.604 162.07Z" fill="#2F2E41"/>
<path d="M217.751 181.081C217.998 182.562 217.505 182.562 221.455 183.056C225.405 183.55 224.417 180.341 224.417 180.341C224.252 178.827 223.921 177.337 223.43 175.897C222.689 173.922 218.739 176.39 218.739 176.39C218.739 176.39 217.505 179.6 217.751 181.081Z" fill="#2F2E41"/>
<path d="M223.434 76.8243L223.563 79.0198C223.563 79.0198 225.156 75.4174 225.403 71.7143C225.65 68.0111 221.453 67.2705 218.984 67.0236C216.515 66.7767 212.318 68.5049 212.318 70.4799C212.318 72.4549 216.762 71.9612 218.49 71.4674C220.218 70.9736 220.959 75.1706 220.959 75.1706L221.947 75.4175L223.434 76.8243Z" fill="#2F2E41"/>
<path d="M215.307 85.3127L216.764 83.5645L220.961 87.0206L216.764 89.9832L215.307 85.3127Z" fill="#D0CDE1"/>
<path d="M225.652 84.8L223.924 82.5781L220.961 87.0218L224.664 89.7376L225.652 84.8Z" fill="#D0CDE1"/>
<path d="M210.099 103.067L211.086 112.448L209.111 118.127L207.877 123.558C207.877 123.558 207.877 128.742 212.815 128.989C217.752 129.236 221.949 113.436 221.949 113.436C221.949 113.436 222.69 116.892 223.183 118.867C223.677 120.842 232.071 128.742 232.071 128.742C232.071 128.742 234.046 128.496 235.774 124.546C237.502 120.595 232.318 116.892 232.318 116.892L230.837 111.708L231.33 105.289L234.787 88.5013L224.541 83.1934L225.652 97.3889L221.949 108.498L216.394 83.934L214.543 85.2918L206.643 88.5013L210.099 103.067Z" fill="#2F2E41"/>
<path d="M191.491 181.616H189.4L190.097 140.74H190.794L191.491 181.616Z" fill="#E6E6E6"/>
<path d="M193.139 114.97L196.508 109.764C195.509 107.005 194.355 104.304 193.052 101.674L190.874 103.433L192.599 100.768C190.955 97.5326 189.662 95.4941 189.662 95.4941C189.662 95.4941 182.906 106.14 180.649 117.411L184.972 124.092L180.186 120.227C180.016 121.54 179.928 122.862 179.924 124.186C179.924 137.535 184.284 148.357 189.662 148.357C195.04 148.357 199.4 137.535 199.4 124.186C199.4 120.048 198.463 115.718 197.172 111.713L193.139 114.97Z" fill="#E6E6E6"/>
<path d="M138.551 181.616H136.461L137.158 140.74H137.854L138.551 181.616Z" fill="#E6E6E6"/>
<path d="M140.985 114.97L144.354 109.764C143.355 107.005 142.201 104.304 140.898 101.674L138.72 103.433L140.444 100.768C138.801 97.5326 137.507 95.4941 137.507 95.4941C137.507 95.4941 130.752 106.14 128.495 117.411L132.817 124.092L128.032 120.227C127.862 121.54 127.774 122.862 127.77 124.186C127.77 137.535 132.129 148.357 137.507 148.357C142.885 148.357 147.245 137.535 147.245 124.186C147.245 120.048 146.309 115.718 145.018 111.713L140.985 114.97Z" fill="#E6E6E6"/>
<path d="M164.528 181.49H160.348L161.741 97.416H163.135L164.528 181.49Z" fill="#E6E6E6"/>
<path d="M168.161 44.407L175.107 33.6731C173.047 27.9834 170.668 22.4144 167.981 16.9926L163.49 20.6201L167.046 15.1243C163.657 8.45318 160.991 4.25 160.991 4.25C160.991 4.25 147.061 26.2005 142.407 49.4411L151.32 63.2152L141.453 55.2459C141.102 57.9532 140.921 60.6799 140.912 63.4098C140.912 90.9344 149.902 113.248 160.991 113.248C172.08 113.248 181.069 90.9344 181.069 63.4098C181.069 54.8769 179.139 45.9497 176.476 37.6916L168.161 44.407Z" fill="#E6E6E6"/>
<path d="M144.232 38.5532C154.878 38.5532 163.508 29.9228 163.508 19.2766C163.508 8.63043 154.878 0 144.232 0C133.586 0 124.955 8.63043 124.955 19.2766C124.955 29.9228 133.586 38.5532 144.232 38.5532Z" fill="#E6E6E6"/>
<path d="M250 182.373H0V183.004H250V182.373Z" fill="#3F3D56"/>
<path d="M171.101 63.8412C171.101 63.8412 167.61 62.5942 165.365 67.5821C163.121 72.5701 159.629 78.0569 159.629 78.0569L161.624 78.5557C161.624 78.5557 162.123 75.0641 163.37 74.5653L162.871 79.0545C162.871 79.0545 177.835 84.2919 184.569 78.5557L184.319 76.8099C184.319 76.8099 185.317 77.0593 185.317 78.5557L186.065 77.8075C186.065 77.8075 185.317 76.3111 183.072 74.3159C181.599 73.0064 181.093 70.5149 180.919 68.9573C180.789 67.6566 180.268 66.4257 179.426 65.4259C177.934 63.6972 175.216 61.8598 171.101 63.8412Z" fill="#2F2E41"/>
<path d="M150.594 106.631L153.859 110.786L155.937 108.412L154.156 105.443L150.594 106.631Z" fill="#FBBEBE"/>
<path d="M149.408 170.447L148.221 176.68L151.189 178.165L153.267 176.68V170.447H149.408Z" fill="#FBBEBE"/>
<path d="M170.185 170.447L171.372 176.68L168.404 178.165L166.326 176.68V170.447H170.185Z" fill="#FBBEBE"/>
<path d="M158.016 114.35L153.86 144.032L147.924 171.043L155.048 171.933L160.687 146.703L167.811 125.332L166.92 150.859L165.437 171.933H170.779L174.638 143.438L178.905 122.252L178.793 114.35H158.016Z" fill="#2F2E41"/>
<path d="M150.299 176.087C150.299 176.087 148.815 174.306 147.924 175.197C147.034 176.087 144.956 179.649 144.956 179.649C144.956 179.649 140.207 182.32 144.066 182.914C147.924 183.508 149.112 182.914 149.112 182.617C149.112 182.32 149.705 181.43 149.705 181.43L151.189 181.727L153.267 181.133C153.267 181.133 154.158 175.664 153.267 175.876C152.377 176.087 150.596 176.978 150.299 176.087Z" fill="#2F2E41"/>
<path d="M169.294 176.087C169.294 176.087 170.778 174.306 171.668 175.197C172.559 176.087 174.636 179.649 174.636 179.649C174.636 179.649 179.386 182.32 175.527 182.914C171.668 183.508 170.481 182.914 170.481 182.617C170.481 182.32 169.887 181.43 169.887 181.43L168.403 181.727L166.325 181.133C166.325 181.133 165.435 175.664 166.325 175.876C167.216 176.087 168.997 176.978 169.294 176.087Z" fill="#2F2E41"/>
<path d="M172.116 79.1756C175.395 79.1756 178.053 76.5178 178.053 73.2392C178.053 69.9606 175.395 67.3027 172.116 67.3027C168.838 67.3027 166.18 69.9606 166.18 73.2392C166.18 76.5178 168.838 79.1756 172.116 79.1756Z" fill="#FBBEBE"/>
<path d="M176.121 76.9492C176.121 76.9492 175.528 81.9952 175.825 83.1825C176.121 84.3697 176.715 86.1507 176.715 86.1507L167.217 84.3698C167.217 84.3698 169.888 78.7301 169.295 77.8397C168.701 76.9492 176.121 76.9492 176.121 76.9492Z" fill="#FBBEBE"/>
<path d="M177.013 84.0738L167.218 81.9961L161.578 116.427C164.12 115.733 166.814 115.837 169.295 116.724C173.451 118.208 179.091 116.724 179.091 116.724L177.903 84.3707L177.013 84.0738Z" fill="#7ECB20"/>
<path d="M169.213 79.2676L165.734 81.1041L161.281 81.9946L156.532 93.2738L157.126 101.288C157.126 101.288 152.08 110.489 151.486 115.535C151.486 115.535 152.08 123.253 161.875 122.956L168.405 104.85C168.405 104.85 171.077 91.196 168.405 87.3374C168.405 87.3374 170.317 80.1024 169.213 79.2676Z" fill="#2F2E41"/>
<path d="M163.062 81.994L162.1 81.8301L161.281 81.994C161.281 81.994 159.203 82.2909 156.828 84.3686C154.454 86.4464 146.44 92.9764 145.846 94.7574C145.252 96.5383 145.549 99.5065 146.44 101.287C147.33 103.068 149.111 105.443 149.111 105.443L150.001 107.521L155.047 106.037C155.047 106.037 151.782 99.8033 152.079 97.1319L158.016 92.3828L163.062 81.994Z" fill="#2F2E41"/>
<path d="M175.793 80.6094L180.277 86.1499L182.651 89.1182L179.683 99.2101L178.199 107.818C178.199 107.818 181.761 121.472 178.793 125.627C178.793 125.627 177.012 127.705 176.418 125.33C175.824 122.956 175.824 111.677 175.824 111.677C175.824 111.677 173.45 96.8355 174.637 92.9768C175.824 89.1182 174.573 81.302 175.793 80.6094Z" fill="#2F2E41"/>
<path d="M179.98 123.551V126.519C179.98 126.519 179.386 136.314 182.355 135.127C185.323 133.94 183.245 126.519 183.245 126.519L182.948 123.254L179.98 123.551Z" fill="#FBBEBE"/>
<path d="M165.498 73.5546C167.755 71.9207 169.583 70.0389 170.792 67.8003C170.792 67.8003 174.935 72.4037 177.467 72.6339C179.998 72.8641 177.697 67.1098 177.697 67.1098L173.093 65.959L168.72 66.4193L165.268 68.721L165.498 73.5546Z" fill="#2F2E41"/>
<path d="M180.277 88.2285L182.651 89.119L182.948 92.0872L184.135 110.193L183.542 123.847L179.089 124.144L177.605 109.006L177.012 92.3842L180.277 88.2285Z" fill="#2F2E41"/>
<path d="M107.803 78.7917H107.199V58.6865C107.199 55.587 105.968 52.6145 103.776 50.4229C101.585 48.2313 98.6121 47 95.5126 47H52.6865C51.1518 47 49.6321 47.3023 48.2143 47.8896C46.7964 48.4769 45.5081 49.3377 44.4229 50.4229C43.3377 51.5081 42.4769 52.7964 41.8896 54.2143C41.3023 55.6321 41 57.1518 41 58.6865V169.523C41 171.057 41.3023 172.577 41.8896 173.995C42.4769 175.413 43.3377 176.701 44.4229 177.786C45.5081 178.871 46.7964 179.732 48.2143 180.32C49.6321 180.907 51.1518 181.209 52.6865 181.209H95.5126C98.6121 181.209 101.585 179.978 103.776 177.786C105.968 175.595 107.199 172.622 107.199 169.523V93.0778H107.803V78.7917Z" fill="#3F3D56"/>
<path d="M104.583 57.8843V169.261C104.583 171.576 103.663 173.796 102.026 175.433C100.39 177.069 98.1697 177.989 95.855 177.989H52.9465C50.6317 177.989 48.4118 177.069 46.775 175.433C45.1383 173.796 44.2188 171.576 44.2188 169.261V57.8843C44.2188 55.7979 45.0476 53.797 46.5229 52.3217C47.9981 50.8464 49.9991 50.0176 52.0854 50.0176H58.1435C57.9147 50.5898 57.8128 51.2048 57.8449 51.8202C57.8769 52.4356 58.0421 53.0367 58.3291 53.582C58.6784 54.1842 59.1732 54.6892 59.7682 55.0507C60.3631 55.4123 61.0392 55.6188 61.7346 55.6515H86.6988C87.3942 55.6189 88.0704 55.4123 88.6654 55.0507C89.2603 54.6891 89.7551 54.184 90.1044 53.5818C90.3912 53.0364 90.5564 52.4354 90.5884 51.82C90.6204 51.2047 90.5185 50.5897 90.2898 50.0176H96.716C98.8024 50.0176 100.803 50.8464 102.279 52.3217C103.754 53.797 104.583 55.7979 104.583 57.8843V57.8843Z" fill="white"/>
<path d="M97.8357 81.582H50.7969V86.2567H97.8357V81.582Z" fill="#7ECB20"/>
<path d="M97.8357 92.5957H50.7969V94.3662H97.8357V92.5957Z" fill="#E6E6E6"/>
<path d="M97.8357 97.9961H50.7969V99.7666H97.8357V97.9961Z" fill="#E6E6E6"/>
<path d="M75.1017 103.471H50.7969V105.241H75.1017V103.471Z" fill="#E6E6E6"/>
<path d="M97.8357 109.041H50.7969V110.812H97.8357V109.041Z" fill="#E6E6E6"/>
<path d="M97.8357 114.609H50.7969V116.38H97.8357V114.609Z" fill="#E6E6E6"/>
<path d="M74.2878 120.182H50.7969V121.952H74.2878V120.182Z" fill="#E6E6E6"/>
<path d="M97.8357 125.75H50.7969V127.521H97.8357V125.75Z" fill="#E6E6E6"/>
<path d="M97.8357 131.318H50.7969V133.089H97.8357V131.318Z" fill="#E6E6E6"/>
<path d="M97.8933 138.15H83.0391V143.034H97.8933V138.15Z" fill="#7ECB20"/>
<path d="M74.1566 116.718C73.6184 116.713 73.0741 116.71 72.5395 116.693L72.5561 116.154C73.0852 116.17 73.6262 116.178 74.1567 116.178C74.6896 116.178 75.2326 116.17 75.7712 116.152L75.7886 116.691C75.244 116.709 74.6951 116.718 74.1566 116.718ZM69.2975 116.49C68.2239 116.388 67.1396 116.25 66.0749 116.081L66.1599 115.548C67.2133 115.716 68.286 115.853 69.3484 115.953L69.2975 116.49ZM79.0302 116.484L78.9789 115.947C80.0408 115.846 81.1134 115.708 82.1668 115.538L82.2526 116.071C81.1878 116.242 80.1036 116.381 79.0302 116.484H79.0302ZM62.8849 115.465C61.8336 115.227 60.7759 114.951 59.7413 114.645L59.8941 114.128C60.9177 114.431 61.9641 114.703 63.0042 114.939L62.8849 115.465ZM85.4417 115.452L85.3219 114.926C86.3643 114.688 87.4104 114.414 88.431 114.111L88.5845 114.628C87.5529 114.935 86.4954 115.212 85.4417 115.452H85.4417ZM56.6566 113.624C55.6422 113.252 54.6273 112.842 53.64 112.405L53.8583 111.912C54.8349 112.344 55.8389 112.75 56.8425 113.118L56.6566 113.624ZM91.6676 113.603L91.4812 113.097C92.4786 112.73 93.4791 112.324 94.4549 111.891L94.6738 112.384C93.6872 112.822 92.6758 113.232 91.6676 113.603H91.6676ZM50.7094 110.993C49.7548 110.495 48.8015 109.958 47.8763 109.397L48.1559 108.935C49.0714 109.491 50.0145 110.022 50.9589 110.515L50.7094 110.993ZM97.5962 110.973L97.3466 110.495C98.2888 110.003 99.2297 109.472 100.143 108.917L100.423 109.378C99.4999 109.938 98.549 110.475 97.5962 110.973H97.5962ZM45.152 107.622C44.2678 107.005 43.3916 106.351 42.5473 105.678L42.8836 105.256C43.7189 105.922 44.5859 106.57 45.4606 107.18L45.152 107.622ZM103.143 107.603L102.834 107.161C103.708 106.55 104.574 105.903 105.407 105.237L105.744 105.659C104.902 106.331 104.026 106.985 103.143 107.603V107.603ZM40.0723 103.571C39.273 102.845 38.4872 102.085 37.7371 101.312L38.1242 100.936C38.8664 101.701 39.6439 102.454 40.4349 103.172L40.0723 103.571ZM108.216 103.552L107.853 103.153C108.642 102.436 109.419 101.684 110.163 100.917L110.55 101.292C109.799 102.067 109.013 102.828 108.216 103.552V103.552ZM35.5508 98.9089C34.851 98.0883 34.1687 97.2349 33.5226 96.3721L33.9543 96.0488C34.5936 96.9025 35.2686 97.7471 35.9611 98.5587L35.5508 98.9089ZM112.735 98.8865L112.325 98.5368C113.017 97.7244 113.693 96.8788 114.332 96.024L114.764 96.3469C114.118 97.2109 113.435 98.0654 112.735 98.8865V98.8865ZM31.6606 93.7113C31.0706 92.8078 30.5028 91.8748 29.973 90.9381L30.4425 90.6726C30.9666 91.5993 31.5284 92.5226 32.1122 93.4164L31.6606 93.7113ZM116.626 93.6821L116.174 93.3877C116.759 92.4921 117.32 91.5672 117.845 90.6384L118.314 90.9033C117.785 91.8424 117.216 92.7773 116.626 93.6821V93.6821ZM28.4669 88.0629C27.9977 87.0923 27.5543 86.0947 27.1493 85.0977L27.6489 84.8949C28.0497 85.8809 28.4883 86.8679 28.9525 87.828L28.4669 88.0629ZM119.821 88.0208L119.335 87.7864C119.799 86.8247 120.238 85.8351 120.639 84.8444L121.139 85.0466C120.734 86.0481 120.29 87.0488 119.821 88.0208V88.0208ZM26.0235 82.0501C25.6824 81.0257 25.3707 79.9778 25.0971 78.9355L25.6188 78.7986C25.8893 79.8296 26.1977 80.8663 26.5352 81.8794L26.0235 82.0501ZM122.263 81.9929L121.751 81.8233C122.086 80.8113 122.394 79.7743 122.664 78.7412L123.186 78.8776C122.913 79.922 122.602 80.9701 122.263 81.9929V81.9929ZM24.3735 75.7686C24.1675 74.7105 23.9932 73.6316 23.8553 72.5616L24.3901 72.4926C24.5265 73.5512 24.699 74.6186 24.9029 75.6654L24.3735 75.7686ZM123.905 75.7093L123.376 75.6072C123.578 74.5606 123.75 73.4928 123.885 72.4334L124.42 72.5018C124.283 73.5726 124.11 74.6517 123.905 75.7093V75.7093ZM23.5435 69.3283C23.4744 68.2533 23.4387 67.1607 23.4375 66.0808L23.9768 66.0802C23.978 67.1489 24.0133 68.2299 24.0818 69.2935L23.5435 69.3283ZM124.728 69.268L124.19 69.2338C124.257 68.1712 124.291 67.0902 124.291 66.0213L124.291 65.903H124.83L124.83 66.0194C124.83 67.1015 124.796 68.1938 124.728 69.268ZM24.0743 62.8675L23.536 62.8343C23.6029 61.7572 23.7052 60.6691 23.8401 59.6L24.3753 59.6674C24.2416 60.7255 24.1404 61.802 24.0743 62.8675ZM124.182 62.6905C124.112 61.6245 124.007 60.5482 123.87 59.4917L124.405 59.4222C124.543 60.49 124.65 61.5776 124.721 62.6552L124.182 62.6905ZM24.8804 56.4936L24.3508 56.3916C24.5542 55.3331 24.7952 54.267 25.0667 53.2229L25.5886 53.3585C25.32 54.3916 25.0817 55.4463 24.8804 56.4936ZM123.353 56.3196C123.148 55.2718 122.905 54.2179 122.634 53.1871L123.155 53.0496C123.43 54.0915 123.675 55.1567 123.882 56.2159L123.353 56.3196ZM26.4979 50.2755L25.9857 50.1065C26.3243 49.0817 26.7011 48.0537 27.106 47.051L27.6061 47.253C27.2055 48.2449 26.8328 49.2618 26.4979 50.2755ZM121.714 50.1074C121.375 49.0951 121 48.0811 120.597 47.0935L121.096 46.8899C121.503 47.8882 121.883 48.9132 122.225 49.9362L121.714 50.1074ZM28.907 44.3089L28.4208 44.075C28.8887 43.1025 29.3945 42.1321 29.9243 41.1909L30.3943 41.4556C29.8701 42.3866 29.3698 43.3466 28.907 44.3089ZM119.29 44.1618C118.825 43.2042 118.323 42.2477 117.797 41.319L118.266 41.0531C118.798 41.9916 119.306 42.9585 119.775 43.9266L119.29 44.1618ZM32.0613 38.7041L31.6091 38.4099C32.1973 37.5059 32.8229 36.6085 33.4683 35.743L33.9007 36.0654C33.2621 36.9218 32.6431 37.8095 32.0613 38.7041ZM116.124 38.5771C115.54 37.6858 114.919 36.8009 114.278 35.9469L114.71 35.6232C115.358 36.4865 115.985 37.3809 116.575 38.2817L116.124 38.5771ZM35.9045 33.5503L35.4937 33.2011C36.1922 32.3794 36.9265 31.5693 37.6762 30.7937L38.0642 31.1684C37.3223 31.9359 36.5958 32.7374 35.9045 33.5503ZM112.269 33.4392C111.575 32.6285 110.846 31.8294 110.103 31.0641L110.489 30.6883C111.241 31.4616 111.978 32.2693 112.678 33.0887L112.269 33.4392ZM40.3706 28.9291L40.0075 28.5304C40.8055 27.8034 41.6366 27.0936 42.4775 26.4208L42.8146 26.8418C41.9825 27.5076 41.1603 28.2099 40.3706 28.9291V28.9291ZM107.789 28.8313C106.998 28.1154 106.174 27.4151 105.338 26.7502L105.674 26.3281C106.518 27.0002 107.352 27.7078 108.151 28.4315L107.789 28.8313ZM45.386 24.9148L45.0765 24.4732C45.959 23.8548 46.8733 23.2568 47.7941 22.6959L48.0747 23.1565C47.1638 23.7115 46.2591 24.3031 45.386 24.9148ZM102.759 24.829C101.881 24.2179 100.973 23.6283 100.061 23.0765L100.341 22.6151C101.262 23.1727 102.18 23.7686 103.067 24.3863L102.759 24.829ZM50.8693 21.5744L50.6188 21.0967C51.5723 20.5966 52.555 20.1207 53.5396 19.6824L53.7589 20.1751C52.7848 20.6087 51.8127 21.0795 50.8693 21.5744ZM97.2565 21.5004C96.3094 21.0074 95.3334 20.5388 94.3555 20.1074L94.5733 19.6139C95.5616 20.0499 96.5482 20.5236 97.5056 21.0219L97.2565 21.5004ZM56.7314 18.9653L56.5441 18.4594C57.5554 18.0853 58.5923 17.7393 59.6262 17.4311L59.7802 17.948C58.7574 18.2528 57.7317 18.5952 56.7314 18.9653H56.7314ZM91.3699 18.9041C90.3675 18.5374 89.3404 18.1987 88.3174 17.8977L88.4696 17.3802C89.5037 17.6845 90.5419 18.0269 91.5553 18.3977L91.3699 18.9041ZM62.8883 17.1297L62.768 16.604C63.8172 16.3636 64.89 16.1541 65.9564 15.981L66.0427 16.5135C64.9877 16.6846 63.9264 16.8919 62.8883 17.1297ZM85.2062 17.0904C84.1663 16.8561 83.1043 16.6525 82.0496 16.4853L82.1341 15.9525C83.2001 16.1216 84.2736 16.3274 85.3247 16.5643L85.2062 17.0904ZM69.2302 16.1007L69.1781 15.564C70.2488 15.4601 71.3395 15.3891 72.4196 15.3532L72.4375 15.8922C71.3687 15.9278 70.2897 15.998 69.2302 16.1007V16.1007ZM78.8606 16.084C77.7996 15.9848 76.7202 15.9184 75.6527 15.8867L75.6688 15.3477C76.7476 15.3798 77.8385 15.4468 78.9108 15.547L78.8606 16.084Z" fill="#D0CDE1"/>
<path d="M72.2464 29.3482C79.2461 29.3482 84.9205 23.6738 84.9205 16.6741C84.9205 9.67439 79.2461 4 72.2464 4C65.2467 4 59.5723 9.67439 59.5723 16.6741C59.5723 23.6738 65.2467 29.3482 72.2464 29.3482Z" fill="#7ECB20"/>
<path d="M121.326 63.8638C128.326 63.8638 134.001 58.1894 134.001 51.1897C134.001 44.19 128.326 38.5156 121.326 38.5156C114.327 38.5156 108.652 44.19 108.652 51.1897C108.652 58.1894 114.327 63.8638 121.326 63.8638Z" fill="#7ECB20"/>
<path d="M105.953 116.719C112.953 116.719 118.628 111.045 118.628 104.045C118.628 97.0455 112.953 91.3711 105.953 91.3711C98.9537 91.3711 93.2793 97.0455 93.2793 104.045C93.2793 111.045 98.9537 116.719 105.953 116.719Z" fill="#7ECB20"/>
<path d="M45.012 118.876C52.0117 118.876 57.6861 113.201 57.6861 106.201C57.6861 99.2017 52.0117 93.5273 45.012 93.5273C38.0123 93.5273 32.3379 99.2017 32.3379 106.201C32.3379 113.201 38.0123 118.876 45.012 118.876Z" fill="#7ECB20"/>
<path d="M26.6741 63.8638C33.6738 63.8638 39.3482 58.1894 39.3482 51.1897C39.3482 44.19 33.6738 38.5156 26.6741 38.5156C19.6744 38.5156 14 44.19 14 51.1897C14 58.1894 19.6744 63.8638 26.6741 63.8638Z" fill="#7ECB20"/>
<path d="M77.6783 15.6644H73.2575C72.8555 15.6644 72.47 15.5047 72.1857 15.2204C71.9015 14.9362 71.7418 14.5506 71.7418 14.1487V9.72787C71.7418 9.71128 71.7385 9.69486 71.7322 9.67953C71.7258 9.66421 71.7165 9.65028 71.7048 9.63855C71.6931 9.62683 71.6791 9.61752 71.6638 9.61117C71.6485 9.60483 71.6321 9.60156 71.6155 9.60156H68.7104C68.1744 9.60156 67.6604 9.81448 67.2814 10.1935C66.9024 10.5725 66.6895 11.0865 66.6895 11.6225V21.7271C66.6895 22.2631 66.9024 22.7772 67.2814 23.1562C67.6604 23.5352 68.1744 23.7481 68.7104 23.7481H75.7837C76.3197 23.7481 76.8337 23.5352 77.2127 23.1562C77.5917 22.7772 77.8046 22.2631 77.8046 21.7271V15.7907C77.8046 15.7741 77.8013 15.7576 77.795 15.7423C77.7886 15.727 77.7793 15.7131 77.7676 15.7013C77.7559 15.6896 77.7419 15.6803 77.7266 15.674C77.7113 15.6676 77.6949 15.6644 77.6783 15.6644V15.6644ZM74.7732 20.7167H69.7209C69.5869 20.7167 69.4583 20.6634 69.3636 20.5687C69.2688 20.474 69.2156 20.3454 69.2156 20.2114C69.2156 20.0774 69.2688 19.9489 69.3636 19.8542C69.4583 19.7594 69.5869 19.7062 69.7209 19.7062H74.7732C74.9072 19.7062 75.0357 19.7594 75.1304 19.8542C75.2252 19.9489 75.2784 20.0774 75.2784 20.2114C75.2784 20.3454 75.2252 20.474 75.1304 20.5687C75.0357 20.6634 74.9072 20.7167 74.7732 20.7167ZM74.7732 18.1905H69.7209C69.5869 18.1905 69.4583 18.1373 69.3636 18.0425C69.2688 17.9478 69.2156 17.8193 69.2156 17.6853C69.2156 17.5513 69.2688 17.4228 69.3636 17.328C69.4583 17.2333 69.5869 17.1801 69.7209 17.1801H74.7732C74.9072 17.1801 75.0357 17.2333 75.1304 17.328C75.2252 17.4228 75.2784 17.5513 75.2784 17.6853C75.2784 17.8193 75.2252 17.9478 75.1304 18.0425C75.0357 18.1373 74.9072 18.1905 74.7732 18.1905Z" fill="white"/>
<path d="M77.4027 14.5458L72.8616 10.0047C72.8528 9.99591 72.8415 9.98994 72.8293 9.98753C72.8171 9.98511 72.8044 9.98636 72.7929 9.99112C72.7814 9.99588 72.7716 10.0039 72.7646 10.0143C72.7577 10.0246 72.754 10.0368 72.7539 10.0492V14.1482C72.7539 14.2822 72.8071 14.4107 72.9019 14.5055C72.9966 14.6002 73.1251 14.6535 73.2591 14.6535H77.3581C77.3706 14.6534 77.3827 14.6497 77.3931 14.6427C77.4034 14.6358 77.4115 14.626 77.4162 14.6144C77.421 14.6029 77.4222 14.5903 77.4198 14.5781C77.4174 14.5658 77.4114 14.5546 77.4027 14.5458L77.4027 14.5458Z" fill="white"/>
<path d="M107.787 101.547C107.631 101.547 107.481 101.601 107.361 101.7C107.24 101.798 107.158 101.935 107.128 102.088C107.098 102.24 107.121 102.398 107.195 102.535C107.268 102.672 107.387 102.78 107.53 102.839C107.674 102.899 107.833 102.906 107.982 102.861C108.131 102.816 108.259 102.721 108.346 102.591C108.432 102.462 108.471 102.307 108.455 102.152C108.44 101.998 108.372 101.853 108.262 101.743C108.199 101.681 108.125 101.632 108.044 101.598C107.962 101.564 107.875 101.547 107.787 101.547Z" fill="white"/>
<path d="M111.528 98.8607V98.8584C111.506 98.7651 111.46 98.6796 111.392 98.6116C111.325 98.5436 111.24 98.4957 111.147 98.4734C110.397 98.2904 109.217 98.4855 107.91 99.0089C106.653 99.4976 105.502 100.226 104.523 101.154C104.256 101.42 104.007 101.704 103.779 102.005C103.277 101.97 102.772 102.051 102.306 102.242C100.852 102.881 100.437 104.518 100.327 105.19C100.311 105.285 100.317 105.383 100.345 105.476C100.373 105.568 100.422 105.653 100.489 105.724C100.555 105.794 100.636 105.849 100.727 105.883C100.818 105.917 100.915 105.929 101.011 105.919H101.015L102.633 105.743C102.635 105.763 102.637 105.782 102.639 105.8C102.66 105.997 102.748 106.181 102.888 106.321L103.678 107.112C103.818 107.252 104.002 107.34 104.2 107.361L104.254 107.367L104.077 108.983V108.987C104.069 109.069 104.077 109.152 104.1 109.231C104.124 109.31 104.163 109.384 104.215 109.448C104.267 109.512 104.331 109.565 104.404 109.605C104.477 109.644 104.556 109.669 104.639 109.677C104.658 109.679 104.677 109.68 104.697 109.68C104.732 109.68 104.767 109.678 104.801 109.672C105.477 109.563 107.113 109.153 107.75 107.692C107.939 107.227 108.021 106.725 107.988 106.224C108.29 105.997 108.576 105.748 108.843 105.481C109.77 104.51 110.499 103.369 110.989 102.12C111.51 100.828 111.706 99.6393 111.528 98.8607ZM108.834 103.262C108.627 103.469 108.363 103.61 108.076 103.667C107.79 103.724 107.492 103.695 107.222 103.583C106.952 103.471 106.721 103.282 106.558 103.039C106.395 102.796 106.308 102.51 106.308 102.217C106.308 101.925 106.395 101.639 106.557 101.395C106.719 101.152 106.95 100.962 107.221 100.85C107.491 100.738 107.788 100.709 108.075 100.766C108.362 100.823 108.626 100.963 108.832 101.17L108.834 101.171C109.111 101.444 109.268 101.816 109.271 102.205C109.274 102.594 109.122 102.969 108.849 103.246L108.834 103.262Z" fill="white"/>
<path d="M103.588 107.326C103.491 107.314 103.392 107.338 103.311 107.394C103.15 107.504 102.989 107.612 102.826 107.718C102.755 107.764 102.671 107.784 102.587 107.776C102.503 107.768 102.425 107.732 102.364 107.674C102.303 107.616 102.263 107.54 102.251 107.456C102.239 107.373 102.255 107.288 102.297 107.215L102.603 106.687C102.647 106.623 102.671 106.547 102.673 106.47C102.675 106.393 102.655 106.316 102.615 106.25C102.574 106.184 102.516 106.131 102.446 106.097C102.376 106.063 102.298 106.05 102.221 106.06C101.882 106.103 101.567 106.257 101.325 106.499C101.233 106.591 100.953 106.872 100.802 107.94C100.759 108.247 100.732 108.556 100.721 108.865C100.719 108.918 100.729 108.971 100.748 109.02C100.766 109.07 100.795 109.115 100.831 109.153C100.868 109.191 100.911 109.222 100.96 109.244C101.008 109.265 101.06 109.277 101.113 109.278C101.117 109.278 101.12 109.278 101.123 109.278H101.134C101.443 109.267 101.753 109.24 102.06 109.198C103.128 109.047 103.409 108.766 103.501 108.674C103.744 108.432 103.898 108.115 103.939 107.775C103.951 107.669 103.922 107.562 103.856 107.478C103.79 107.394 103.694 107.34 103.588 107.326V107.326Z" fill="white"/>
<path d="M40.65 113.09H39.7317C39.549 113.09 39.3738 113.017 39.2447 112.888C39.1155 112.759 39.043 112.584 39.043 112.401V108.269C39.043 108.086 39.1155 107.911 39.2447 107.782C39.3738 107.653 39.549 107.58 39.7317 107.58H40.65C40.8326 107.58 41.0078 107.653 41.137 107.782C41.2661 107.911 41.3387 108.086 41.3387 108.269V112.401C41.3387 112.584 41.2661 112.759 41.137 112.888C41.0078 113.017 40.8326 113.09 40.65 113.09V113.09Z" fill="white"/>
<path d="M47.0757 113.089H46.1575C45.9748 113.089 45.7996 113.016 45.6705 112.887C45.5413 112.758 45.4688 112.583 45.4688 112.4V105.513C45.4688 105.33 45.5413 105.155 45.6705 105.026C45.7996 104.897 45.9748 104.824 46.1575 104.824H47.0757C47.2584 104.824 47.4336 104.897 47.5627 105.026C47.6919 105.155 47.7645 105.33 47.7645 105.513V112.4C47.7645 112.583 47.6919 112.758 47.5627 112.887C47.4336 113.016 47.2584 113.089 47.0757 113.089V113.089Z" fill="white"/>
<path d="M50.2925 113.09H49.3743C49.1916 113.09 49.0164 113.017 48.8873 112.888C48.7581 112.759 48.6855 112.584 48.6855 112.401V102.3C48.6855 102.117 48.7581 101.942 48.8873 101.813C49.0164 101.684 49.1916 101.611 49.3743 101.611H50.2925C50.4752 101.611 50.6504 101.684 50.7795 101.813C50.9087 101.942 50.9813 102.117 50.9813 102.3V112.401C50.9813 112.584 50.9087 112.759 50.7795 112.888C50.6504 113.017 50.4752 113.09 50.2925 113.09V113.09Z" fill="white"/>
<path d="M43.8648 113.089H42.9465C42.7639 113.089 42.5887 113.016 42.4595 112.887C42.3304 112.758 42.2578 112.583 42.2578 112.4V100.003C42.2578 99.8205 42.3304 99.6453 42.4595 99.5162C42.5887 99.387 42.7639 99.3145 42.9465 99.3145H43.8648C44.0475 99.3145 44.2226 99.387 44.3518 99.5162C44.481 99.6453 44.5535 99.8205 44.5535 100.003V112.4C44.5535 112.49 44.5357 112.58 44.5011 112.664C44.4665 112.747 44.4158 112.823 44.3518 112.887C44.2878 112.951 44.2119 113.002 44.1284 113.036C44.0448 113.071 43.9552 113.089 43.8648 113.089V113.089Z" fill="white"/>
<path d="M121.934 50.8587L121.278 50.2024C121.128 50.0521 120.924 49.9674 120.712 49.9668C120.499 49.9662 120.295 50.0498 120.144 50.1994L115.583 54.4089C115.415 54.5571 115.313 54.7652 115.298 54.9883C115.293 55.0991 115.311 55.2097 115.351 55.3132C115.391 55.4167 115.451 55.5108 115.529 55.5898L116.509 56.5806L116.511 56.5823C116.662 56.7333 116.867 56.8183 117.081 56.819H117.111C117.221 56.8128 117.33 56.7848 117.43 56.7366C117.53 56.6885 117.619 56.6211 117.693 56.5384L121.932 51.9979C122.083 51.8478 122.169 51.6437 122.17 51.4304C122.17 51.2172 122.087 51.0123 121.937 50.8608L121.934 50.8587Z" fill="white"/>
<path d="M127.205 49.5327L127.197 49.5249L126.336 48.6726C126.286 48.6223 126.226 48.5825 126.16 48.5555C126.094 48.5285 126.023 48.5148 125.952 48.5153C125.837 48.5154 125.724 48.5518 125.631 48.6193C125.631 48.6085 125.632 48.5979 125.633 48.5886C125.668 48.3686 125.621 48.1433 125.502 47.9549C125.313 47.6992 125.104 47.4579 124.879 47.2328L124.877 47.2308C124.248 46.6268 123.508 46.1496 122.698 45.8252C122.275 45.6515 121.822 45.5623 121.364 45.5626C120.772 45.5572 120.197 45.7588 119.737 46.1325C119.607 46.2574 119.487 46.3938 119.381 46.54C119.33 46.6101 119.304 46.6947 119.305 46.7813C119.306 46.8679 119.335 46.9517 119.388 47.0204C119.44 47.0891 119.514 47.139 119.597 47.1627C119.68 47.1863 119.769 47.1824 119.85 47.1516C119.92 47.1253 119.992 47.1032 120.065 47.0855C120.218 47.0533 120.374 47.0436 120.529 47.0566C120.851 47.0902 121.159 47.2032 121.426 47.3856C121.575 47.5116 121.695 47.6701 121.774 47.849C121.853 48.0278 121.891 48.2224 121.885 48.418C121.773 48.7358 121.602 49.0297 121.382 49.2844C121.323 49.3619 121.295 49.458 121.301 49.5551C121.308 49.6521 121.35 49.7434 121.418 49.8121L122.283 50.6767C122.356 50.7495 122.454 50.7917 122.556 50.7946C122.659 50.7975 122.759 50.7609 122.836 50.6923C123.08 50.4739 123.453 50.1447 123.583 50.0641C123.694 49.9896 123.82 49.9399 123.952 49.9183C124.051 49.9087 124.15 49.9296 124.236 49.9782C124.236 49.9825 124.236 49.9868 124.235 49.9909C124.233 49.995 124.231 49.9988 124.228 50.002L124.182 50.0455L124.175 50.0525C124.073 50.1537 124.016 50.2912 124.016 50.4346C124.015 50.578 124.072 50.7156 124.173 50.8172L124.176 50.8199L125.037 51.6719C125.087 51.7222 125.147 51.7619 125.213 51.7889C125.279 51.8158 125.35 51.8295 125.421 51.829C125.564 51.8292 125.701 51.7733 125.803 51.6732L127.198 50.2957C127.203 50.291 127.207 50.286 127.212 50.2809C127.305 50.1784 127.357 50.0442 127.355 49.9054C127.354 49.7666 127.3 49.6334 127.205 49.5327Z" fill="white"/>
<path d="M28.6847 50.4367C28.5852 50.4367 28.4879 50.4072 28.4052 50.3519C28.3225 50.2967 28.258 50.2181 28.2199 50.1262C28.1819 50.0342 28.1719 49.9331 28.1913 49.8355C28.2107 49.7379 28.2586 49.6483 28.329 49.5779L29.4825 48.4244L28.329 47.2709C28.2346 47.1766 28.1816 47.0486 28.1816 46.9152C28.1816 46.7818 28.2346 46.6538 28.329 46.5595C28.4233 46.4651 28.5513 46.4121 28.6847 46.4121C28.8181 46.4121 28.9461 46.4651 29.0404 46.5595L30.5497 48.0687C30.5964 48.1154 30.6334 48.1709 30.6587 48.2319C30.684 48.2929 30.697 48.3583 30.697 48.4244C30.697 48.4905 30.684 48.5559 30.6587 48.6169C30.6334 48.678 30.5964 48.7334 30.5497 48.7801L29.0404 50.2894C28.9938 50.3362 28.9383 50.3733 28.8773 50.3986C28.8162 50.4238 28.7508 50.4368 28.6847 50.4367Z" fill="white"/>
<path d="M20.6359 51.9465C20.5698 51.9465 20.5044 51.9335 20.4434 51.9082C20.3823 51.8829 20.3269 51.8459 20.2802 51.7991C20.2334 51.7524 20.1964 51.697 20.1711 51.6359C20.1458 51.5749 20.1328 51.5095 20.1328 51.4434V50.9403C20.1368 50.1413 20.4558 49.376 21.0207 48.8108C21.5856 48.2457 22.3507 47.9262 23.1498 47.9219H29.6913C29.8247 47.9219 29.9527 47.9749 30.047 48.0692C30.1414 48.1636 30.1944 48.2915 30.1944 48.4249C30.1944 48.5584 30.1414 48.6863 30.047 48.7807C29.9527 48.875 29.8247 48.928 29.6913 48.928H23.1513C22.6183 48.9312 22.1081 49.1444 21.7313 49.5214C21.3546 49.8985 21.1417 50.4089 21.139 50.9418V51.4434C21.139 51.5095 21.126 51.5749 21.1007 51.6359C21.0754 51.697 21.0383 51.7524 20.9916 51.7991C20.9449 51.8459 20.8895 51.8829 20.8284 51.9082C20.7674 51.9335 20.702 51.9465 20.6359 51.9465V51.9465Z" fill="white"/>
<path d="M24.6627 55.9716C24.5966 55.9716 24.5312 55.9587 24.4701 55.9334C24.4091 55.9081 24.3537 55.871 24.307 55.8242L22.7978 54.315C22.751 54.2683 22.714 54.2128 22.6887 54.1518C22.6634 54.0907 22.6504 54.0253 22.6504 53.9592C22.6504 53.8932 22.6634 53.8278 22.6887 53.7667C22.714 53.7057 22.751 53.6502 22.7978 53.6035L24.307 52.0943C24.4014 52.0001 24.5293 51.9472 24.6626 51.9473C24.796 51.9473 24.9238 52.0003 25.0181 52.0946C25.1124 52.1889 25.1654 52.3168 25.1654 52.4501C25.1655 52.5834 25.1126 52.7114 25.0184 52.8057L23.865 53.9592L25.0184 55.1128C25.0888 55.1831 25.1367 55.2728 25.1561 55.3703C25.1755 55.4679 25.1656 55.5691 25.1275 55.661C25.0894 55.7529 25.0249 55.8315 24.9422 55.8868C24.8595 55.942 24.7622 55.9716 24.6627 55.9716Z" fill="white"/>
<path d="M23.6554 54.4621C23.522 54.4621 23.394 54.4091 23.2997 54.3148C23.2053 54.2204 23.1523 54.0925 23.1523 53.959C23.1523 53.8256 23.2053 53.6977 23.2997 53.6033C23.394 53.509 23.522 53.456 23.6554 53.456H30.1954C30.7284 53.4528 31.2386 53.2396 31.6154 52.8626C31.9921 52.4855 32.205 51.9751 32.2077 51.4421V50.9406C32.2077 50.8072 32.2607 50.6792 32.3551 50.5848C32.4494 50.4905 32.5774 50.4375 32.7108 50.4375C32.8442 50.4375 32.9722 50.4905 33.0666 50.5848C33.1609 50.6792 33.2139 50.8072 33.2139 50.9406V51.4437C33.21 52.2427 32.8909 53.008 32.326 53.5732C31.7611 54.1383 30.996 54.4578 30.1969 54.4621L23.6554 54.4621Z" fill="white"/>
</svg>
