<svg width="250" height="167" viewBox="0 0 250 167" fill="none" xmlns="http://www.w3.org/2000/svg">
<g clip-path="url(#clip0)">
<path opacity="0.1" d="M148.146 26.825C132.562 26.2832 117.719 21.253 103.543 15.7484C89.3679 10.2439 75.332 4.14455 60.121 1.22853C50.3375 -0.647264 39.1502 -0.912138 31.2666 4.33237C23.6816 9.38905 21.2303 18.0938 19.9107 26.1772C18.9211 32.2621 18.3359 38.6624 21.0545 44.3572C22.9399 48.3111 26.2894 51.634 28.6058 55.4217C36.6628 68.598 30.968 84.8468 22.2344 97.7125C18.1409 103.747 13.3876 109.511 10.226 115.931C7.06437 122.351 5.60274 129.716 8.36706 136.271C11.1097 142.772 17.6425 147.646 24.717 151.077C39.09 158.046 56.0203 160.042 72.5436 161.171C109.101 163.673 145.856 162.59 182.51 161.506C196.076 161.104 209.7 160.697 223.045 158.6C230.457 157.434 238.109 155.585 243.488 151.135C250.317 145.469 252.01 135.874 247.435 128.77C239.758 116.853 218.54 113.891 213.167 101.103C210.213 94.0644 213.247 86.2217 217.538 79.6938C226.746 65.6868 242.178 53.4015 242.992 37.391C243.551 26.3964 236.132 15.3848 224.661 10.1813C212.635 4.72727 195.963 5.41353 187.097 14.4409C177.956 23.726 161.905 27.3017 148.146 26.825Z" fill="#7ECB20"/>
<path d="M108.053 156.876C107.812 156.005 107.571 155.123 107.09 154.365C106.643 153.722 106.113 153.141 105.512 152.638C103.767 151.054 101.624 149.445 99.3096 149.845C98.5939 150.003 97.9024 150.256 97.2532 150.596C96.9161 150.753 96.5766 150.909 96.2299 151.042C95.2538 151.45 94.1749 151.544 93.1429 151.312C92.6131 151.17 92.1195 150.914 91.597 150.755C91.3489 150.681 91.0952 150.626 90.8385 150.592C91.3433 150.366 91.8331 150.107 92.3049 149.819C94.9007 148.229 96.9715 145.357 96.6825 142.284C96.5838 141.251 96.2299 140.262 95.8783 139.286L94.9536 136.729C94.5539 135.621 94.1398 134.492 93.4102 133.572C92.5987 132.546 91.4429 131.851 90.2485 131.333C87.6841 130.218 84.8812 129.826 82.1145 129.445L81.9219 129.419V99.5288C81.9219 99.0179 81.7189 98.5279 81.3576 98.1666C80.9964 97.8054 80.5064 97.6024 79.9955 97.6024H76.3595C76.199 96.62 76.0384 95.6391 75.8779 94.6599C75.4204 91.8643 74.946 89.0181 73.6578 86.5018C72.815 84.8547 71.4738 83.2824 69.6654 82.9597C69.31 82.9276 68.9608 82.8466 68.6276 82.7189C68.0978 82.4588 67.8089 81.8809 67.4019 81.4547C66.3521 80.3543 64.6449 80.3374 63.2386 79.7692C61.9961 79.2755 60.98 78.3461 59.8482 77.6309C58.7165 76.9158 57.3103 76.4077 56.0581 76.8724C56.0581 76.9639 56.0413 77.0554 56.0316 77.1445L55.2274 76.7737C54.3605 76.3716 53.4768 75.9598 52.7809 75.3C51.8876 74.4572 51.4108 73.34 51.04 72.1528C51.0014 72.03 50.9653 71.912 50.9268 71.7796C52.4659 70.2094 53.5079 68.2201 53.9223 66.0607L54.1173 66.694C54.1612 66.8363 54.2127 66.9762 54.2714 67.113C54.371 67.3776 54.5368 67.6123 54.753 67.7945C54.8147 67.8429 54.8828 67.8826 54.9553 67.9125C55.0218 67.9388 55.0914 67.9566 55.1624 67.9654C55.2624 67.9778 55.3638 67.9704 55.4609 67.9438C55.6238 67.8933 55.7732 67.807 55.8982 67.6912C56.0233 67.5753 56.1207 67.4329 56.1833 67.2743C56.2217 67.1797 56.25 67.0812 56.2676 66.9806C56.2769 66.92 56.2825 66.8589 56.2845 66.7976C56.2845 66.7783 56.2845 66.759 56.2845 66.7398C56.2845 66.7205 56.2845 66.6555 56.2845 66.6146C56.2845 66.5736 56.2845 66.5712 56.2845 66.5471C56.2845 66.5231 56.2845 66.4677 56.2724 66.4267V66.3641C56.2724 66.316 56.258 66.2678 56.2483 66.2221C56.2387 66.1763 56.2483 66.1956 56.2483 66.1836C56.2363 66.1234 56.2219 66.0607 56.2098 66.0005C56.2098 65.9861 56.2098 65.9692 56.2098 65.9548C56.2098 65.9403 56.1881 65.8561 56.1761 65.8055C56.1641 65.7549 56.1592 65.7405 56.152 65.7068V65.6923C56.1279 65.596 56.1063 65.5021 56.0846 65.4058C55.9096 64.5701 55.8649 63.7123 55.9522 62.863C56.0963 61.6165 56.3264 60.3815 56.6408 59.1668L56.6914 58.9477C56.7107 58.8634 56.7299 58.7791 56.7468 58.6924C56.7853 58.5191 56.8238 58.3457 56.86 58.1699L56.9467 57.7268L57.0117 57.3319V57.2814C57.1468 56.3865 57.1751 55.4788 57.0959 54.5773V54.5773C56.9852 53.3179 56.5951 52.126 55.7403 51.1772C55.1359 50.5054 54.3388 50.0094 53.7778 49.3039C53.2529 48.6441 52.9567 47.8302 52.4125 47.1825C50.9099 45.3885 47.0524 44.0064 44.6854 43.7656C41.9741 43.4911 37.594 44.1846 35.4076 45.7858C34.5985 46.3758 34.0447 47.2306 33.4812 48.0397C32.4458 49.5447 31.2707 51.0472 29.6117 51.8924C28.9856 52.2102 28.268 52.451 27.8515 53.0049C27.6036 53.3803 27.4432 53.8065 27.3819 54.2522C27.0629 55.82 26.8968 57.4152 26.8859 59.0151V59.0151C26.8859 59.215 26.8859 59.4148 26.8859 59.6171C26.8908 60.217 27.0187 60.8095 27.2615 61.358C27.3 61.4399 27.3434 61.5194 27.3891 61.5988L27.418 61.6494C27.7093 62.0657 27.9669 62.5045 28.1886 62.9617C28.2438 63.0897 28.2834 63.224 28.3066 63.3614C28.3478 63.7142 28.325 64.0715 28.2391 64.4161V64.4161C28.2391 64.4691 28.2175 64.5221 28.2078 64.575L28.1862 64.6786C28.1862 64.7147 28.1862 64.7508 28.1669 64.7845C28.1476 64.8881 28.1308 64.9916 28.1163 65.0928C28.0798 65.3713 28.0978 65.6542 28.1693 65.9259C28.2023 66.0773 28.267 66.2199 28.3591 66.3444C28.4513 66.4689 28.5688 66.5725 28.7039 66.6483C28.841 66.7141 28.987 66.7595 29.1373 66.7831C29.289 66.8096 29.4431 66.8265 29.5924 66.8602C29.7844 66.9039 29.9698 66.9728 30.1438 67.0649C30.3106 67.1446 30.4667 67.245 30.6086 67.3634C30.6787 67.4272 30.7455 67.4948 30.8084 67.5657C30.9356 67.7113 31.05 67.8676 31.1503 68.0329C31.2017 68.1179 31.2499 68.2046 31.2948 68.2929C31.4674 68.6414 31.6053 69.0059 31.7066 69.3813C31.7692 69.6052 31.8222 69.8316 31.8679 70.0579C31.8896 70.1591 31.9088 70.2602 31.9257 70.3589C31.9426 70.4577 31.9594 70.5588 31.9739 70.6575C32.0396 70.6538 32.1044 70.6408 32.1665 70.619C32.5205 70.4914 32.7179 70.0796 32.8287 69.6799C32.8479 69.6125 32.8648 69.5474 32.8792 69.4824C32.9346 69.2416 32.9924 68.9768 33.0478 68.7239C33.997 70.7395 35.5274 72.4251 37.4423 73.5639C37.5097 73.7638 37.5747 73.9612 37.6325 74.1635C37.948 75.2543 38.0997 76.3956 37.5531 77.3492C37.163 78.0258 36.508 78.4424 35.776 78.7313C35.6705 78.5907 35.5347 78.4755 35.3787 78.3942C34.7454 78.0764 33.9845 78.4617 33.4523 78.936C32.4892 79.8077 31.7042 81.0574 30.4376 81.344C29.9801 81.4499 29.4744 81.4282 29.094 81.7076C28.8423 81.9442 28.6316 82.2208 28.4703 82.5263C28.1955 82.921 27.8259 83.2402 27.3954 83.4548C26.965 83.6694 26.4876 83.7724 26.007 83.7543C25.5663 83.7326 25.0438 83.6315 24.7428 83.9542C24.5189 84.195 24.502 84.5754 24.2612 84.8042C23.9386 85.122 23.4088 84.9679 22.9585 84.9487C22.1013 84.9125 21.3043 85.4664 20.8154 86.1767C20.3266 86.8871 20.0931 87.7371 19.8523 88.5847V88.5991C19.7905 88.6441 19.7318 88.6932 19.6765 88.746C19.443 88.9947 19.262 89.2879 19.1443 89.608C17.197 94.0417 16.0476 98.7842 15.7491 103.617C15.7539 103.853 15.701 104.086 15.595 104.296C15.4873 104.434 15.3689 104.563 15.2411 104.682C15.1266 104.822 15.0415 104.983 14.9907 105.157C14.9399 105.331 14.9245 105.513 14.9454 105.692C14.9663 105.872 15.0231 106.046 15.1123 106.203C15.2016 106.36 15.3215 106.498 15.465 106.608C15.5343 106.483 15.621 106.367 15.7226 106.266C15.6962 106.377 15.6721 106.485 15.6552 106.584C15.5585 107.287 15.5496 107.998 15.6287 108.703C15.8567 112.048 16.087 115.391 16.3198 118.732C16.3848 119.678 16.4498 120.622 16.5365 121.566C16.7051 123.393 16.9459 125.213 17.2589 127.025C17.2734 127.107 17.2902 127.191 17.3119 127.266C15.3494 127.89 13.6037 129.016 12.8692 130.897C12.614 131.547 12.4984 132.255 12.1854 132.879C11.841 133.563 11.2752 134.109 10.8995 134.779C10.2518 135.93 10.2229 137.341 10.4589 138.631C10.914 141.148 12.2745 143.397 14.0708 145.227C13.9913 145.227 13.9095 145.227 13.83 145.227C13.2431 145.292 12.6798 145.494 12.1854 145.817C8.38564 148.037 6.21368 152.8 7.00589 157.148C7.16241 157.998 7.4345 158.861 8.00278 159.508C8.47513 160.023 9.08247 160.395 9.75576 160.582C10.1768 160.709 10.6104 160.79 11.0488 160.823C14.0106 161.064 16.8785 159.691 19.8475 159.576C20.831 159.56 21.8145 159.606 22.7924 159.713C24.2227 159.832 25.6554 159.907 27.0905 159.939C29.4238 159.995 30.7362 159.373 32.2243 157.63C32.5901 157.196 32.8954 156.715 33.1321 156.2C34.3987 156.128 35.7977 156.017 36.809 155.935L36.8235 156.075C36.8788 156.556 36.9631 157.11 37.3484 157.413C37.5651 157.563 37.8115 157.664 38.0708 157.71C40.5028 158.307 42.9637 158.913 45.468 158.913C46.6432 158.89 47.8161 158.8 48.9812 158.644L53.3805 158.136C54.6625 158.298 55.9275 158.574 57.161 158.959C58.4323 159.39 59.6195 160.031 60.862 160.539C63.7515 161.709 66.8578 162.128 69.9351 162.537C70.46 162.607 71.062 162.655 71.4497 162.297C71.9506 161.815 71.7844 161.011 71.6423 160.337C71.5845 160.06 71.5412 159.783 71.5075 159.503C73.5841 160.051 75.6159 160.756 77.5851 161.613L77.9295 161.764C78.0306 162.289 78.5146 162.708 78.9793 163.274C79.1319 163.513 79.3104 163.734 79.5115 163.934C79.7413 164.083 80.0026 164.177 80.2748 164.209C83.5235 164.814 86.8405 164.964 90.1305 164.654C90.8039 164.562 91.4848 164.539 92.1628 164.584C92.661 164.652 93.1524 164.762 93.6317 164.914L96.4177 165.714C98.4716 166.301 100.574 166.896 102.705 166.763C103.137 166.736 103.566 166.674 103.988 166.578C105.674 166.188 107.244 165.246 108.053 163.732C109.197 161.673 108.669 159.14 108.053 156.876Z" fill="url(#paint0_linear)"/>
<path d="M30.1039 156.406C29.5958 155.25 29.1142 153.921 29.6223 152.765C29.954 152.084 30.5237 151.549 31.2236 151.26C31.9162 150.978 32.6463 150.798 33.3908 150.726C35.7275 150.419 38.0921 150.387 40.4364 150.629C40.6074 151.983 40.2462 153.355 39.9356 154.663C39.6538 155.867 39.4925 156.045 38.25 156.107C37.4457 156.151 30.2941 156.832 30.1039 156.406Z" fill="#FBBEBE"/>
<path d="M51.5469 148.609C70.564 148.609 85.9805 144.297 85.9805 138.977C85.9805 133.658 70.564 129.346 51.5469 129.346C32.5297 129.346 17.1133 133.658 17.1133 138.977C17.1133 144.297 32.5297 148.609 51.5469 148.609Z" fill="#464353"/>
<path opacity="0.1" d="M51.5469 148.609C70.564 148.609 85.9805 144.297 85.9805 138.977C85.9805 133.658 70.564 129.346 51.5469 129.346C32.5297 129.346 17.1133 133.658 17.1133 138.977C17.1133 144.297 32.5297 148.609 51.5469 148.609Z" fill="black"/>
<path d="M57.7203 88.1303C56.54 90.411 54.5797 92.1919 52.1965 93.1484C50.7895 93.6611 49.3087 93.9425 47.8116 93.9816C46.1766 94.0562 44.5079 93.9503 42.9717 93.3916C40.9105 92.6452 39.1984 91.1185 37.915 89.3391C36.6315 87.5596 35.7478 85.5273 34.9797 83.4781C34.5752 82.4114 34.1899 81.2749 34.3801 80.1479C35.6202 79.8662 36.9783 79.452 37.6188 78.3516C38.1654 77.4077 38.0137 76.276 37.6983 75.1972C37.6092 74.8914 37.5056 74.588 37.4021 74.2966C37.1613 73.5983 36.3305 72.2716 36.9205 71.6744C37.2889 71.2963 38.8324 71.1037 39.3646 70.8581C41.0044 70.102 42.5166 69.0088 44.3177 68.65C45.8756 68.3394 47.4841 68.6307 49.0397 68.9534C49.246 68.9834 49.4442 69.0547 49.6224 69.1629C49.8256 69.3341 49.9759 69.5596 50.0558 69.813C50.4989 70.8918 50.759 72.0837 51.1153 73.2083C51.4862 74.3857 51.9629 75.491 52.8563 76.3265C53.5522 76.9791 54.4383 77.3884 55.3052 77.7858L57.4386 78.7634C57.8181 78.9055 58.1623 79.1281 58.4475 79.4159C58.7265 79.7994 58.8933 80.253 58.9291 80.7259C59.3114 83.2597 58.8886 85.8496 57.7203 88.1303V88.1303Z" fill="#FBBEBE"/>
<path opacity="0.1" d="M51.1052 73.2083C49.4062 74.9771 47.1683 76.132 44.7423 76.492C42.3163 76.8519 39.8394 76.3965 37.7001 75.1972C37.611 74.8914 37.5075 74.588 37.404 74.2966C37.1632 73.5983 36.3324 72.2716 36.9224 71.6744C37.2908 71.2963 38.8343 71.1037 39.3664 70.8581C41.0062 70.102 42.5184 69.0088 44.3196 68.65C45.8775 68.3394 47.486 68.6307 49.0415 68.9534C49.2479 68.9834 49.4461 69.0547 49.6243 69.1629C49.8275 69.3341 49.9778 69.5596 50.0577 69.8131C50.4887 70.8918 50.7488 72.0837 51.1052 73.2083Z" fill="black"/>
<path d="M43.1195 76.1297C49.2369 76.1297 54.1961 71.1705 54.1961 65.0531C54.1961 58.9357 49.2369 53.9766 43.1195 53.9766C37.0021 53.9766 32.043 58.9357 32.043 65.0531C32.043 71.1705 37.0021 76.1297 43.1195 76.1297Z" fill="#FBBEBE"/>
<path d="M76.8657 101L75.9555 95.4862C75.4956 92.7194 75.0212 89.8997 73.7354 87.4075C72.8902 85.7749 71.549 84.2194 69.7406 83.8967C69.3844 83.865 69.0343 83.7839 68.7004 83.6559C68.1706 83.4007 67.8817 82.8276 67.4747 82.4038C66.4249 81.3154 64.7152 81.2985 63.309 80.7447C62.0665 80.2631 61.0503 79.3361 59.9186 78.6281C58.7869 77.9202 57.3782 77.4242 56.1261 77.8769C55.9238 80.032 55.7095 82.2352 54.7945 84.1977C54.1989 85.4753 53.3254 86.6036 52.2376 87.5002C51.1499 88.3967 49.8756 89.0388 48.5078 89.3795C47.14 89.7201 45.7133 89.7508 44.3322 89.4692C42.951 89.1876 41.6502 88.6008 40.525 87.7518C38.3795 86.1361 37.0046 83.6439 36.3641 81.0361C36.2076 80.4004 36.0294 79.6708 35.4443 79.3794C34.811 79.0616 34.0501 79.4468 33.5179 79.914C32.5547 80.7784 31.7673 82.0161 30.5007 82.3075C30.0432 82.4134 29.5376 82.3918 29.1571 82.6687C28.9043 82.902 28.6926 83.1764 28.5311 83.4802C28.2539 83.8718 27.8836 84.1882 27.4535 84.401C27.0235 84.6137 26.5472 84.716 26.0677 84.6986C25.6271 84.6769 25.1045 84.5758 24.8036 84.896C24.5796 85.1368 24.5628 85.5125 24.322 85.7364C23.9969 86.0518 23.4695 85.8977 23.0169 85.8809C22.1596 85.8448 21.3626 86.3938 20.8714 87.0848C20.3802 87.7759 20.149 88.6307 19.9082 89.4591C22.5401 95.32 24.948 101.188 27.5799 107.049C27.7032 107.27 27.7687 107.519 27.7701 107.771C27.7174 108.034 27.6054 108.281 27.4427 108.494C26.152 110.567 26.1929 113.175 26.335 115.612C26.4771 118.049 26.6504 120.623 25.5621 122.807C25.2659 123.406 24.8806 123.955 24.5989 124.555C23.9391 125.913 23.7007 130.257 24.086 131.716H78.5248C77.487 128.863 77.8819 123.137 78.0986 120.107C78.2503 117.988 77.8578 115.872 77.6892 113.753C77.3208 109.426 77.5809 105.32 76.8657 101Z" fill="#7ECB20"/>
<path d="M15.7385 107.31C15.6422 108.007 15.6325 108.713 15.7096 109.412L16.4007 119.35C16.4657 120.286 16.5307 121.221 16.6174 122.155C16.7836 123.968 17.0316 125.767 17.3398 127.563C17.3467 127.818 17.4546 128.06 17.6397 128.236C17.8248 128.411 18.072 128.506 18.3271 128.5C21.3731 129.145 24.5203 129.119 27.6289 128.943C32.3726 128.678 37.109 128.074 41.8599 128.177C43.0831 128.204 44.5086 128.177 45.2503 127.214C45.9919 126.251 45.5609 124.693 44.5929 123.915C43.6249 123.137 42.3102 122.952 41.0677 122.952C39.4231 122.935 37.7784 123.169 36.1386 123.072C34.6337 122.983 33.1624 122.62 31.7032 122.256L27.6097 121.238C27.7662 119.997 28.2382 118.83 28.686 117.652C29.4903 115.564 30.2416 113.407 30.256 111.17C30.2705 108.933 29.4277 106.58 27.5952 105.299C26.0879 104.247 24.1471 104.052 22.3098 104.095C20.9734 104.134 18.6642 103.814 17.4433 104.336C16.4777 104.76 15.9191 106.364 15.7385 107.31Z" fill="#FBBEBE"/>
<path d="M79.6518 130.032C80.4537 129.726 81.3374 129.837 82.197 129.952C84.9638 130.331 87.7714 130.718 90.3359 131.823C91.5398 132.339 92.686 133.027 93.4999 134.041C94.2223 134.954 94.6437 136.071 95.0434 137.172L95.9681 139.705C96.3196 140.668 96.676 141.65 96.7747 142.674C97.0637 145.705 94.9904 148.564 92.3826 150.138C89.7748 151.713 86.7047 152.274 83.714 152.862C80.7234 153.449 77.7207 154.099 74.742 154.788C73.3527 155.149 71.9432 155.426 70.5209 155.619C67.3328 155.98 64.0002 155.448 60.971 156.503C59.767 156.924 58.5847 157.55 57.335 157.841C56.5049 158.016 55.6656 158.144 54.8211 158.224L49.0878 158.879C47.9219 159.035 46.7482 159.125 45.5722 159.149C43.0679 159.149 40.6046 158.556 38.1726 157.964C37.914 157.919 37.6679 157.82 37.4502 157.673C37.0649 157.369 36.9807 156.832 36.9253 156.346C36.6797 154.193 36.4645 152.038 36.2799 149.881C36.2221 149.18 36.1788 148.421 36.5617 147.831C37.0433 147.109 37.9824 146.883 38.8396 146.743C42.4745 146.148 46.1568 145.893 49.8391 145.98C51.2381 144.581 53.5449 144.574 55.3773 143.813C56.0515 143.503 56.7039 143.148 57.3302 142.751C60.6081 140.838 64.2712 139.681 68.0528 139.363C68.7933 139.34 69.5291 139.235 70.2464 139.05C71.6647 138.609 72.9577 137.41 74.4146 137.704C74.5951 137.205 74.7204 136.538 75.1369 136.196C75.344 136.021 75.5993 135.903 75.7895 135.715C76.1916 135.308 76.2277 134.667 76.1675 134.099C76.1073 133.531 75.9725 132.948 76.1194 132.394C76.1805 132.184 76.2704 131.984 76.3867 131.799C77.109 130.552 78.1998 129.912 79.6518 130.032Z" fill="#464353"/>
<path opacity="0.05" d="M79.6518 130.032C80.4537 129.726 81.3374 129.837 82.197 129.952C84.9638 130.331 87.7714 130.718 90.3359 131.823C91.5398 132.339 92.686 133.027 93.4999 134.041C94.2223 134.954 94.6437 136.071 95.0434 137.172L95.9681 139.705C96.3196 140.668 96.676 141.65 96.7747 142.674C97.0637 145.705 94.9904 148.564 92.3826 150.138C89.7748 151.713 86.7047 152.274 83.714 152.862C80.7234 153.449 77.7207 154.099 74.742 154.788C73.3527 155.149 71.9432 155.426 70.5209 155.619C67.3328 155.98 64.0002 155.448 60.971 156.503C59.767 156.924 58.5847 157.55 57.335 157.841C56.5049 158.016 55.6656 158.144 54.8211 158.224L49.0878 158.879C47.9219 159.035 46.7482 159.125 45.5722 159.149C43.0679 159.149 40.6046 158.556 38.1726 157.964C37.914 157.919 37.6679 157.82 37.4502 157.673C37.0649 157.369 36.9807 156.832 36.9253 156.346C36.6797 154.193 36.4645 152.038 36.2799 149.881C36.2221 149.18 36.1788 148.421 36.5617 147.831C37.0433 147.109 37.9824 146.883 38.8396 146.743C42.4745 146.148 46.1568 145.893 49.8391 145.98C51.2381 144.581 53.5449 144.574 55.3773 143.813C56.0515 143.503 56.7039 143.148 57.3302 142.751C60.6081 140.838 64.2712 139.681 68.0528 139.363C68.7933 139.34 69.5291 139.235 70.2464 139.05C71.6647 138.609 72.9577 137.41 74.4146 137.704C74.5951 137.205 74.7204 136.538 75.1369 136.196C75.344 136.021 75.5993 135.903 75.7895 135.715C76.1916 135.308 76.2277 134.667 76.1675 134.099C76.1073 133.531 75.9725 132.948 76.1194 132.394C76.1805 132.184 76.2704 131.984 76.3867 131.799C77.109 130.552 78.1998 129.912 79.6518 130.032Z" fill="black"/>
<path d="M32.3208 157.893C30.8302 159.62 29.5179 160.236 27.1846 160.181C25.7495 160.147 24.3159 160.072 22.884 159.957C21.9053 159.851 20.921 159.805 19.9367 159.82C16.9653 159.935 14.0974 161.296 11.1333 161.057C10.695 161.023 10.2615 160.942 9.84019 160.817C9.16774 160.631 8.56001 160.263 8.0848 159.752C7.51653 159.109 7.24443 158.257 7.08791 157.414C6.2957 153.094 8.46766 148.389 12.2698 146.191C12.7659 145.87 13.3298 145.67 13.9168 145.606C14.4925 145.603 15.0615 145.728 15.5831 145.972L15.6193 145.986C17.164 146.622 18.5669 147.558 19.7465 148.741C19.9254 148.946 20.139 149.118 20.3774 149.249C20.6153 149.339 20.8671 149.386 21.1214 149.388L24.2854 149.588C24.8215 149.604 25.3543 149.678 25.8747 149.807C26.4484 150.008 27.0069 150.249 27.5458 150.53C29.2482 151.291 31.136 151.493 32.9757 151.787C33.153 151.797 33.3222 151.864 33.4573 151.979C33.5307 152.071 33.5818 152.178 33.6066 152.292C33.8651 153.26 33.8831 154.276 33.659 155.252C33.4349 156.229 32.9755 157.135 32.3208 157.893V157.893Z" fill="#3F3D56"/>
<path opacity="0.1" d="M15.6193 145.99C14.3917 147.162 13.3267 148.493 12.4528 149.949C11.0504 152.35 10.1693 155.02 9.86668 157.784C9.75193 158.792 9.74305 159.81 9.84019 160.82C9.16775 160.635 8.56001 160.267 8.0848 159.756C7.51653 159.113 7.24443 158.261 7.08791 157.418C6.2957 153.098 8.46767 148.393 12.2698 146.195C12.7659 145.874 13.3298 145.674 13.9168 145.609C14.4925 145.607 15.0615 145.732 15.5831 145.975L15.6193 145.99Z" fill="black"/>
<path d="M76.8982 151.98C78.6681 151.932 80.6546 151.843 81.9549 153.035C83.195 154.162 83.3588 156.021 83.4406 157.694L83.5345 159.637C83.5634 160.23 83.5875 160.841 83.3491 161.39C82.9253 162.354 81.7623 162.818 80.7004 162.763C79.6385 162.708 78.6633 162.243 77.6929 161.824C75.0584 160.689 72.3152 159.825 69.5059 159.245C69.5974 157.901 69.7499 156.564 69.9634 155.233C70.1103 154.311 70.1343 152.768 70.7508 152.002C71.4033 151.193 72.2533 151.631 73.1394 151.78C74.3828 151.97 75.6418 152.037 76.8982 151.98V151.98Z" fill="#FBBEBE"/>
<path d="M30.1254 132.454C30.1254 132.695 29.7474 132.454 29.7136 132.197C29.4488 130.249 27.9029 128.643 26.1017 127.862C24.3006 127.082 22.249 127.041 20.2986 127.227C17.3488 127.506 14.0379 128.635 12.9592 131.392C12.7039 132.038 12.5883 132.736 12.2753 133.355C11.9286 134.034 11.3627 134.576 10.9871 135.236C10.3393 136.377 10.3128 137.776 10.5464 139.067C11.1749 142.51 13.5298 145.455 16.3833 147.494C19.2367 149.534 22.5717 150.752 25.897 151.85C34.69 154.75 43.7116 156.905 52.866 158.292C54.3493 158.515 55.8471 158.723 57.2677 159.199C58.5391 159.626 59.7287 160.264 60.9712 160.765C63.8607 161.925 66.9694 162.339 70.0491 162.746C70.574 162.814 71.176 162.862 71.5637 162.505C72.0646 162.041 71.8984 161.232 71.7564 160.565C71.2336 158.029 71.6722 155.389 72.9868 153.158C73.5021 152.291 74.1715 151.402 74.0752 150.398C73.9596 149.228 72.7942 148.4 71.6335 148.212C70.4729 148.024 69.293 148.301 68.1276 148.453C67.7255 148.506 67.2872 148.539 66.9356 148.335C66.7624 148.218 66.6054 148.079 66.4685 147.921C65.6656 147.146 64.6381 146.646 63.5333 146.491C62.4284 146.337 61.3031 146.536 60.3186 147.061C59.8876 147.302 59.235 146.765 58.7872 146.562L53.7233 144.27C47.9057 141.638 42.0592 138.994 35.9045 137.328C35.4134 137.231 34.9467 137.037 34.5319 136.757C34.2261 136.517 34.007 136.189 33.7253 135.922C33.1112 135.341 32.2564 135.11 31.5196 134.699C30.7828 134.287 29.9568 133.28 30.1254 132.454Z" fill="#464353"/>
<path d="M108.193 163.924C107.384 165.424 105.814 166.358 104.129 166.743C103.706 166.839 103.276 166.9 102.843 166.926C100.712 167.059 98.6074 166.469 96.5534 165.886L93.7651 165.101C93.2857 164.95 92.7943 164.841 92.2962 164.774C91.6181 164.728 90.9372 164.752 90.2639 164.843C86.9683 165.15 83.6462 165.001 80.3913 164.4C80.119 164.371 79.8575 164.278 79.628 164.128C79.4269 163.931 79.2485 163.712 79.0959 163.476C78.3374 162.563 77.5211 162.031 78.4192 160.827C78.9369 160.129 79.8977 159.78 80.2998 158.978C80.702 158.176 80.4443 157.037 80.2059 156.209C79.8808 155.065 78.8117 154.571 78.4289 153.521C78.1423 152.729 78.6239 151.809 79.3487 151.378C80.0735 150.947 80.9692 150.913 81.8048 151.024C82.6403 151.135 83.4591 151.371 84.2994 151.436C86.77 151.633 89.2959 150.36 91.6677 151.077C92.1902 151.236 92.6839 151.489 93.2136 151.629C94.2464 151.86 95.3253 151.766 96.303 151.361C96.6498 151.231 96.9893 151.075 97.3264 150.921C97.9765 150.582 98.6689 150.332 99.3852 150.177C101.699 149.779 103.845 151.381 105.59 152.943C106.19 153.441 106.72 154.016 107.168 154.653C107.649 155.404 107.904 156.278 108.131 157.14C108.769 159.368 109.296 161.877 108.193 163.924Z" fill="#3F3D56"/>
<path opacity="0.1" d="M108.193 163.922C107.384 165.423 105.814 166.357 104.129 166.742C104.784 165.468 105.08 164.04 104.984 162.61C104.839 160.32 103.833 158.163 102.549 156.26C101.76 155.089 100.861 153.995 99.8667 152.993C99.101 152.222 98.1595 151.611 97.3359 150.905C97.9861 150.567 98.6784 150.316 99.3947 150.161C101.709 149.764 103.854 151.365 105.6 152.928C106.199 153.425 106.73 154 107.177 154.637C107.659 155.389 107.914 156.263 108.14 157.125C108.769 159.367 109.296 161.876 108.193 163.922Z" fill="black"/>
<path d="M19.7711 89.6376C19.5365 89.8831 19.3546 90.174 19.2365 90.4924C17.2901 94.879 16.1404 99.5772 15.8413 104.367C15.8466 104.601 15.7927 104.832 15.6848 105.039C15.5784 105.177 15.4599 105.305 15.3308 105.422C15.2136 105.561 15.1261 105.722 15.0738 105.896C15.0215 106.07 15.0054 106.253 15.0267 106.434C15.0479 106.614 15.1059 106.789 15.1972 106.946C15.2884 107.103 15.4109 107.24 15.5572 107.348C15.9545 106.599 16.9056 106.356 17.7508 106.291C21.7986 105.971 25.7524 107.854 29.8122 107.712C29.5257 106.722 29.1139 105.771 28.8803 104.769C27.8473 100.322 30.4238 95.4792 28.8442 91.1955C28.5288 90.3383 28.0014 89.4955 27.1707 89.1199C26.8267 88.9809 26.4668 88.8855 26.0992 88.8357C25.0734 88.6503 23.0314 87.8581 22.0394 88.1759C21.6734 88.2939 21.5289 88.6383 21.2255 88.8454C20.7656 89.1415 20.154 89.2499 19.7711 89.6376Z" fill="#7ECB20"/>
<path d="M80.0886 98.4023H30.2297C29.1698 98.4023 28.3105 99.2616 28.3105 100.321V130.676C28.3105 131.736 29.1698 132.595 30.2297 132.595H80.0886C81.1485 132.595 82.0077 131.736 82.0077 130.676V100.321C82.0077 99.2616 81.1485 98.4023 80.0886 98.4023Z" fill="#3F3D56"/>
<path d="M55.0385 116.944C55.8364 116.944 56.4833 116.297 56.4833 115.499C56.4833 114.702 55.8364 114.055 55.0385 114.055C54.2406 114.055 53.5938 114.702 53.5938 115.499C53.5938 116.297 54.2406 116.944 55.0385 116.944Z" fill="white"/>
<path d="M35.466 47.0749C34.6569 47.6601 34.1031 48.5004 33.5396 49.3071C32.5018 50.7976 31.3267 52.2857 29.6677 53.1165C29.0392 53.4319 28.3216 53.6703 27.905 54.2193C27.6578 54.5906 27.4973 55.0128 27.4355 55.4546C27.1177 57.008 26.9515 58.5886 26.9395 60.1742C26.9395 60.964 26.9732 61.7779 27.3223 62.4954C27.6522 63.1696 28.247 63.7403 28.3698 64.4747C28.4637 65.0478 28.2518 65.6185 28.1771 66.194C28.1025 66.7695 28.2325 67.451 28.7647 67.7255C29.0514 67.8333 29.3509 67.9037 29.6556 67.935C31.2569 68.2913 31.7939 70.1695 32.0371 71.7227C32.5813 71.6914 32.8269 71.0677 32.9401 70.5596L34.6088 63.1407C34.7893 62.3365 35.0903 61.4046 35.8922 61.1229C36.4292 60.9375 37.0167 61.1108 37.5777 61.159C39.781 61.3396 41.6448 59.6372 43.7999 59.1676C44.4897 59.0284 45.195 58.9815 45.8972 59.028C47.5972 59.1123 49.5741 59.8106 49.9353 61.3974C49.9955 61.655 50.0316 61.9633 50.2724 62.0909C50.5132 62.2185 50.7661 62.1101 51.0189 62.0909C52.0977 61.9825 52.7334 63.1961 53.044 64.1882L54.1757 67.8001C54.3443 68.3467 54.6284 68.9896 55.2208 69.0595C55.7674 69.1269 56.2321 68.6092 56.314 68.0963C56.3958 67.5834 56.2176 67.0513 56.0997 66.536C55.5675 64.1641 56.3814 61.7369 56.8774 59.3603C57.3735 56.9836 57.4626 54.253 55.7987 52.423C55.1943 51.7608 54.3996 51.2672 53.8362 50.5689C53.3113 49.9139 53.0151 49.1097 52.4709 48.4667C50.9659 46.6921 47.106 45.322 44.739 45.0956C42.0349 44.8018 37.6524 45.4881 35.466 47.0749Z" fill="#3F3D56"/>
<g opacity="0.1">
<path opacity="0.1" d="M55.2301 67.373C54.6378 67.3008 54.3536 66.6507 54.1851 66.1137C53.8078 64.9081 53.4306 63.7041 53.0533 62.5018C52.7427 61.5073 52.107 60.2937 51.0282 60.4044C50.7754 60.4309 50.5033 60.5296 50.2818 60.4044C50.0602 60.2792 50.0049 59.9686 49.9447 59.7109C49.5835 58.1217 47.6066 57.4258 45.9065 57.3415C45.2044 57.2954 44.4993 57.3416 43.8092 57.4788C41.6541 57.9604 39.7904 59.6459 37.5871 59.4701C37.0188 59.4244 36.4313 59.251 35.9015 59.4364C35.0901 59.7158 34.7987 60.6404 34.6181 61.4543L32.9494 68.8708C32.8362 69.3813 32.5906 70.0049 32.0464 70.0338C31.8056 68.4831 31.2662 66.6049 29.665 66.2485C29.3606 66.215 29.0614 66.1446 28.774 66.039C28.5645 65.9246 28.4005 65.7419 28.3093 65.5213C28.2659 65.7453 28.2154 65.9692 28.1865 66.1931C28.1142 66.7662 28.2419 67.4501 28.774 67.7246C29.0608 67.8324 29.3602 67.9029 29.665 67.9341C31.2662 68.2905 31.8032 70.1687 32.0464 71.7218C32.5906 71.6905 32.8362 71.0668 32.9494 70.5587L34.6181 63.1399C34.7987 62.3356 35.0997 61.4037 35.9015 61.122C36.4385 60.9366 37.0261 61.11 37.5871 61.1581C39.7904 61.3387 41.6541 59.6363 43.8092 59.1667C44.4991 59.0275 45.2043 58.9806 45.9065 59.0271C47.6066 59.1114 49.5835 59.8097 49.9447 61.3965C50.0049 61.6542 50.041 61.9624 50.2818 62.09C50.5226 62.2176 50.7754 62.1093 51.0282 62.09C52.107 61.9816 52.7427 63.1952 53.0533 64.1873C53.429 65.3929 53.8062 66.5969 54.1851 67.7992C54.3536 68.3458 54.6378 68.9888 55.2301 69.0586C55.7767 69.126 56.2414 68.6083 56.3233 68.0954C56.3603 67.6638 56.3112 67.2292 56.1788 66.8168C56.0929 66.9925 55.9571 67.1391 55.7884 67.238C55.6196 67.3369 55.4254 67.3839 55.2301 67.373V67.373Z" fill="black"/>
<path opacity="0.1" d="M28.3717 62.7893C28.2489 62.0549 27.6493 61.4842 27.3243 60.81C27.1153 60.3553 26.9943 59.865 26.9679 59.3652C26.9679 59.6349 26.9438 59.9046 26.9414 60.1767C26.9414 60.9665 26.9751 61.7804 27.3243 62.498C27.5915 63.0446 28.0322 63.5262 28.2537 64.0824C28.3705 63.662 28.4105 63.2239 28.3717 62.7893V62.7893Z" fill="black"/>
<path opacity="0.1" d="M56.8874 57.6647C56.4492 59.7644 55.7653 61.9027 55.9772 64.0072C56.1145 62.4541 56.5672 60.8914 56.8874 59.3503C57.1546 58.18 57.2487 56.9769 57.1668 55.7793C57.1145 56.4131 57.0212 57.0429 56.8874 57.6647Z" fill="black"/>
</g>
<g opacity="0.8">
<path opacity="0.8" d="M79.4707 69.9473H229.982" stroke="#3F3D56" stroke-width="3" stroke-miterlimit="10"/>
<path opacity="0.8" d="M92.8418 69.9454C92.8418 69.9454 100.039 70.9447 96.3116 63.2224C92.5841 55.5002 106.425 56.9618 106.425 56.9618" stroke="#3F3D56" stroke-width="3" stroke-miterlimit="10"/>
<path opacity="0.8" d="M140.777 69.9443C140.777 69.9443 147.975 68.9474 144.247 76.6697C140.52 84.392 154.361 82.9304 154.361 82.9304" stroke="#3F3D56" stroke-width="3" stroke-miterlimit="10"/>
<path opacity="0.8" d="M209.796 69.9443C209.796 69.9443 202.596 68.9474 206.326 76.6697C210.056 84.392 196.213 82.9304 196.213 82.9304" stroke="#3F3D56" stroke-width="3" stroke-miterlimit="10"/>
<path opacity="0.8" d="M196.212 82.9297H156.498" stroke="#3F3D56" stroke-width="3" stroke-miterlimit="10"/>
<path opacity="0.8" d="M79.4707 74.3417C81.8977 74.3417 83.8652 72.3742 83.8652 69.9472C83.8652 67.5202 81.8977 65.5527 79.4707 65.5527C77.0437 65.5527 75.0762 67.5202 75.0762 69.9472C75.0762 72.3742 77.0437 74.3417 79.4707 74.3417Z" fill="#7ECB20"/>
<path opacity="0.8" d="M106.5 61.2929C108.927 61.2929 110.894 59.3254 110.894 56.8984C110.894 54.4714 108.927 52.5039 106.5 52.5039C104.073 52.5039 102.105 54.4714 102.105 56.8984C102.105 59.3254 104.073 61.2929 106.5 61.2929Z" fill="#3ACC6C"/>
<path opacity="0.8" d="M106.5 74.3417C108.927 74.3417 110.894 72.3742 110.894 69.9472C110.894 67.5202 108.927 65.5527 106.5 65.5527C104.073 65.5527 102.105 67.5202 102.105 69.9472C102.105 72.3742 104.073 74.3417 106.5 74.3417Z" fill="#7ECB20"/>
<path opacity="0.8" d="M123.943 74.3417C126.37 74.3417 128.338 72.3742 128.338 69.9472C128.338 67.5202 126.37 65.5527 123.943 65.5527C121.516 65.5527 119.549 67.5202 119.549 69.9472C119.549 72.3742 121.516 74.3417 123.943 74.3417Z" fill="#7ECB20"/>
<path opacity="0.8" d="M154.432 87.2578C156.859 87.2578 158.826 85.2903 158.826 82.8633C158.826 80.4362 156.859 78.4688 154.432 78.4688C152.005 78.4688 150.037 80.4362 150.037 82.8633C150.037 85.2903 152.005 87.2578 154.432 87.2578Z" fill="#FF6584"/>
<path opacity="0.8" d="M177.471 87.2578C179.898 87.2578 181.865 85.2903 181.865 82.8633C181.865 80.4362 179.898 78.4688 177.471 78.4688C175.044 78.4688 173.076 80.4362 173.076 82.8633C173.076 85.2903 175.044 87.2578 177.471 87.2578Z" fill="#FF6584"/>
<path opacity="0.8" d="M176.269 74.3417C178.697 74.3417 180.664 72.3742 180.664 69.9472C180.664 67.5202 178.697 65.5527 176.269 65.5527C173.842 65.5527 171.875 67.5202 171.875 69.9472C171.875 72.3742 173.842 74.3417 176.269 74.3417Z" fill="#7ECB20"/>
<path opacity="0.8" d="M228.869 74.3417C231.296 74.3417 233.264 72.3742 233.264 69.9472C233.264 67.5202 231.296 65.5527 228.869 65.5527C226.442 65.5527 224.475 67.5202 224.475 69.9472C224.475 72.3742 226.442 74.3417 228.869 74.3417Z" fill="#7ECB20"/>
<path opacity="0.8" d="M207.352 74.3417C209.779 74.3417 211.746 72.3742 211.746 69.9472C211.746 67.5202 209.779 65.5527 207.352 65.5527C204.925 65.5527 202.957 67.5202 202.957 69.9472C202.957 72.3742 204.925 74.3417 207.352 74.3417Z" fill="#7ECB20"/>
<path opacity="0.8" d="M86.8317 29.5352H72.0879V39.6967H86.8317V29.5352Z" fill="#7ECB20"/>
<path opacity="0.8" d="M113.925 29.5352H99.1816V39.6967H113.925V29.5352Z" fill="#3ACC6C"/>
<path opacity="0.8" d="M161.744 29.5352H147V39.6967H161.744V29.5352Z" fill="#FF6584"/>
</g>
<g opacity="0.1">
<path opacity="0.1" d="M20.7939 72.0845C20.7939 72.0845 2.78967 64.5139 0.429882 78.1742C0.429882 78.1742 -0.800577 80.3028 0.911471 82.0606C0.911471 82.0606 1.27989 81.1167 3.01842 82.0919C3.63938 82.4353 4.29897 82.7037 4.98331 82.8913C5.9075 83.1463 6.88952 83.0939 7.78134 82.742V82.742C7.78134 82.742 13.7025 82.4218 18.6821 74.6754C18.6821 74.6754 20.8179 73.3559 20.9239 72.8598L17.3553 73.1006C17.3553 73.1006 17.6298 75.7132 16.1514 77.2808C16.1514 77.2808 17.4613 73.2258 16.8328 73.1127C16.7052 73.0886 14.9474 73.3197 14.9474 73.3197C14.9474 73.3197 15.4025 77.8635 13.021 80.2137C13.021 80.2137 15.2315 75.5928 14.2707 73.4016L11.6365 73.9097C11.6365 73.9097 12.3588 78.6895 9.75344 81.4682C9.75344 81.4682 11.8965 76.556 11.0682 74.0614L8.54706 74.909C8.54706 74.909 9.15387 79.5828 6.97468 81.892C6.97468 81.892 8.87695 75.9661 7.9812 75.1498C7.9812 75.1498 5.71291 76.0696 5.22892 76.5945C5.22892 76.5945 5.5877 79.9657 4.20313 81.1817C4.20313 81.1817 5.05314 77.0882 4.63175 76.9196C4.63175 76.9196 1.99745 78.9038 1.1932 80.6158C1.1932 80.6158 2.19491 78.0008 4.30186 76.5223C4.30186 76.5223 2.53202 76.2237 1.17153 76.963C1.17153 76.963 2.08173 75.2268 4.93996 76.0503C4.93996 76.0503 7.05655 74.5839 7.48034 74.6056C7.48034 74.6056 4.77622 73.4016 2.82338 73.5509C2.82338 73.5509 4.91829 72.3469 8.14012 74.3576L10.6564 73.4498C10.6564 73.4498 7.1649 71.6607 5.41674 71.6679C5.41674 71.6679 7.74281 70.7673 11.309 73.2716L13.8855 72.7466C13.8855 72.7466 10.9959 70.9768 9.04792 70.5651C9.04792 70.5651 11.3836 70.1942 14.6295 72.6238L16.3897 72.477C16.3897 72.477 14.2587 71.22 13.6134 70.9142C12.968 70.6084 12.9969 70.4109 12.9969 70.4109C14.5284 70.6732 15.957 71.3551 17.1242 72.3806C17.1242 72.3806 20.7794 72.3084 20.7939 72.0845Z" fill="#7ECB20"/>
</g>
<g opacity="0.1">
<path opacity="0.1" d="M20.1277 58.5127C20.1277 58.5127 13.7514 43.7592 4.56511 50.5255C4.56511 50.5255 2.6243 51.089 2.63875 53.102C2.63875 53.102 3.39485 52.7505 3.87403 54.3229C4.04973 54.8806 4.29229 55.4151 4.59641 55.9145C4.99836 56.5934 5.61151 57.1219 6.34217 57.4195C6.34217 57.4195 10.0432 60.6028 17.4187 58.8378C17.4187 58.8378 19.4414 59.2688 19.7857 59.0376L17.5319 57.1426C17.5319 57.1426 16.2051 58.8522 14.428 58.9341C14.428 58.9341 17.5174 57.2726 17.2092 56.8464C17.1466 56.7597 15.9691 55.8977 15.9691 55.8977C15.9691 55.8977 13.6527 58.8546 10.9124 58.9004C10.9124 58.9004 14.8591 57.4123 15.5357 55.5654L13.6816 54.3614C13.6816 54.3614 11.3435 57.6145 8.21314 57.7831C8.21314 57.7831 12.285 56.0855 13.2144 54.1302L11.2327 53.1984C11.2327 53.1984 8.93071 56.3287 6.32772 56.4467C6.32772 56.4467 10.8354 54.0098 10.7656 53.0154C10.7656 53.0154 8.89459 52.2689 8.29983 52.3122C8.29983 52.3122 6.59741 54.5155 5.078 54.4529C5.078 54.4529 7.91697 52.5049 7.76286 52.1653C7.76286 52.1653 5.06596 51.8427 3.61397 52.4061C3.61397 52.4061 5.69925 51.4237 7.79175 51.7464C7.79175 51.7464 6.91045 50.5593 5.6848 50.2294C5.6848 50.2294 7.21625 49.7165 8.44431 51.8306C8.44431 51.8306 10.5344 52.1678 10.78 52.4182C10.78 52.4182 9.86259 50.1571 8.61286 49.1386C8.61286 49.1386 10.5392 49.6201 11.3098 52.6469L13.3228 53.5403C13.3228 53.5403 12.2681 50.487 11.2231 49.4973C11.2231 49.4973 13.1181 50.2872 13.8116 53.8076L15.6417 54.961C15.6417 54.961 14.9337 52.2641 14.0115 50.9084C14.0115 50.9084 15.6103 52.0209 16.1521 55.3125L17.2839 56.2275C17.2839 56.2275 16.7324 54.2675 16.523 53.7185C16.3135 53.1695 16.4435 53.0683 16.4435 53.0683C17.2041 54.1008 17.6619 55.3249 17.7655 56.6032C17.7655 56.6032 19.9904 58.6355 20.1277 58.5127Z" fill="#7ECB20"/>
</g>
</g>
<defs>
<linearGradient id="paint0_linear" x1="57.8087" y1="166.79" x2="57.8087" y2="43.6958" gradientUnits="userSpaceOnUse">
<stop stop-color="#808080" stop-opacity="0.25"/>
<stop offset="0.54" stop-color="#808080" stop-opacity="0.12"/>
<stop offset="1" stop-color="#808080" stop-opacity="0.1"/>
</linearGradient>
<clipPath id="clip0">
<rect width="250" height="166.945" fill="white"/>
</clipPath>
</defs>
</svg>
