<svg width="250" height="167" viewBox="0 0 250 167" fill="none" xmlns="http://www.w3.org/2000/svg">
<path opacity="0.1" d="M142.24 26.825C126.655 26.2832 111.813 21.253 97.6372 15.7484C83.4616 10.2439 69.4257 4.14455 54.2147 1.22853C44.4313 -0.647264 33.244 -0.912138 25.3604 4.33237C17.7753 9.38905 15.324 18.0938 14.0045 26.1772C13.0148 32.2621 12.4297 38.6624 15.1483 44.3572C17.0337 48.3111 20.3831 51.634 22.6996 55.4217C30.7566 68.598 25.0618 84.8468 16.3282 97.7125C12.2347 103.747 7.48138 109.511 4.31975 115.931C1.15812 122.351 -0.303506 129.716 2.46081 136.271C5.20346 142.772 11.7362 147.646 18.8107 151.077C33.1838 158.046 50.114 160.042 66.6373 161.171C103.195 163.673 139.95 162.59 176.603 161.506C190.17 161.104 203.794 160.697 217.139 158.6C224.55 157.434 232.203 155.585 237.582 151.135C244.411 145.469 246.104 135.874 241.529 128.77C233.852 116.853 212.633 113.891 207.261 101.103C204.307 94.0644 207.341 86.2217 211.632 79.6938C220.84 65.6868 236.272 53.4015 237.086 37.391C237.645 26.3964 230.226 15.3848 218.754 10.1813C206.729 4.72727 190.056 5.41353 181.19 14.4409C172.05 23.726 155.999 27.3017 142.24 26.825Z" fill="#7ECB20"/>
<path d="M238.654 158.925C235.309 165.153 59.7088 164.63 59.9749 158.924C63.3197 152.696 238.92 153.219 238.654 158.925Z" fill="#D0CDE1"/>
<path d="M195.929 25.1641H166.453V50.677H195.929V25.1641Z" fill="#2F2E41"/>
<path d="M151.096 32.3477H66.6309V102.446H151.096V32.3477Z" fill="#3F3D56"/>
<path d="M125.706 43.9902H92.0195V48.2011H125.706V43.9902Z" fill="white"/>
<path d="M101.556 53.8984H78.1484V56.3754H101.556V53.8984Z" fill="white"/>
<path d="M120.382 70.2461H96.9746V72.7231H120.382V70.2461Z" fill="white"/>
<path d="M139.206 53.8984H115.799V56.3754H139.206V53.8984Z" fill="#7ECB20"/>
<path d="M191.718 39.5312H170.416V40.678H191.718V39.5312Z" fill="#7ECB20"/>
<path d="M191.47 42.0527H170.168V43.1995H191.47V42.0527Z" fill="#7ECB20"/>
<path d="M191.718 44.5762H170.416V45.7229H191.718V44.5762Z" fill="#7ECB20"/>
<path d="M191.718 31.1094H170.416V32.2561H191.718V31.1094Z" fill="#7ECB20"/>
<path d="M191.47 33.6328H170.168V34.7796H191.47V33.6328Z" fill="#7ECB20"/>
<path d="M191.718 36.1543H170.416V37.301H191.718V36.1543Z" fill="#7ECB20"/>
<path d="M204.351 33.5859H174.875V59.0988H204.351V33.5859Z" fill="#3F3D56"/>
<path d="M200.14 47.9531H178.838V49.0999H200.14V47.9531Z" fill="#7ECB20"/>
<path d="M199.892 50.4766H178.59V51.6233H199.892V50.4766Z" fill="#7ECB20"/>
<path d="M200.14 53H178.838V54.1467H200.14V53Z" fill="#7ECB20"/>
<path d="M200.14 39.5312H178.838V40.678H200.14V39.5312Z" fill="#7ECB20"/>
<path d="M199.892 42.0527H178.59V43.1995H199.892V42.0527Z" fill="#7ECB20"/>
<path d="M200.14 44.5762H178.838V45.7229H200.14V44.5762Z" fill="#7ECB20"/>
<path d="M29.4761 43.4941H0V69.007H29.4761V43.4941Z" fill="#3F3D56"/>
<path d="M25.2649 57.8613H3.96289V59.0081H25.2649V57.8613Z" fill="#7ECB20"/>
<path d="M25.0188 60.3828H3.7168V61.5296H25.0188V60.3828Z" fill="#7ECB20"/>
<path d="M25.2649 62.9062H3.96289V64.053H25.2649V62.9062Z" fill="#7ECB20"/>
<path d="M25.2649 49.4395H3.96289V50.5862H25.2649V49.4395Z" fill="#7ECB20"/>
<path d="M25.0188 51.9629H3.7168V53.1096H25.0188V51.9629Z" fill="#7ECB20"/>
<path d="M25.2649 54.4844H3.96289V55.6311H25.2649V54.4844Z" fill="#7ECB20"/>
<path d="M139.577 62.0723H78.1484V64.5492H139.577V62.0723Z" fill="white"/>
<path d="M91.8957 70.2461H78.1484V72.7231H91.8957V70.2461Z" fill="#7ECB20"/>
<path d="M91.8957 86.5938H78.1484V89.0707H91.8957V86.5938Z" fill="white"/>
<path d="M139.206 70.2461H125.459V72.7231H139.206V70.2461Z" fill="white"/>
<path d="M139.577 78.4199H78.1484V80.8969H139.577V78.4199Z" fill="white"/>
<path d="M139.577 86.5938H103.537V89.0707H139.577V86.5938Z" fill="white"/>
<path d="M133.706 55.2867L133.312 54.9856L160.138 19.9629H186.764V20.4585H160.383L133.706 55.2867Z" fill="#2F2E41"/>
<path d="M79.5977 71.6716L40.2834 38.0442H13.8711V37.5488H40.4663L79.9197 71.2951L79.5977 71.6716Z" fill="#2F2E41"/>
<path d="M186.764 23.9263C188.953 23.9263 190.727 22.152 190.727 19.9632C190.727 17.7744 188.953 16 186.764 16C184.575 16 182.801 17.7744 182.801 19.9632C182.801 22.152 184.575 23.9263 186.764 23.9263Z" fill="#7ECB20"/>
<path d="M13.8714 41.7603C16.0602 41.7603 17.8345 39.9859 17.8345 37.7972C17.8345 35.6084 16.0602 33.834 13.8714 33.834C11.6826 33.834 9.9082 35.6084 9.9082 37.7972C9.9082 39.9859 11.6826 41.7603 13.8714 41.7603Z" fill="#7ECB20"/>
<path d="M221.394 154.732C221.394 154.732 227.173 135.288 205.195 124.217L221.394 154.732Z" fill="#D0CDE1"/>
<path d="M222.113 154.836C222.113 154.836 224.404 135.644 250 134.441L222.113 154.836Z" fill="#D0CDE1"/>
<path d="M123.915 151.763L117.941 151.365L119.933 160.326L126.703 157.538L123.915 151.763Z" fill="#FFB9B9"/>
<path d="M178.676 135.037L164.738 121.496L156.772 127.669L141.041 146.586L142.833 149.374L161.95 136.431L174.893 153.357L187.239 147.184L178.676 135.037Z" fill="#2F2E41"/>
<path opacity="0.1" d="M178.676 135.037L164.738 121.496L156.772 127.669L141.041 146.586L142.833 149.374L161.95 136.431L174.893 153.357L187.239 147.184L178.676 135.037Z" fill="black"/>
<path d="M179.871 143.997L178.079 145.391L163.542 140.413L160.157 139.019L153.387 140.413C153.387 140.413 153.387 134.837 159.759 135.036L166.33 136.629L174.096 137.227L179.871 143.997Z" fill="#FFB9B9"/>
<path d="M192.814 158.734L188.433 161.522H183.256L159.161 152.561L123.916 158.933L122.92 151.367L155.179 137.229L183.455 146.587L192.814 158.734Z" fill="#2F2E41"/>
<path d="M164.538 123.29L161.551 123.887L160.9 123.128C160.385 122.526 160.059 121.787 159.962 121.001C159.865 120.215 160.002 119.418 160.356 118.71V118.71L168.72 107.758C168.72 107.758 171.109 102.381 174.893 104.572C178.676 106.762 171.707 110.346 171.707 110.346L167.525 116.918L167.923 120.303L164.538 123.29Z" fill="#FFB9B9"/>
<path d="M183.455 110.345C187.745 110.345 191.222 106.868 191.222 102.579C191.222 98.2895 187.745 94.8125 183.455 94.8125C179.166 94.8125 175.689 98.2895 175.689 102.579C175.689 106.868 179.166 110.345 183.455 110.345Z" fill="#FFB9B9"/>
<path d="M179.971 108.256L183.555 116.819L192.118 113.234C192.118 113.234 189.33 106.464 189.33 106.265C189.33 106.066 179.971 108.256 179.971 108.256Z" fill="#FFB9B9"/>
<path d="M203.55 133.586C203.55 138.273 202.811 142.93 201.362 147.387L200.78 149.175L197.992 161.92L195.005 162.716L192.815 159.928L188.434 156.742L185.248 151.565L182.516 147.013L181.664 145.591L178.677 130.656L167.326 124.284L163.543 123.687L164.339 121.496L167.725 116.916L171.11 116.518L172.106 115.722L172.902 116.12L176.088 114.328L177.084 114.726L182.906 115.268L186.443 114.527L191.529 111.797L193.611 112.137L200.78 118.111C202.613 123.065 203.551 128.304 203.55 133.586V133.586Z" fill="#575A89"/>
<path d="M119.776 154.847C119.776 154.847 121.559 151.824 120.806 151.471C120.053 151.119 116.854 149.712 116.854 149.712L112.162 148.157C112.162 148.157 105.392 138.095 105.243 146.845C105.095 155.594 110.173 157.698 110.173 157.698C110.173 157.698 114.702 167.444 117.267 165.89C119.832 164.336 122.399 159.06 122.399 159.06C122.399 159.06 117.773 156.573 119.776 154.847Z" fill="#2F2E41"/>
<path opacity="0.1" d="M201.377 131.851L193.81 136.829L182.515 147.013L181.663 145.591L179.273 133.643H179.871L186.044 122.293L201.377 131.851Z" fill="black"/>
<path d="M186.045 121.1L179.872 132.45H177.682L176.288 136.433L173.102 137.229L181.664 146.588L193.811 135.636L201.378 130.658L186.045 121.1Z" fill="#575A89"/>
<path d="M177.415 96.8047L176.574 97.1285C176.445 97.0408 176.334 96.9283 176.249 96.7973C176.163 96.6664 176.105 96.5198 176.077 96.366C176.049 96.2122 176.052 96.0544 176.086 95.9018C176.119 95.7492 176.183 95.6049 176.274 95.4773L174.719 95.4045C175.717 94.0751 176.986 92.9728 178.442 92.1706C179.898 91.3683 181.508 90.8844 183.165 90.7508C184.822 90.6173 186.489 90.8371 188.054 91.3958C189.62 91.9545 191.049 92.8393 192.247 93.9917C192.318 93.7478 193.09 94.2222 193.405 94.7032C193.511 94.3065 194.235 96.2244 194.49 97.5801C194.609 97.1287 195.065 97.8575 194.665 98.5567C194.918 98.5198 195.033 99.1668 194.837 99.5273C195.113 99.3973 195.067 100.17 194.767 100.686C195.162 100.651 191.653 106.096 190.233 109.278C189.82 107.383 189.357 105.387 188.027 103.975C187.801 103.735 187.553 103.517 187.306 103.299L185.969 102.119C184.415 100.747 183.001 99.0532 180.93 98.5404C179.507 98.188 178.607 98.1085 179.383 96.5049C178.682 96.7973 178.028 97.2321 177.321 97.5037C177.33 97.2796 177.429 97.0289 177.415 96.8047Z" fill="#2F2E41"/>
<path d="M187.339 104.87C188.109 104.87 188.733 104.246 188.733 103.476C188.733 102.706 188.109 102.082 187.339 102.082C186.569 102.082 185.945 102.706 185.945 103.476C185.945 104.246 186.569 104.87 187.339 104.87Z" fill="#FFB9B9"/>
</svg>
